<svg width="31" height="31" viewBox="0 0 31 31" fill="none" xmlns="http://www.w3.org/2000/svg">
<path fill-rule="evenodd" clip-rule="evenodd" d="M28.9513 8.3662C28.3937 7.26673 27.7001 6.2293 26.8784 5.28162L24.923 8.66779L14.3665 26.9529L12.4111 30.339C13.6426 30.576 14.8879 30.6578 16.1194 30.5918L18.4483 26.5582L26.6224 12.3998L28.9513 8.3662Z" fill="#F4AA00"/>
<path fill-rule="evenodd" clip-rule="evenodd" d="M28.5636 22.9589C30.4484 19.6942 30.9929 16.0242 30.3692 12.5846L25.4256 21.1474L20.4819 29.7102C23.7724 28.5302 26.6788 26.2237 28.5636 22.9589Z" fill="#01E49C"/>
<path fill-rule="evenodd" clip-rule="evenodd" d="M22.9751 2.0591L22.9738 2.05844L22.9724 2.05778L22.9711 2.05712L22.9698 2.05646L22.9685 2.0558L22.9672 2.05514L22.9658 2.05448L22.9645 2.05382L22.9632 2.05316L22.9619 2.0525L22.9606 2.05184C22.849 1.98716 22.7362 1.92381 22.6233 1.86243L22.6161 1.85848L22.6082 1.85452C22.5039 1.79776 22.399 1.74299 22.2947 1.68887L22.2333 1.65785C22.1475 1.6143 22.0611 1.5714 21.9739 1.52982L21.8532 1.47175C21.7885 1.44139 21.7245 1.41169 21.6598 1.382L21.6361 1.37078C21.5833 1.34636 21.5305 1.32326 21.477 1.2995L21.4704 1.29686C17.7873 -0.329241 13.7332 -0.385996 10.1378 0.901556L10.1385 0.900896C10.0837 0.920694 10.0283 0.940493 9.97351 0.960951L9.90488 0.986689C9.81843 1.01903 9.73198 1.05268 9.64552 1.087L9.59867 1.10614C9.51221 1.14046 9.42576 1.17609 9.33997 1.21239L9.27529 1.24011C9.1895 1.27706 9.10371 1.31402 9.01857 1.3523L8.97238 1.37342C8.88461 1.41301 8.79749 1.45393 8.71038 1.49485L8.66286 1.51728C8.57575 1.55952 8.48864 1.60242 8.40219 1.64597L8.35467 1.67039C8.26954 1.71329 8.18507 1.7575 8.10059 1.80238L8.05044 1.82878C7.96398 1.87497 7.87687 1.92315 7.79108 1.97133L7.75544 1.99112C7.66635 2.04128 7.57792 2.09276 7.49014 2.14489L7.44989 2.16865C7.35816 2.22342 7.26708 2.27886 7.17667 2.33561L7.16413 2.34353C7.0724 2.40095 6.98067 2.45969 6.89025 2.51908L6.86584 2.53558C6.78004 2.59167 6.69491 2.64909 6.61044 2.70782L6.5715 2.73488C6.49033 2.79098 6.41048 2.84839 6.32996 2.90581L6.28905 2.9355C6.20919 2.99358 6.13 3.05297 6.05081 3.11237L6.01319 3.14075C5.93466 3.2008 5.85678 3.26152 5.77891 3.32289L5.73667 3.35655C5.66012 3.41792 5.58422 3.47996 5.50833 3.54265L5.46939 3.57499C5.39218 3.63967 5.31563 3.705 5.23973 3.77165L5.20938 3.79805C5.13018 3.86735 5.05165 3.93796 4.97378 4.00923L4.95134 4.02969C4.87214 4.10295 4.79361 4.17686 4.71508 4.25143L4.69792 4.26793C4.61543 4.34713 4.53293 4.4283 4.45242 4.51013H4.45176L4.45044 4.51145C4.36993 4.59263 4.28941 4.67512 4.21088 4.75827L4.19306 4.77741C4.11981 4.85528 4.04655 4.93382 3.97462 5.01301L3.94492 5.04601C3.87563 5.12322 3.80699 5.20043 3.73902 5.27897L3.71262 5.30933C3.64465 5.38852 3.57667 5.46837 3.51068 5.54888L3.4823 5.58386C3.41631 5.66372 3.35163 5.74423 3.28762 5.82606L3.25792 5.86434C3.19391 5.94683 3.12989 6.02998 3.0672 6.1138L3.04476 6.14415C2.9814 6.22863 2.91937 6.31442 2.85799 6.40087L2.83094 6.43849C2.76956 6.52494 2.70885 6.61272 2.64879 6.70115L2.62635 6.73415C2.56498 6.82456 2.50492 6.91629 2.44553 7.00934L2.42903 7.03508C2.36501 7.13473 2.30166 7.2357 2.24029 7.33733V7.33799C2.17627 7.44227 2.11358 7.54852 2.0522 7.65477C1.99083 7.76168 1.93011 7.86859 1.87138 7.97616L1.86676 7.98474C1.81066 8.08703 1.75655 8.18998 1.70309 8.29293L1.68593 8.32725C1.63578 8.42492 1.58628 8.5226 1.53876 8.62093L1.52293 8.65326C1.47475 8.75226 1.42789 8.85191 1.38236 8.95156L1.36784 8.98258C1.32296 9.08157 1.27941 9.18056 1.23651 9.27955L1.22001 9.31717C1.17843 9.41484 1.13752 9.51317 1.09792 9.6115L1.08208 9.65044C1.04183 9.75207 1.00289 9.85304 0.964612 9.95467L0.954713 9.98107C0.915777 10.0853 0.87882 10.1896 0.841863 10.2945L0.833943 10.3176L0.831964 10.3229L0.829984 10.3282L0.828004 10.3335L0.826024 10.3388L0.824044 10.344L0.822064 10.3493L0.820085 10.3546L0.818765 10.3599L0.816785 10.3652L0.814805 10.3704L0.812825 10.3757L0.810845 10.381L0.808866 10.3863L0.806886 10.3916L0.805566 10.3968L0.803586 10.4021L0.801606 10.4074L0.800286 10.4127L0.798966 10.4173L0.796987 10.4226L0.795007 10.4279L0.793027 10.4331L0.791707 10.4384L0.790387 10.4437L0.788407 10.4483L0.786427 10.4536L0.785108 10.4589L0.783128 10.4642L0.781808 10.4694L0.780488 10.4747L0.778508 10.48L0.777188 10.4846L0.775868 10.4899L0.773889 10.4952L0.772569 10.5004L0.771249 10.5057L0.769269 10.511L0.767949 10.5163L0.766629 10.5209L0.764649 10.5262L0.763329 10.5315L0.76135 10.5367L0.76003 10.542L0.75871 10.5473L0.75673 10.5526L0.75541 10.5579L0.75343 10.5631L0.75211 10.5684L0.750131 10.5737L0.748811 10.579L0.747491 10.5843L0.746171 10.5895L0.744851 10.5948L0.743531 10.6001L0.741551 10.6054L0.740231 10.6107L0.738252 10.6159L0.736932 10.6212L0.734952 10.6265L0.733632 10.6318L0.731652 10.6371L0.730332 10.6423L0.729012 10.6476L0.727032 10.6529L0.726373 10.6555C0.654439 10.8793 0.588444 11.1043 0.527729 11.33L0.52113 11.3538C0.492752 11.4593 0.465694 11.5649 0.439957 11.6705L0.432697 11.7022C0.408279 11.8045 0.384521 11.9061 0.361423 12.0084L0.352184 12.052C0.330406 12.153 0.309288 12.2539 0.289489 12.3549L0.28223 12.3938C0.261772 12.4981 0.242633 12.603 0.224815 12.708L0.220195 12.7337C0.201717 12.8413 0.184558 12.9488 0.168719 13.0564L0.16542 13.0795C0.149581 13.1884 0.134402 13.298 0.120543 13.4075L0.118564 13.424L0.117904 13.4293L0.117244 13.4346L0.116584 13.4398L0.115924 13.4451L0.115264 13.4504L0.114604 13.4557L0.113944 13.461L0.113284 13.4662L0.112624 13.4715L0.111964 13.4768L0.111304 13.4821L0.110644 13.4874L0.109984 13.4926L0.109324 13.4979L0.108664 13.5032L0.108004 13.5085L0.107345 13.5138L0.106685 13.519L0.106025 13.5243L0.105365 13.5296L0.104705 13.5349L0.104045 13.5402L0.103385 13.5454L0.102725 13.5507L0.102065 13.556L0.101405 13.5613L0.100745 13.5666L0.100085 13.5718L0.0994252 13.5771L0.0987652 13.5824L0.0981053 13.5877L0.0974453 13.5929L0.0967854 13.5982L0.0961255 13.6035L0.0954655 13.6088L0.0948056 13.6141L0.0941456 13.6193L0.0934857 13.6246L0.0928257 13.6299L0.0921658 13.6352L0.0915058 13.6405L0.0908459 13.6457L0.0901859 13.651L0.089526 13.6563L0.0888661 13.6616L0.0882061 13.6669L0.0875462 13.6721L0.0868862 13.6774L0.0862263 13.6827L0.0855663 13.688L0.0849064 13.6933L0.0842464 13.6985L0.0835865 13.7038L0.0829266 13.7091L0.0822666 13.7144L0.0816067 13.7197L0.0809467 13.7249L0.0802868 13.7302L0.0796268 13.7355L0.0789669 13.7408L0.0783069 13.7461L0.077647 13.7513L0.0769871 13.7566L0.0763271 13.7619L0.0756672 13.7665C0.0525691 13.9929 0.0354105 14.2192 0.0228716 14.4456L0.0208918 14.4826C0.0156122 14.5848 0.0109926 14.6871 0.00769288 14.7894L0.00637299 14.8323C0.00307327 14.934 0.00109343 15.0356 0.000433487 15.1372V15.1775C-0.000226457 15.2791 -0.000226457 15.3801 0.00109343 15.4817L0.00175338 15.5259C0.00307327 15.6289 0.00637299 15.7318 0.00967271 15.8348L0.0109926 15.8638C0.0149523 15.9681 0.0195719 16.0717 0.0255114 16.176L0.0274912 16.2116C0.0334307 16.3165 0.0413501 16.4221 0.0499293 16.5271L0.0519092 16.5535C0.0604884 16.6597 0.0703876 16.766 0.0816067 16.8722L0.0842464 16.896C0.0954655 17.0055 0.108664 17.1151 0.122523 17.2246L0.126483 17.2523C0.139682 17.3573 0.15486 17.4615 0.170039 17.5658L0.174659 17.5955C0.189838 17.6971 0.206336 17.7981 0.223495 17.8984L0.232074 17.9453L0.247253 18.0324L0.247913 18.0311C0.940854 21.8495 3.07446 25.3835 6.41509 27.7626C6.47317 27.8042 6.53124 27.8444 6.58998 27.8854L6.71405 27.9705C6.79192 28.0233 6.87046 28.0754 6.94965 28.1269L7.01102 28.1665C7.10738 28.2285 7.20439 28.2899 7.30272 28.35L7.3245 28.3632C7.43339 28.4298 7.5436 28.4952 7.65513 28.5598L7.65645 28.5605L7.65777 28.5611L7.65909 28.5618L7.66041 28.5625L7.66173 28.5631L7.66305 28.5638L7.66437 28.5644L7.66569 28.5651L7.66701 28.5658L7.66833 28.5664L7.66965 28.5671L7.67097 28.5677L7.67229 28.5684C8.15603 28.8462 8.64835 29.0964 9.14727 29.3161L10.0144 27.8141L10.9733 26.1537L22.5369 6.12502L23.4958 4.4646L24.3629 2.96256C23.9221 2.63985 23.4595 2.3376 22.9757 2.05712L22.9751 2.0591ZM8.08278 24.4867C3.65389 21.0094 2.29044 14.7604 5.05693 9.7039L5.05957 9.69994L5.06155 9.69598L5.06353 9.69202L5.06551 9.68872C5.10642 9.61348 5.14866 9.53891 5.19156 9.465L5.19354 9.46104L5.19552 9.45774C5.23643 9.38712 5.27801 9.31717 5.32025 9.24721L5.32223 9.24325L5.32421 9.2393L5.32685 9.236L5.32883 9.23204L5.33213 9.22676C8.32827 4.30423 14.4215 2.36069 19.647 4.45734L8.08344 24.486L8.08278 24.4867Z" fill="white"/>
</svg>
