<svg width="601" height="504" viewBox="0 0 601 504" fill="none" xmlns="http://www.w3.org/2000/svg">
<rect x="0.5" y="0.5" width="600" height="503" rx="11.5" fill="#EFF5FB" stroke="#C7DBEF"/>
<path d="M139 181C139 158.909 156.909 141 179 141H423C445.091 141 463 158.909 463 181V504H139V181Z" fill="black"/>
<path d="M155 181C155 167.745 165.745 157 179 157H423C436.255 157 447 167.745 447 181V504H155V181Z" fill="white"/>
<path d="M230 157H372V168C372 176.837 364.837 184 356 184H246C237.163 184 230 176.837 230 168V157Z" fill="black"/>
<path d="M362.392 321.724V337.736C360.105 335.903 357.203 334.806 354.044 334.806C346.668 334.806 340.689 340.785 340.689 348.161C340.689 355.537 346.668 361.517 354.044 361.517C357.203 361.517 360.104 360.419 362.392 358.586V361.519H367.901V321.724H362.392ZM354.034 339.668C358.724 339.668 362.527 343.471 362.527 348.161C362.527 352.851 358.724 356.655 354.034 356.655C349.344 356.655 345.54 352.851 345.54 348.161C345.54 343.471 349.344 339.668 354.034 339.668Z" fill="#122940"/>
<path d="M315.636 334.808V350.546C315.636 356.605 320.549 361.518 326.608 361.518C332.668 361.518 337.58 356.605 337.58 350.546V334.808H332.071V350.546C332.071 353.562 329.625 356.008 326.608 356.008C323.592 356.008 321.146 353.562 321.146 350.546V334.808H315.636Z" fill="#122940"/>
<path fill-rule="evenodd" clip-rule="evenodd" d="M288.794 361.519C281.418 361.519 275.439 355.539 275.439 348.163C275.439 340.787 281.418 334.808 288.794 334.808C296.17 334.808 302.15 340.787 302.15 348.163C302.15 348.611 302.127 349.055 302.084 349.492H299.861H297.196H280.393C281.032 353.558 284.549 356.668 288.795 356.668C291.8 356.668 294.439 355.11 295.953 352.759H301.339C299.466 357.871 294.556 361.519 288.796 361.519H288.794ZM296.725 345.16C296.613 344.86 296.484 344.568 296.34 344.286H296.366C295.081 341.783 292.592 340 289.663 339.703L289.651 339.702C289.588 339.696 289.525 339.69 289.462 339.685L289.437 339.683C289.37 339.678 289.303 339.673 289.236 339.67L289.21 339.668C289.154 339.666 289.097 339.663 289.041 339.662L288.989 339.661C288.924 339.659 288.859 339.658 288.793 339.658C288.728 339.658 288.663 339.659 288.598 339.661L288.546 339.662C288.49 339.664 288.434 339.666 288.377 339.668L288.351 339.67C288.284 339.673 288.217 339.678 288.15 339.683L288.125 339.685C288.062 339.69 287.998 339.695 287.936 339.702L287.924 339.703C284.995 340 282.506 341.783 281.221 344.286H281.247C281.103 344.569 280.974 344.86 280.862 345.16H296.724H296.725Z" fill="#122940"/>
<path d="M305.731 321.724V361.519H311.24V321.724H305.731Z" fill="#122940"/>
<path d="M371.89 325.523V322.171H370.638V321.726H373.645V322.171H372.394V325.523H371.89Z" fill="#122940"/>
<path d="M374.154 325.523V321.726H374.907L375.805 324.413C375.889 324.664 375.949 324.851 375.986 324.976C376.029 324.838 376.098 324.635 376.19 324.367L377.103 321.726H377.776V325.523H377.293V322.346L376.185 325.523H375.732L374.635 322.288V325.523H374.152H374.154Z" fill="#122940"/>
<path fill-rule="evenodd" clip-rule="evenodd" d="M261.361 335.623C260.636 334.194 259.735 332.845 258.666 331.613L256.124 336.015L242.401 359.786L239.859 364.188C241.46 364.496 243.079 364.602 244.68 364.517L247.707 359.273L258.334 340.867L261.361 335.623Z" fill="#F4AA00"/>
<path fill-rule="evenodd" clip-rule="evenodd" d="M260.857 354.594C263.307 350.35 264.015 345.579 263.204 341.107L256.777 352.239L250.351 363.37C254.628 361.836 258.407 358.838 260.857 354.594Z" fill="#01E49C"/>
<path fill-rule="evenodd" clip-rule="evenodd" d="M253.592 327.424L253.59 327.424L253.588 327.423L253.587 327.422L253.585 327.421L253.583 327.42L253.581 327.419L253.58 327.418L253.578 327.418L253.576 327.417L253.575 327.416L253.573 327.415C253.428 327.331 253.281 327.249 253.134 327.169L253.125 327.164L253.115 327.158C252.979 327.085 252.843 327.013 252.707 326.943L252.627 326.903C252.516 326.846 252.403 326.79 252.29 326.736L252.133 326.661C252.049 326.621 251.966 326.583 251.882 326.544L251.851 326.53C251.782 326.498 251.714 326.468 251.644 326.437L251.636 326.433C246.848 324.32 241.577 324.246 236.903 325.92L236.904 325.919C236.833 325.944 236.761 325.97 236.69 325.997L236.6 326.03C236.488 326.072 236.376 326.116 236.263 326.161L236.202 326.186C236.09 326.23 235.978 326.276 235.866 326.324L235.782 326.36C235.67 326.408 235.559 326.456 235.448 326.506L235.388 326.533C235.274 326.584 235.161 326.638 235.048 326.691L234.986 326.72C234.873 326.775 234.759 326.831 234.647 326.887L234.585 326.919C234.475 326.975 234.365 327.032 234.255 327.091L234.19 327.125C234.077 327.185 233.964 327.248 233.853 327.31L233.806 327.336C233.69 327.401 233.575 327.468 233.461 327.536L233.409 327.567C233.29 327.638 233.171 327.71 233.054 327.784L233.037 327.794C232.918 327.869 232.799 327.945 232.681 328.022L232.65 328.044C232.538 328.117 232.428 328.191 232.318 328.268L232.267 328.303C232.162 328.376 232.058 328.45 231.953 328.525L231.9 328.564C231.796 328.639 231.693 328.716 231.59 328.794L231.541 328.831C231.439 328.909 231.338 328.988 231.237 329.067L231.182 329.111C231.082 329.191 230.984 329.272 230.885 329.353L230.834 329.395C230.734 329.479 230.634 329.564 230.536 329.651L230.496 329.685C230.393 329.775 230.291 329.867 230.19 329.96L230.161 329.986C230.058 330.081 229.956 330.177 229.854 330.274L229.831 330.296C229.724 330.399 229.617 330.504 229.512 330.611H229.511L229.51 330.612C229.405 330.718 229.3 330.825 229.198 330.933L229.175 330.958C229.08 331.059 228.985 331.162 228.891 331.264L228.853 331.307C228.762 331.408 228.673 331.508 228.585 331.61L228.551 331.65C228.462 331.753 228.374 331.856 228.288 331.961L228.251 332.007C228.165 332.11 228.081 332.215 227.998 332.321L227.959 332.371C227.876 332.478 227.793 332.587 227.711 332.695L227.682 332.735C227.6 332.845 227.519 332.956 227.44 333.069L227.404 333.118C227.325 333.23 227.246 333.344 227.168 333.459L227.138 333.502C227.059 333.619 226.981 333.739 226.903 333.86L226.882 333.893C226.799 334.023 226.716 334.154 226.636 334.286V334.287C226.553 334.423 226.472 334.561 226.392 334.699C226.312 334.838 226.233 334.977 226.157 335.117L226.151 335.128C226.078 335.261 226.008 335.395 225.938 335.528L225.916 335.573C225.851 335.7 225.786 335.827 225.725 335.955L225.704 335.997C225.641 336.125 225.58 336.255 225.521 336.385L225.502 336.425C225.444 336.554 225.387 336.682 225.332 336.811L225.31 336.86C225.256 336.987 225.203 337.115 225.151 337.243L225.131 337.293C225.078 337.425 225.028 337.557 224.978 337.689L224.965 337.723C224.915 337.859 224.867 337.994 224.819 338.13L224.808 338.16L224.806 338.167L224.803 338.174L224.801 338.181L224.798 338.188L224.795 338.195L224.793 338.202L224.79 338.209L224.789 338.215L224.786 338.222L224.783 338.229L224.781 338.236L224.778 338.243L224.776 338.25L224.773 338.257L224.771 338.263L224.769 338.27L224.766 338.277L224.764 338.284L224.763 338.29L224.76 338.297L224.758 338.304L224.755 338.311L224.753 338.317L224.752 338.324L224.749 338.33L224.746 338.337L224.745 338.344L224.742 338.351L224.74 338.358L224.739 338.365L224.736 338.372L224.734 338.378L224.733 338.384L224.73 338.391L224.728 338.398L224.727 338.405L224.724 338.412L224.722 338.419L224.721 338.425L224.718 338.432L224.716 338.438L224.714 338.445L224.712 338.452L224.71 338.459L224.708 338.466L224.706 338.473L224.704 338.48L224.702 338.487L224.699 338.493L224.698 338.5L224.696 338.507L224.694 338.514L224.692 338.521L224.691 338.528L224.688 338.535L224.686 338.541L224.684 338.548L224.682 338.555L224.68 338.562L224.678 338.569L224.675 338.576L224.674 338.583L224.672 338.589L224.669 338.596L224.668 338.6C224.575 338.891 224.489 339.183 224.41 339.477L224.402 339.507C224.365 339.645 224.33 339.782 224.296 339.919L224.287 339.96C224.255 340.093 224.224 340.226 224.194 340.359L224.182 340.415C224.154 340.546 224.126 340.678 224.1 340.809L224.091 340.86C224.064 340.995 224.04 341.132 224.016 341.268L224.01 341.301C223.986 341.441 223.964 341.581 223.943 341.721L223.939 341.751C223.919 341.892 223.899 342.035 223.881 342.177L223.878 342.199L223.877 342.206L223.877 342.212L223.876 342.219L223.875 342.226L223.874 342.233L223.873 342.24L223.872 342.247L223.871 342.254L223.871 342.261L223.87 342.267L223.869 342.274L223.868 342.281L223.867 342.288L223.866 342.295L223.865 342.302L223.865 342.309L223.864 342.315L223.863 342.322L223.862 342.329L223.861 342.336L223.86 342.343L223.859 342.35L223.859 342.357L223.858 342.363L223.857 342.37L223.856 342.377L223.855 342.384L223.854 342.391L223.853 342.398L223.853 342.405L223.852 342.412L223.851 342.418L223.85 342.425L223.849 342.432L223.848 342.439L223.847 342.446L223.847 342.453L223.846 342.46L223.845 342.466L223.844 342.473L223.843 342.48L223.842 342.487L223.841 342.494L223.841 342.501L223.84 342.508L223.839 342.514L223.838 342.521L223.837 342.528L223.836 342.535L223.835 342.542L223.834 342.549L223.834 342.556L223.833 342.563L223.832 342.569L223.831 342.576L223.83 342.583L223.829 342.59L223.828 342.597L223.828 342.604L223.827 342.611L223.826 342.617L223.825 342.624L223.824 342.631L223.823 342.638L223.822 342.644C223.792 342.938 223.77 343.233 223.754 343.527L223.751 343.575C223.744 343.708 223.738 343.841 223.734 343.974L223.732 344.03C223.728 344.162 223.726 344.294 223.725 344.426V344.478C223.724 344.61 223.724 344.742 223.726 344.874L223.726 344.931C223.728 345.065 223.732 345.199 223.737 345.333L223.738 345.371C223.744 345.506 223.75 345.641 223.757 345.776L223.76 345.823C223.768 345.959 223.778 346.096 223.789 346.233L223.792 346.267C223.803 346.405 223.816 346.543 223.83 346.681L223.834 346.712C223.848 346.855 223.865 346.997 223.883 347.14L223.889 347.176C223.906 347.312 223.925 347.448 223.945 347.583L223.951 347.622C223.971 347.754 223.992 347.885 224.015 348.016L224.026 348.076L224.046 348.19L224.046 348.188C224.947 353.152 227.721 357.746 232.064 360.839C232.139 360.893 232.215 360.945 232.291 360.999L232.452 361.109C232.554 361.178 232.656 361.246 232.759 361.313L232.838 361.364C232.964 361.445 233.09 361.524 233.218 361.603L233.246 361.62C233.388 361.706 233.531 361.791 233.676 361.875L233.678 361.876L233.679 361.877L233.681 361.878L233.683 361.879L233.684 361.88L233.686 361.88L233.688 361.881L233.69 361.882L233.691 361.883L233.693 361.884L233.695 361.885L233.696 361.886L233.698 361.886C234.327 362.248 234.967 362.573 235.616 362.859L236.743 360.906L237.989 358.747L253.022 332.71L254.269 330.552L255.396 328.599C254.823 328.179 254.221 327.786 253.593 327.422L253.592 327.424ZM234.232 356.58C228.474 352.06 226.702 343.936 230.298 337.363L230.302 337.357L230.304 337.352L230.307 337.347L230.309 337.343C230.362 337.245 230.417 337.148 230.473 337.052L230.476 337.047L230.478 337.043C230.531 336.951 230.586 336.86 230.64 336.769L230.643 336.764L230.646 336.759L230.649 336.754L230.652 336.749L230.656 336.742C234.551 330.343 242.472 327.816 249.265 330.542L234.233 356.579L234.232 356.58Z" fill="#122940"/>
</svg>
