<svg width="212" height="9" viewBox="0 0 212 9" fill="none" xmlns="http://www.w3.org/2000/svg">
<path d="M140.175 8.05309C140.898 8.06334 142.078 8.08128 143.546 8.10179C145.013 8.11717 146.768 8.13767 148.638 8.12998C152.377 8.1428 156.574 8.05565 159.853 7.95824C161.75 7.87878 163.647 7.83008 165.542 7.71986L168.386 7.57119L171.229 7.38407L172.651 7.28923L174.071 7.17388L176.912 6.94318L179.751 6.66635L181.172 6.52793L182.591 6.36644L185.427 6.0409L188.262 5.66666C190.153 5.4334 192.038 5.11812 193.926 4.84128C197.696 4.21584 201.465 3.55451 205.219 2.73169C205.805 2.60609 206.495 2.45998 207.199 2.31131C207.901 2.14726 208.616 1.98577 209.257 1.84992C210.54 1.57821 211.521 1.41416 211.494 1.56796C211.466 1.72688 210.788 2.01141 209.605 2.38052C209.014 2.56508 208.296 2.76758 207.47 2.98802C206.645 3.20078 205.708 3.40584 204.684 3.62884C199.722 4.69005 194.735 5.55388 189.747 6.26135C184.758 6.96113 179.769 7.49685 174.803 7.93261C171.171 8.26584 167.536 8.47347 163.902 8.66059C160.269 8.81182 156.635 8.93486 153.002 8.96818C145.735 9.06046 138.471 8.94767 131.207 8.68622C118.16 8.2197 105.116 7.17131 92.0975 5.62309C79.87 4.17995 67.6604 2.44717 55.4285 1.50388C52.7894 1.28856 50.1504 1.14245 47.5098 1.00916L45.5298 0.934825L44.5398 0.896377L43.5498 0.875871L41.5698 0.832295L39.5897 0.824604C34.3087 0.801534 29.0276 1.08606 23.757 1.691C23.1365 1.7679 22.4864 1.86274 21.8155 1.95758C21.4801 2.00628 21.1402 2.05498 20.7958 2.10369C20.453 2.15495 20.1056 2.2216 19.7583 2.27799C19.0622 2.39847 18.3587 2.51894 17.6581 2.63941C16.9605 2.77527 16.2658 2.91112 15.589 3.04441C15.3085 3.09824 15.0057 3.1572 14.6851 3.21872C14.3645 3.29049 14.0275 3.36483 13.6787 3.44173C12.9811 3.60065 12.2345 3.75188 11.4924 3.93644C10.7503 4.12356 10.0081 4.31068 9.31347 4.48499C8.96615 4.56701 8.63071 4.65929 8.31456 4.75157C7.99841 4.84128 7.69858 4.92331 7.4225 5.00021C6.94605 5.1335 6.46218 5.26935 5.97979 5.40264C5.49888 5.54875 5.02095 5.70767 4.55785 5.86147C4.025 6.03834 3.54261 6.19983 3.10623 6.34337C2.67134 6.49717 2.28542 6.63302 1.94404 6.7535C1.26276 6.99188 0.767009 7.15081 0.446405 7.2354C-0.194802 7.40457 -0.133948 7.27128 0.55624 6.8509C0.860517 6.66635 0.487967 6.7048 1.51063 6.28442C1.55219 6.26647 1.63679 6.23059 1.67539 6.21521C4.77456 4.90793 8.00879 4.00309 11.2712 3.21872C19.2774 1.24755 27.3608 0.319637 35.4427 0.0709973C43.526 -0.177642 51.6109 0.250428 59.6794 0.986092C69.5825 1.8935 79.4752 3.2828 89.3442 4.45935C92.0456 4.76438 94.7499 5.07198 97.4929 5.38214L97.4454 5.37701C100.309 5.67948 103.172 5.94862 106.036 6.20752C116.872 7.19951 128.198 7.79932 138.607 8.03771C139.018 8.03771 139.572 8.04539 140.175 8.05309Z" fill="#19D490"/>
</svg>
