<svg width="121" height="9" viewBox="0 0 121 9" fill="none" xmlns="http://www.w3.org/2000/svg">
<path d="M79.6298 8.05309C80.0404 8.06334 80.7107 8.08128 81.5446 8.10179C82.3785 8.11717 83.3752 8.13767 84.4376 8.12998C86.5616 8.1428 88.9461 8.05565 90.8086 7.95824C91.8862 7.87878 92.9638 7.83008 94.0406 7.71986L95.6561 7.57119L97.2708 7.38407L98.0785 7.28923L98.8855 7.17388L100.499 6.94318L102.112 6.66635L102.919 6.52793L103.725 6.36644L105.337 6.0409L106.947 5.66666C108.021 5.4334 109.092 5.11812 110.165 4.84128C112.306 4.21584 114.447 3.55451 116.58 2.73169C116.913 2.60609 117.305 2.45998 117.704 2.31131C118.103 2.14726 118.51 1.98577 118.874 1.84992C119.602 1.57821 120.16 1.41416 120.145 1.56796C120.129 1.72688 119.743 2.01141 119.071 2.38052C118.736 2.56508 118.328 2.76758 117.859 2.98802C117.39 3.20078 116.858 3.40584 116.276 3.62884C113.457 4.69005 110.624 5.55388 107.79 6.26135C104.956 6.96113 102.122 7.49685 99.3012 7.93261C97.2379 8.26584 95.173 8.47347 93.1088 8.66059C91.0447 8.81182 88.9806 8.93486 86.9165 8.96818C82.7883 9.06046 78.6618 8.94767 74.5353 8.68622C67.1237 8.2197 59.7138 7.17131 52.3183 5.62309C45.3722 4.17995 38.4362 2.44717 31.4875 1.50388C29.9884 1.28856 28.4892 1.14245 26.9892 1.00916L25.8644 0.934825L25.302 0.896377L24.7396 0.875871L23.6147 0.832295L22.4899 0.824604C19.4899 0.801534 16.4899 1.08606 13.4957 1.691C13.1433 1.7679 12.774 1.86274 12.3929 1.95758C12.2023 2.00628 12.0092 2.05498 11.8136 2.10369C11.6188 2.15495 11.4215 2.2216 11.2242 2.27799C10.8288 2.39847 10.4291 2.51894 10.0311 2.63941C9.63482 2.77527 9.24021 2.91112 8.85572 3.04441C8.69636 3.09824 8.52435 3.1572 8.34222 3.21872C8.16009 3.29049 7.96869 3.36483 7.77055 3.44173C7.37425 3.60065 6.95013 3.75188 6.52854 3.93644C6.10695 4.12356 5.68536 4.31068 5.29075 4.48499C5.09345 4.56701 4.90289 4.65929 4.72329 4.75157C4.54369 4.84128 4.37337 4.92331 4.21654 5.00021C3.94588 5.1335 3.671 5.26935 3.39697 5.40264C3.12378 5.54875 2.85227 5.70767 2.5892 5.86147C2.2865 6.03834 2.01247 6.19983 1.76457 6.34337C1.51752 6.49717 1.29829 6.63302 1.10436 6.7535C0.717341 6.99188 0.435719 7.15081 0.253592 7.2354C-0.110662 7.40457 -0.0760928 7.27128 0.315986 6.8509C0.488838 6.66635 0.277202 6.7048 0.858153 6.28442C0.881762 6.26647 0.929822 6.23059 0.951745 6.21521C2.71231 4.90793 4.5496 4.00309 6.40291 3.21872C10.951 1.24755 15.543 0.319637 20.1341 0.0709973C24.7261 -0.177642 29.3189 0.250428 33.9024 0.986092C39.5281 1.8935 45.1479 3.2828 50.7542 4.45935C52.2888 4.76438 53.8251 5.07198 55.3833 5.38214L55.3563 5.37701C56.9828 5.67948 58.6093 5.94862 60.2366 6.20752C66.3918 7.19951 72.8261 7.79932 78.7394 8.03771C78.9729 8.03771 79.2874 8.04539 79.6298 8.05309Z" fill="#19D490"/>
</svg>
