<svg width="45" height="45" viewBox="0 0 45 45" fill="none" xmlns="http://www.w3.org/2000/svg">
<circle cx="22.4999" cy="22.9" r="21.775" fill="#E6FCF5" stroke="#B0F7E0" stroke-width="0.65"/>
<path d="M30.008 28.7683C30.008 28.7683 29.0038 29.7545 28.7577 30.0437C28.3568 30.4715 27.8845 30.6735 27.2653 30.6735C27.2058 30.6735 27.1423 30.6735 27.0828 30.6695C25.904 30.5943 24.8085 30.1348 23.9869 29.7427C21.7404 28.6574 19.7678 27.1165 18.1285 25.1638C16.7751 23.5358 15.8701 22.0307 15.2708 20.4146C14.9017 19.4283 14.7667 18.6599 14.8263 17.935C14.866 17.4716 15.0446 17.0874 15.374 16.7586L16.7275 15.4079C16.9219 15.2257 17.1283 15.1267 17.3308 15.1267C17.5808 15.1267 17.7832 15.2772 17.9102 15.404C17.9142 15.4079 17.9182 15.4119 17.9221 15.4159C18.1643 15.6416 18.3945 15.8753 18.6366 16.1249C18.7596 16.2516 18.8866 16.3784 19.0136 16.5091L20.0972 17.5904C20.5179 18.0103 20.5179 18.3985 20.0972 18.8183C19.9821 18.9332 19.871 19.0481 19.7559 19.159C19.4225 19.4996 19.6844 19.2382 19.3391 19.5472C19.3311 19.5551 19.3232 19.5591 19.3192 19.567C18.9779 19.9076 19.0414 20.2404 19.1128 20.4661C19.1168 20.478 19.1208 20.4899 19.1247 20.5018C19.4065 21.1831 19.8034 21.8247 20.4067 22.5892L20.4107 22.5932C21.5062 23.9399 22.6612 24.9896 23.9352 25.7936C24.098 25.8966 24.2647 25.9798 24.4234 26.059C24.5663 26.1303 24.7013 26.1976 24.8164 26.2689C24.8323 26.2769 24.8481 26.2887 24.864 26.2967C24.999 26.364 25.126 26.3957 25.2569 26.3957C25.5864 26.3957 25.7928 26.1897 25.8602 26.1224L26.6382 25.346C26.7732 25.2113 26.9875 25.0489 27.2376 25.0489C27.4836 25.0489 27.6861 25.2034 27.8091 25.3381C27.8131 25.342 27.8131 25.342 27.817 25.346L30.004 27.5285C30.4128 27.9325 30.008 28.7683 30.008 28.7683Z" stroke="#01A26F" stroke-width="1.3" stroke-linecap="round" stroke-linejoin="round"/>
</svg>
