<svg width="16" height="16" viewBox="0 0 16 16" fill="none" xmlns="http://www.w3.org/2000/svg">
<rect width="16" height="16" rx="2" fill="#FFECEC"/>
<path d="M10.4178 5.5859C10.3849 5.55294 10.3458 5.52679 10.3028 5.50895C10.2598 5.4911 10.2137 5.48192 10.1671 5.48192C10.1206 5.48192 10.0745 5.4911 10.0315 5.50895C9.98845 5.52679 9.94937 5.55294 9.91648 5.5859L8.17781 7.32101L6.43915 5.58235C6.40623 5.54943 6.36715 5.52332 6.32414 5.5055C6.28113 5.48768 6.23503 5.47852 6.18848 5.47852C6.14193 5.47852 6.09583 5.48768 6.05282 5.5055C6.00981 5.52332 5.97073 5.54943 5.93781 5.58235C5.9049 5.61526 5.87878 5.65434 5.86097 5.69735C5.84315 5.74036 5.83398 5.78646 5.83398 5.83301C5.83398 5.87956 5.84315 5.92566 5.86097 5.96867C5.87878 6.01168 5.9049 6.05076 5.93781 6.08368L7.67648 7.82235L5.93781 9.56101C5.9049 9.59393 5.87878 9.63301 5.86097 9.67602C5.84315 9.71903 5.83398 9.76512 5.83398 9.81168C5.83398 9.85823 5.84315 9.90433 5.86097 9.94734C5.87878 9.99035 5.9049 10.0294 5.93781 10.0623C5.97073 10.0953 6.00981 10.1214 6.05282 10.1392C6.09583 10.157 6.14193 10.1662 6.18848 10.1662C6.23503 10.1662 6.28113 10.157 6.32414 10.1392C6.36715 10.1214 6.40623 10.0953 6.43915 10.0623L8.17781 8.32368L9.91648 10.0623C9.9494 10.0953 9.98848 10.1214 10.0315 10.1392C10.0745 10.157 10.1206 10.1662 10.1671 10.1662C10.2137 10.1662 10.2598 10.157 10.3028 10.1392C10.3458 10.1214 10.3849 10.0953 10.4178 10.0623C10.4507 10.0294 10.4768 9.99035 10.4947 9.94734C10.5125 9.90433 10.5216 9.85823 10.5216 9.81168C10.5216 9.76512 10.5125 9.71903 10.4947 9.67602C10.4768 9.63301 10.4507 9.59393 10.4178 9.56101L8.67915 7.82235L10.4178 6.08368C10.5529 5.94857 10.5529 5.72101 10.4178 5.5859Z" fill="#F27070"/>
</svg>
