<svg width="120" height="52" viewBox="0 0 120 52" fill="none" xmlns="http://www.w3.org/2000/svg">
<path d="M107.541 0.530304V12.8475C105.783 11.4372 103.55 10.5931 101.12 10.5931C95.4465 10.5931 90.8467 15.1923 90.8467 20.8665C90.8467 26.54 95.4465 31.1399 101.12 31.1399C103.55 31.1399 105.782 30.2958 107.541 28.8855V31.1418H111.779V0.530304L107.541 0.530304ZM101.112 14.333C104.72 14.333 107.646 17.2586 107.646 20.8665C107.646 24.4744 104.72 27.3999 101.112 27.3999C97.5042 27.3999 94.5787 24.4744 94.5787 20.8665C94.5787 17.2586 97.5042 14.333 101.112 14.333Z" fill="#1C1C40"/>
<path d="M71.5757 10.5951V22.7011C71.5757 27.3623 75.3545 31.1412 80.0157 31.1412C84.6769 31.1412 88.4557 27.3623 88.4557 22.7011V10.5951H84.2176V22.7011C84.2176 25.0215 82.3361 26.903 80.0157 26.903C77.6954 26.903 75.8139 25.0215 75.8139 22.7011V10.5951H71.5757Z" fill="#1C1C40"/>
<path fill-rule="evenodd" clip-rule="evenodd" d="M50.928 31.1418C45.2538 31.1418 40.6547 26.542 40.6547 20.8685C40.6547 15.1943 45.2538 10.5951 50.928 10.5951C56.6016 10.5951 61.2014 15.1943 61.2014 20.8685C61.2014 21.213 61.1842 21.5542 61.1512 21.8901H59.4406H57.3909H44.4658C44.9568 25.0182 47.6626 27.4105 50.9287 27.4105C53.2398 27.4105 55.2705 26.2121 56.4346 24.4031H60.5777C59.1371 28.3358 55.3602 31.1418 50.9293 31.1418H50.928ZM57.0285 18.558C56.9421 18.327 56.8431 18.1027 56.7322 17.8855H56.752C55.7641 15.9605 53.8489 14.5891 51.5965 14.3608L51.5873 14.3594C51.5385 14.3548 51.4903 14.3502 51.4415 14.3462L51.4223 14.3449C51.3708 14.341 51.3194 14.3377 51.2679 14.335L51.2474 14.3337C51.2045 14.3317 51.161 14.3297 51.1174 14.3291L51.0778 14.3278C51.0277 14.3265 50.9775 14.3258 50.9274 14.3258C50.8772 14.3258 50.827 14.3265 50.7769 14.3278L50.7373 14.3291C50.6937 14.3304 50.6508 14.3317 50.6073 14.3337L50.5868 14.335C50.5354 14.3377 50.4839 14.341 50.4324 14.3449L50.4133 14.3462C50.3644 14.3502 50.3156 14.3542 50.2674 14.3594L50.2582 14.3608C48.0058 14.5891 46.0906 15.9605 45.1027 17.8855H45.1225C45.0116 18.1033 44.9126 18.3277 44.8262 18.558H57.0279H57.0285Z" fill="#1C1C40"/>
<path d="M63.9559 0.530304V31.1418H68.1941V0.530304H63.9559Z" fill="#1C1C40"/>
<path d="M114.848 3.45255V0.874143H113.885V0.531631H116.198V0.874143H115.235V3.45255H114.848Z" fill="#1C1C40"/>
<path d="M116.589 3.45255V0.531631H117.169L117.86 2.59924C117.924 2.79194 117.97 2.93581 117.999 3.03216C118.032 2.92591 118.085 2.7695 118.155 2.5636L118.858 0.531631H119.375V3.45255H119.004V1.00877L118.151 3.45255H117.803L116.959 0.963895V3.45255H116.588H116.589Z" fill="#1C1C40"/>
<path fill-rule="evenodd" clip-rule="evenodd" d="M29.8256 11.2221C29.2679 10.1226 28.5743 9.08516 27.7527 8.13748L25.7973 11.5237L15.2408 29.8087L13.2854 33.1949C14.5169 33.4318 15.7622 33.5137 16.9936 33.4477L19.3226 29.4141L27.4966 15.2556L29.8256 11.2221Z" fill="#F4AA00"/>
<path fill-rule="evenodd" clip-rule="evenodd" d="M29.4375 25.8148C31.3223 22.55 31.8668 18.8801 31.2431 15.4404L26.2995 24.0032L21.3558 32.566C24.6463 31.386 27.5527 29.0795 29.4375 25.8148Z" fill="#01E49C"/>
<path fill-rule="evenodd" clip-rule="evenodd" d="M23.8491 4.91498L23.8478 4.91432L23.8465 4.91366L23.8451 4.913L23.8438 4.91234L23.8425 4.91168L23.8412 4.91102L23.8399 4.91036L23.8385 4.9097L23.8372 4.90904L23.8359 4.90838L23.8346 4.90772C23.7231 4.84305 23.6102 4.77969 23.4974 4.71832L23.4901 4.71436L23.4822 4.7104C23.3779 4.65364 23.273 4.59887 23.1687 4.54475L23.1073 4.51373C23.0215 4.47018 22.9351 4.42728 22.848 4.3857L22.7272 4.32763C22.6625 4.29727 22.5985 4.26757 22.5338 4.23788L22.5101 4.22666C22.4573 4.20224 22.4045 4.17914 22.351 4.15538L22.3444 4.15274C18.6613 2.52664 14.6072 2.46988 11.0119 3.75744L11.0125 3.75678C10.9577 3.77657 10.9023 3.79637 10.8475 3.81683L10.7789 3.84257C10.6925 3.87491 10.606 3.90856 10.5195 3.94288L10.4727 3.96202C10.3862 3.99634 10.2998 4.03197 10.214 4.06827L10.1493 4.09599C10.0635 4.13294 9.97773 4.1699 9.8926 4.20818L9.8464 4.2293C9.75863 4.26889 9.67152 4.30981 9.5844 4.35073L9.53689 4.37316C9.44978 4.4154 9.36266 4.4583 9.27621 4.50185L9.22869 4.52627C9.14356 4.56917 9.05909 4.61338 8.97462 4.65826L8.92446 4.68466C8.83801 4.73085 8.7509 4.77903 8.6651 4.82721L8.62947 4.84701C8.54037 4.89716 8.45194 4.94864 8.36417 5.00077L8.32391 5.02453C8.23218 5.07931 8.14111 5.13474 8.05069 5.1915L8.03816 5.19942C7.94642 5.25683 7.85469 5.31557 7.76428 5.37496L7.73986 5.39146C7.65407 5.44755 7.56893 5.50497 7.48446 5.5637L7.44553 5.59076C7.36435 5.64686 7.2845 5.70427 7.20399 5.76169L7.16307 5.79139C7.08322 5.84946 7.00402 5.90886 6.92483 5.96825L6.88721 5.99663C6.80868 6.05668 6.7308 6.1174 6.65293 6.17877L6.61069 6.21243C6.53414 6.2738 6.45825 6.33584 6.38235 6.39853L6.34342 6.43087C6.2662 6.49555 6.18965 6.56088 6.11376 6.62754L6.0834 6.65393C6.00421 6.72323 5.92567 6.79384 5.8478 6.86512L5.82536 6.88557C5.74617 6.95883 5.66763 7.03274 5.5891 7.10732L5.57194 7.12381C5.48945 7.20301 5.40696 7.28418 5.32644 7.36601H5.32578L5.32446 7.36733C5.24395 7.44851 5.16344 7.531 5.0849 7.61415L5.06708 7.63329C4.99383 7.71116 4.92058 7.7897 4.84864 7.86889L4.81895 7.90189C4.74965 7.9791 4.68102 8.05631 4.61304 8.13485L4.58665 8.16521C4.51867 8.2444 4.4507 8.32425 4.3847 8.40477L4.35632 8.43974C4.29033 8.5196 4.22566 8.60011 4.16164 8.68194L4.13194 8.72022C4.06793 8.80271 4.00391 8.88587 3.94122 8.96968L3.91878 9.00004C3.85543 9.08451 3.79339 9.1703 3.73202 9.25675L3.70496 9.29437C3.64358 9.38082 3.58287 9.4686 3.52281 9.55703L3.50038 9.59003C3.439 9.68044 3.37895 9.77217 3.31955 9.86522L3.30305 9.89096C3.23904 9.99061 3.17568 10.0916 3.11431 10.1932V10.1939C3.05029 10.2981 2.9876 10.4044 2.92622 10.5106C2.86485 10.6176 2.80413 10.7245 2.7454 10.832L2.74078 10.8406C2.68468 10.9429 2.63057 11.0459 2.57711 11.1488L2.55996 11.1831C2.5098 11.2808 2.4603 11.3785 2.41279 11.4768L2.39695 11.5091C2.34877 11.6081 2.30192 11.7078 2.25638 11.8074L2.24186 11.8385C2.19699 11.9374 2.15343 12.0364 2.11053 12.1354L2.09403 12.173C2.05246 12.2707 2.01154 12.3691 1.97194 12.4674L1.95611 12.5063C1.91585 12.608 1.87691 12.7089 1.83864 12.8106L1.82874 12.837C1.7898 12.9412 1.75284 13.0455 1.71589 13.1504L1.70797 13.1735L1.70599 13.1788L1.70401 13.1841L1.70203 13.1894L1.70005 13.1946L1.69807 13.1999L1.69609 13.2052L1.69411 13.2105L1.69279 13.2158L1.69081 13.221L1.68883 13.2263L1.68685 13.2316L1.68487 13.2369L1.68289 13.2422L1.68091 13.2474L1.67959 13.2527L1.67761 13.258L1.67563 13.2633L1.67431 13.2686L1.67299 13.2732L1.67101 13.2785L1.66903 13.2837L1.66705 13.289L1.66573 13.2943L1.66441 13.2996L1.66243 13.3042L1.66045 13.3095L1.65913 13.3148L1.65715 13.32L1.65583 13.3253L1.65451 13.3306L1.65253 13.3359L1.65121 13.3405L1.64989 13.3458L1.64791 13.3511L1.64659 13.3563L1.64527 13.3616L1.64329 13.3669L1.64197 13.3722L1.64065 13.3768L1.63867 13.3821L1.63735 13.3873L1.63537 13.3926L1.63405 13.3979L1.63273 13.4032L1.63075 13.4085L1.62943 13.4137L1.62745 13.419L1.62613 13.4243L1.62415 13.4296L1.62283 13.4349L1.62151 13.4401L1.62019 13.4454L1.61887 13.4507L1.61755 13.456L1.61557 13.4613L1.61425 13.4665L1.61228 13.4718L1.61096 13.4771L1.60898 13.4824L1.60766 13.4877L1.60568 13.4929L1.60436 13.4982L1.60304 13.5035L1.60106 13.5088L1.6004 13.5114C1.52846 13.7351 1.46247 13.9602 1.40175 14.1859L1.39515 14.2096C1.36678 14.3152 1.33972 14.4208 1.31398 14.5264L1.30672 14.5581C1.2823 14.6604 1.25854 14.762 1.23545 14.8643L1.22621 14.9079C1.20443 15.0088 1.18331 15.1098 1.16351 15.2108L1.15625 15.2497C1.13579 15.354 1.11666 15.4589 1.09884 15.5638L1.09422 15.5896C1.07574 15.6972 1.05858 15.8047 1.04274 15.9123L1.03944 15.9354C1.0236 16.0443 1.00843 16.1538 0.994567 16.2634L0.992587 16.2799L0.991927 16.2852L0.991267 16.2904L0.990607 16.2957L0.989947 16.301L0.989287 16.3063L0.988627 16.3116L0.987967 16.3168L0.987307 16.3221L0.986648 16.3274L0.985988 16.3327L0.985328 16.338L0.984668 16.3432L0.984008 16.3485L0.983348 16.3538L0.982688 16.3591L0.982028 16.3644L0.981368 16.3696L0.980708 16.3749L0.980048 16.3802L0.979388 16.3855L0.978728 16.3908L0.978068 16.396L0.977408 16.4013L0.976748 16.4066L0.976088 16.4119L0.975428 16.4172L0.974768 16.4224L0.974109 16.4277L0.973449 16.433L0.972789 16.4383L0.972129 16.4436L0.971469 16.4488L0.970809 16.4541L0.970149 16.4594L0.969489 16.4647L0.968829 16.4699L0.968169 16.4752L0.967509 16.4805L0.966849 16.4858L0.966189 16.4911L0.965529 16.4963L0.964869 16.5016L0.964209 16.5069L0.963549 16.5122L0.962889 16.5175L0.96223 16.5227L0.96157 16.528L0.96091 16.5333L0.96025 16.5386L0.95959 16.5439L0.95893 16.5491L0.95827 16.5544L0.95761 16.5597L0.95695 16.565L0.95629 16.5703L0.95563 16.5755L0.95497 16.5808L0.95431 16.5861L0.95365 16.5914L0.95299 16.5967L0.95233 16.6019L0.95167 16.6072L0.95101 16.6125L0.950351 16.6178L0.949691 16.6224C0.926593 16.8488 0.909434 17.0751 0.896895 17.3015L0.894915 17.3384C0.889636 17.4407 0.885016 17.543 0.881716 17.6453L0.880396 17.6882C0.877097 17.7898 0.875117 17.8915 0.874457 17.9931V18.0334C0.873797 18.135 0.873797 18.236 0.875117 18.3376L0.875777 18.3818C0.877097 18.4848 0.880396 18.5877 0.883696 18.6907L0.885016 18.7197C0.888976 18.824 0.893595 18.9276 0.899535 19.0319L0.901515 19.0675C0.907454 19.1724 0.915373 19.278 0.923953 19.3829L0.925933 19.4093C0.934512 19.5156 0.944411 19.6218 0.95563 19.7281L0.95827 19.7519C0.969489 19.8614 0.982688 19.971 0.996547 20.0805L1.00051 20.1082C1.01371 20.2132 1.02888 20.3174 1.04406 20.4217L1.04868 20.4514C1.06386 20.553 1.08036 20.654 1.09752 20.7543L1.1061 20.8012L1.12128 20.8883L1.12194 20.887C1.81488 24.7054 3.94848 28.2394 7.28912 30.6185C7.34719 30.6601 7.40527 30.7003 7.464 30.7412L7.58807 30.8264C7.66595 30.8792 7.74448 30.9313 7.82367 30.9828L7.88505 31.0224C7.9814 31.0844 8.07841 31.1458 8.17674 31.2058L8.19852 31.219C8.30741 31.2857 8.41762 31.351 8.52915 31.4157L8.53047 31.4164L8.53179 31.417L8.53311 31.4177L8.53443 31.4184L8.53575 31.419L8.53707 31.4197L8.53839 31.4203L8.53971 31.421L8.54103 31.4216L8.54235 31.4223L8.54367 31.423L8.54499 31.4236L8.54631 31.4243C9.03005 31.7021 9.52237 31.9522 10.0213 32.172L10.8885 30.67L11.8474 29.0096L23.4109 8.9809L24.3698 7.32048L25.237 5.81844C24.7961 5.49573 24.3335 5.19348 23.8498 4.913L23.8491 4.91498ZM8.9568 27.3425C4.52791 23.8653 3.16446 17.6163 5.93095 12.5598L5.93359 12.5558L5.93557 12.5519L5.93755 12.5479L5.93953 12.5446C5.98045 12.4694 6.02268 12.3948 6.06558 12.3209L6.06756 12.3169L6.06954 12.3136C6.11046 12.243 6.15203 12.173 6.19427 12.1031L6.19625 12.0991L6.19823 12.0952L6.20087 12.0919L6.20285 12.0879L6.20615 12.0826C9.2023 7.16011 15.2956 5.21657 20.521 7.31322L8.95746 27.3419L8.9568 27.3425Z" fill="#1C1C40"/>
<path d="M6.11745 42.8891C6.11745 43.2439 6.03192 43.5765 5.86086 43.8869C5.69614 44.1974 5.43321 44.4476 5.07208 44.6377C4.71729 44.8278 4.26746 44.9228 3.72261 44.9228H2.61071V47.4697H1.28024V40.8364H3.72261C4.23579 40.8364 4.67294 40.9251 5.03407 41.1024C5.3952 41.2798 5.66446 41.5238 5.84185 41.8342C6.02559 42.1446 6.11745 42.4963 6.11745 42.8891ZM3.66559 43.8489C4.03305 43.8489 4.30548 43.7666 4.48287 43.6018C4.66027 43.4308 4.74897 43.1932 4.74897 42.8891C4.74897 42.2429 4.38784 41.9197 3.66559 41.9197H2.61071V43.8489H3.66559ZM9.3999 47.5552C8.89305 47.5552 8.43689 47.4444 8.03141 47.2226C7.62594 46.9945 7.30599 46.6746 7.07157 46.2628C6.84349 45.851 6.72945 45.3758 6.72945 44.8373C6.72945 44.2987 6.84666 43.8236 7.08108 43.4118C7.32183 43 7.64811 42.6832 8.05992 42.4614C8.47173 42.2333 8.93106 42.1193 9.43791 42.1193C9.94475 42.1193 10.4041 42.2333 10.8159 42.4614C11.2277 42.6832 11.5508 43 11.7852 43.4118C12.026 43.8236 12.1464 44.2987 12.1464 44.8373C12.1464 45.3758 12.0228 45.851 11.7757 46.2628C11.535 46.6746 11.2055 46.9945 10.7874 47.2226C10.3756 47.4444 9.91308 47.5552 9.3999 47.5552ZM9.3999 46.3958C9.64065 46.3958 9.86556 46.3388 10.0746 46.2248C10.29 46.1044 10.4611 45.927 10.5878 45.6926C10.7145 45.4582 10.7779 45.1731 10.7779 44.8373C10.7779 44.3368 10.6448 43.9535 10.3787 43.6874C10.119 43.4149 9.79904 43.2787 9.4189 43.2787C9.03877 43.2787 8.71882 43.4149 8.45906 43.6874C8.20564 43.9535 8.07893 44.3368 8.07893 44.8373C8.07893 45.3378 8.20247 45.7242 8.44956 45.9967C8.70298 46.2628 9.01976 46.3958 9.3999 46.3958ZM20.4209 42.2048L18.8813 47.4697H17.4463L16.4865 43.7919L15.5267 47.4697H14.0822L12.5331 42.2048H13.8826L14.8139 46.2153L15.8213 42.2048H17.2278L18.2161 46.2057L19.1474 42.2048H20.4209ZM26.035 44.7232C26.035 44.9133 26.0223 45.0844 25.997 45.2364H22.1481C22.1798 45.6165 22.3129 45.9143 22.5473 46.1297C22.7817 46.3451 23.07 46.4528 23.4121 46.4528C23.9062 46.4528 24.2579 46.2406 24.4669 45.8161H25.902C25.7499 46.323 25.4585 46.7411 25.0276 47.0706C24.5968 47.3937 24.0678 47.5552 23.4406 47.5552C22.9337 47.5552 22.4776 47.4444 22.0721 47.2226C21.673 46.9945 21.3593 46.6746 21.1313 46.2628C20.9095 45.851 20.7986 45.3758 20.7986 44.8373C20.7986 44.2924 20.9095 43.8141 21.1313 43.4023C21.353 42.9904 21.6635 42.6737 22.0626 42.4519C22.4617 42.2302 22.9211 42.1193 23.4406 42.1193C23.9411 42.1193 24.3878 42.227 24.7806 42.4424C25.1797 42.6578 25.487 42.9651 25.7024 43.3642C25.9241 43.7571 26.035 44.21 26.035 44.7232ZM24.657 44.3431C24.6507 44.001 24.5271 43.7285 24.2864 43.5258C24.0456 43.3167 23.751 43.2122 23.4026 43.2122C23.0731 43.2122 22.7944 43.3136 22.5663 43.5163C22.3445 43.7127 22.2083 43.9883 22.1576 44.3431H24.657ZM28.3366 43.0221C28.5077 42.7434 28.7294 42.5248 29.0018 42.3664C29.2806 42.208 29.5974 42.1288 29.9522 42.1288V43.5258H29.6005C29.1824 43.5258 28.8656 43.624 28.6502 43.8204C28.4411 44.0168 28.3366 44.3589 28.3366 44.8468V47.4697H27.0061V42.2048H28.3366V43.0221ZM35.7425 44.7232C35.7425 44.9133 35.7299 45.0844 35.7045 45.2364H31.8557C31.8873 45.6165 32.0204 45.9143 32.2548 46.1297C32.4892 46.3451 32.7775 46.4528 33.1196 46.4528C33.6138 46.4528 33.9654 46.2406 34.1745 45.8161H35.6095C35.4574 46.323 35.166 46.7411 34.7352 47.0706C34.3044 47.3937 33.7753 47.5552 33.1481 47.5552C32.6413 47.5552 32.1851 47.4444 31.7796 47.2226C31.3805 46.9945 31.0669 46.6746 30.8388 46.2628C30.6171 45.851 30.5062 45.3758 30.5062 44.8373C30.5062 44.2924 30.6171 43.8141 30.8388 43.4023C31.0605 42.9904 31.371 42.6737 31.7701 42.4519C32.1693 42.2302 32.6286 42.1193 33.1481 42.1193C33.6486 42.1193 34.0953 42.227 34.4881 42.4424C34.8872 42.6578 35.1945 42.9651 35.4099 43.3642C35.6317 43.7571 35.7425 44.21 35.7425 44.7232ZM34.3645 44.3431C34.3582 44.001 34.2347 43.7285 33.9939 43.5258C33.7532 43.3167 33.4586 43.2122 33.1101 43.2122C32.7806 43.2122 32.5019 43.3136 32.2738 43.5163C32.0521 43.7127 31.9158 43.9883 31.8652 44.3431H34.3645ZM36.3715 44.8183C36.3715 44.2861 36.4761 43.8141 36.6851 43.4023C36.9005 42.9904 37.192 42.6737 37.5594 42.4519C37.9269 42.2302 38.3356 42.1193 38.7854 42.1193C39.1275 42.1193 39.4538 42.1953 39.7642 42.3474C40.0747 42.4931 40.3218 42.6895 40.5055 42.9366V40.4372H41.855V47.4697H40.5055V46.6904C40.3408 46.9502 40.1095 47.1593 39.8117 47.3176C39.514 47.476 39.1687 47.5552 38.7759 47.5552C38.3324 47.5552 37.9269 47.4412 37.5594 47.2131C37.192 46.985 36.9005 46.6651 36.6851 46.2533C36.4761 45.8351 36.3715 45.3568 36.3715 44.8183ZM40.515 44.8373C40.515 44.5142 40.4516 44.2386 40.3249 44.0105C40.1982 43.7761 40.0272 43.5987 39.8117 43.4783C39.5963 43.3516 39.3651 43.2882 39.118 43.2882C38.8709 43.2882 38.6428 43.3484 38.4338 43.4688C38.2247 43.5892 38.0536 43.7666 37.9206 44.001C37.7939 44.2291 37.7305 44.5015 37.7305 44.8183C37.7305 45.135 37.7939 45.4138 37.9206 45.6546C38.0536 45.889 38.2247 46.0695 38.4338 46.1962C38.6492 46.323 38.8772 46.3863 39.118 46.3863C39.3651 46.3863 39.5963 46.3261 39.8117 46.2057C40.0272 46.079 40.1982 45.9016 40.3249 45.6736C40.4516 45.4391 40.515 45.1604 40.515 44.8373ZM46.7493 42.9746C46.9204 42.7212 47.1548 42.5153 47.4526 42.3569C47.7567 42.1985 48.102 42.1193 48.4885 42.1193C48.9383 42.1193 49.3438 42.2302 49.7049 42.4519C50.0723 42.6737 50.3606 42.9904 50.5697 43.4023C50.7851 43.8077 50.8928 44.2797 50.8928 44.8183C50.8928 45.3568 50.7851 45.8351 50.5697 46.2533C50.3606 46.6651 50.0723 46.985 49.7049 47.2131C49.3438 47.4412 48.9383 47.5552 48.4885 47.5552C48.0957 47.5552 47.7504 47.4792 47.4526 47.3271C47.1612 47.1688 46.9267 46.966 46.7493 46.7189V47.4697H45.4189V40.4372H46.7493V42.9746ZM49.5338 44.8183C49.5338 44.5015 49.4673 44.2291 49.3343 44.001C49.2075 43.7666 49.0365 43.5892 48.8211 43.4688C48.612 43.3484 48.3839 43.2882 48.1368 43.2882C47.8961 43.2882 47.668 43.3516 47.4526 43.4783C47.2435 43.5987 47.0725 43.7761 46.9394 44.0105C46.8127 44.2449 46.7493 44.5205 46.7493 44.8373C46.7493 45.154 46.8127 45.4296 46.9394 45.6641C47.0725 45.8985 47.2435 46.079 47.4526 46.2057C47.668 46.3261 47.8961 46.3863 48.1368 46.3863C48.3839 46.3863 48.612 46.323 48.8211 46.1962C49.0365 46.0695 49.2075 45.889 49.3343 45.6546C49.4673 45.4201 49.5338 45.1414 49.5338 44.8183ZM56.8964 42.2048L53.6368 49.9596H52.2208L53.3612 47.3366L51.2514 42.2048H52.7434L54.1024 45.8826L55.4804 42.2048H56.8964Z" fill="#1C1C40"/>
<path d="M61.1895 40.8364V44.9418C61.1895 45.3916 61.3067 45.7369 61.5412 45.9777C61.7756 46.2121 62.105 46.3293 62.5295 46.3293C62.9603 46.3293 63.293 46.2121 63.5274 45.9777C63.7618 45.7369 63.879 45.3916 63.879 44.9418V40.8364H65.219V44.9323C65.219 45.4962 65.0954 45.9745 64.8483 46.3673C64.6076 46.7538 64.2813 47.0452 63.8695 47.2416C63.464 47.438 63.011 47.5362 62.5105 47.5362C62.0163 47.5362 61.5665 47.438 61.161 47.2416C60.7619 47.0452 60.4451 46.7538 60.2107 46.3673C59.9763 45.9745 59.8591 45.4962 59.8591 44.9323V40.8364H61.1895ZM69.422 42.1288C70.0492 42.1288 70.556 42.3284 70.9425 42.7275C71.329 43.1203 71.5222 43.6715 71.5222 44.3811V47.4697H70.1917V44.5617C70.1917 44.1435 70.0872 43.8236 69.8781 43.6018C69.6691 43.3737 69.384 43.2597 69.0228 43.2597C68.6554 43.2597 68.3639 43.3737 68.1485 43.6018C67.9394 43.8236 67.8349 44.1435 67.8349 44.5617V47.4697H66.5044V42.2048H67.8349V42.8606C68.0123 42.6325 68.2372 42.4551 68.5096 42.3284C68.7884 42.1953 69.0925 42.1288 69.422 42.1288ZM73.4622 41.5776C73.2277 41.5776 73.0313 41.5048 72.873 41.359C72.7209 41.207 72.6449 41.0201 72.6449 40.7983C72.6449 40.5766 72.7209 40.3929 72.873 40.2471C73.0313 40.0951 73.2277 40.0191 73.4622 40.0191C73.6966 40.0191 73.8898 40.0951 74.0419 40.2471C74.2003 40.3929 74.2794 40.5766 74.2794 40.7983C74.2794 41.0201 74.2003 41.207 74.0419 41.359C73.8898 41.5048 73.6966 41.5776 73.4622 41.5776ZM74.1179 42.2048V47.4697H72.7874V42.2048H74.1179ZM76.7629 40.4372V47.4697H75.4324V40.4372H76.7629ZM80.4152 47.5552C79.9084 47.5552 79.4522 47.4444 79.0467 47.2226C78.6412 46.9945 78.3213 46.6746 78.0869 46.2628C77.8588 45.851 77.7448 45.3758 77.7448 44.8373C77.7448 44.2987 77.862 43.8236 78.0964 43.4118C78.3371 43 78.6634 42.6832 79.0752 42.4614C79.487 42.2333 79.9464 42.1193 80.4532 42.1193C80.9601 42.1193 81.4194 42.2333 81.8312 42.4614C82.243 42.6832 82.5661 43 82.8005 43.4118C83.0413 43.8236 83.1617 44.2987 83.1617 44.8373C83.1617 45.3758 83.0381 45.851 82.791 46.2628C82.5503 46.6746 82.2208 46.9945 81.8027 47.2226C81.3909 47.4444 80.9284 47.5552 80.4152 47.5552ZM80.4152 46.3958C80.656 46.3958 80.8809 46.3388 81.0899 46.2248C81.3054 46.1044 81.4764 45.927 81.6031 45.6926C81.7298 45.4582 81.7932 45.1731 81.7932 44.8373C81.7932 44.3368 81.6601 43.9535 81.394 43.6874C81.1343 43.4149 80.8143 43.2787 80.4342 43.2787C80.0541 43.2787 79.7341 43.4149 79.4744 43.6874C79.2209 43.9535 79.0942 44.3368 79.0942 44.8373C79.0942 45.3378 79.2178 45.7242 79.4649 45.9967C79.7183 46.2628 80.0351 46.3958 80.4152 46.3958ZM85.4681 43.0221C85.6391 42.7434 85.8609 42.5248 86.1333 42.3664C86.4121 42.208 86.7289 42.1288 87.0837 42.1288V43.5258H86.732C86.3139 43.5258 85.9971 43.624 85.7817 43.8204C85.5726 44.0168 85.4681 44.3589 85.4681 44.8468V47.4697H84.1376V42.2048H85.4681V43.0221ZM88.6545 41.5776C88.4201 41.5776 88.2237 41.5048 88.0653 41.359C87.9133 41.207 87.8372 41.0201 87.8372 40.7983C87.8372 40.5766 87.9133 40.3929 88.0653 40.2471C88.2237 40.0951 88.4201 40.0191 88.6545 40.0191C88.889 40.0191 89.0822 40.0951 89.2342 40.2471C89.3926 40.3929 89.4718 40.5766 89.4718 40.7983C89.4718 41.0201 89.3926 41.207 89.2342 41.359C89.0822 41.5048 88.889 41.5776 88.6545 41.5776ZM89.3103 42.2048V47.4697H87.9798V42.2048H89.3103ZM93.5423 42.1288C94.1695 42.1288 94.6764 42.3284 95.0628 42.7275C95.4493 43.1203 95.6425 43.6715 95.6425 44.3811V47.4697H94.3121V44.5617C94.3121 44.1435 94.2075 43.8236 93.9985 43.6018C93.7894 43.3737 93.5043 43.2597 93.1432 43.2597C92.7757 43.2597 92.4843 43.3737 92.2689 43.6018C92.0598 43.8236 91.9552 44.1435 91.9552 44.5617V47.4697H90.6248V42.2048H91.9552V42.8606C92.1326 42.6325 92.3575 42.4551 92.63 42.3284C92.9087 42.1953 93.2129 42.1288 93.5423 42.1288ZM106.404 40.8364V47.4697H105.074V43.1552L103.297 47.4697H102.289L100.503 43.1552V47.4697H99.1722V40.8364H100.683L102.793 45.7686L104.903 40.8364H106.404ZM111.816 40.8364V41.9102H109.05V43.6113H111.169V44.6662H109.05V47.4697H107.72V40.8364H111.816ZM116.522 44.0675C116.896 44.1372 117.203 44.3241 117.444 44.6282C117.685 44.9323 117.805 45.2808 117.805 45.6736C117.805 46.0284 117.717 46.342 117.539 46.6144C117.368 46.8805 117.118 47.0896 116.788 47.2416C116.459 47.3937 116.069 47.4697 115.62 47.4697H112.759V40.8364H115.496C115.946 40.8364 116.332 40.9092 116.655 41.0549C116.985 41.2006 117.232 41.4034 117.397 41.6631C117.568 41.9229 117.653 42.2175 117.653 42.547C117.653 42.9334 117.549 43.2565 117.34 43.5163C117.137 43.7761 116.865 43.9598 116.522 44.0675ZM114.09 43.5733H115.306C115.623 43.5733 115.867 43.5036 116.038 43.3642C116.209 43.2185 116.294 43.0126 116.294 42.7465C116.294 42.4804 116.209 42.2745 116.038 42.1288C115.867 41.9831 115.623 41.9102 115.306 41.9102H114.09V43.5733ZM115.429 46.3863C115.753 46.3863 116.003 46.3103 116.18 46.1582C116.364 46.0062 116.456 45.7908 116.456 45.512C116.456 45.2269 116.361 45.0052 116.171 44.8468C115.981 44.682 115.724 44.5997 115.401 44.5997H114.09V46.3863H115.429Z" fill="#01A26F"/>
</svg>
