<svg width="119" height="51" viewBox="0 0 119 51" fill="none" xmlns="http://www.w3.org/2000/svg">
<path d="M106.917 0V12.3172C105.158 10.9069 102.925 10.0628 100.496 10.0628C94.822 10.0628 90.2222 14.662 90.2222 20.3362C90.2222 26.0097 94.822 30.6095 100.496 30.6095C102.925 30.6095 105.157 29.7655 106.917 28.3552V30.6115H111.155V0L106.917 0ZM100.488 13.8027C104.096 13.8027 107.021 16.7283 107.021 20.3362C107.021 23.9441 104.096 26.8696 100.488 26.8696C96.8797 26.8696 93.9542 23.9441 93.9542 20.3362C93.9542 16.7283 96.8797 13.8027 100.488 13.8027Z" fill="white"/>
<path d="M70.9512 10.0648V22.1708C70.9512 26.832 74.73 30.6109 79.3912 30.6109C84.0524 30.6109 87.8312 26.832 87.8312 22.1708V10.0648H83.5931V22.1708C83.5931 24.4912 81.7116 26.3727 79.3912 26.3727C77.0708 26.3727 75.1893 24.4912 75.1893 22.1708V10.0648H70.9512Z" fill="white"/>
<path fill-rule="evenodd" clip-rule="evenodd" d="M50.3034 30.6115C44.6292 30.6115 40.03 26.0117 40.03 20.3382C40.03 14.664 44.6292 10.0648 50.3034 10.0648C55.9769 10.0648 60.5767 14.664 60.5767 20.3382C60.5767 20.6827 60.5596 21.0239 60.5266 21.3598H58.816H56.7662H43.8412C44.3322 24.4879 47.038 26.8802 50.304 26.8802C52.6152 26.8802 54.6458 25.6817 55.81 23.8728H59.9531C58.5124 27.8054 54.7356 30.6115 50.3047 30.6115H50.3034ZM56.4039 18.0277C56.3175 17.7967 56.2185 17.5723 56.1076 17.3552H56.1274C55.1395 15.4302 53.2243 14.0588 50.9719 13.8305L50.9627 13.8291C50.9138 13.8245 50.8657 13.8199 50.8168 13.8159L50.7977 13.8146C50.7462 13.8107 50.6947 13.8074 50.6433 13.8047L50.6228 13.8034C50.5799 13.8014 50.5363 13.7994 50.4928 13.7988L50.4532 13.7975C50.403 13.7961 50.3529 13.7955 50.3027 13.7955C50.2526 13.7955 50.2024 13.7961 50.1523 13.7975L50.1127 13.7988C50.0691 13.8001 50.0262 13.8014 49.9827 13.8034L49.9622 13.8047C49.9107 13.8074 49.8592 13.8107 49.8078 13.8146L49.7886 13.8159C49.7398 13.8199 49.691 13.8239 49.6428 13.8291L49.6335 13.8305C47.3811 14.0588 45.466 15.4302 44.4781 17.3552H44.4979C44.387 17.573 44.288 17.7974 44.2015 18.0277H56.4033H56.4039Z" fill="white"/>
<path d="M63.3315 0V30.6115H67.5697V0H63.3315Z" fill="white"/>
<path d="M114.223 2.92226V0.343854H113.26V0.00134277H115.573V0.343854H114.61V2.92226H114.223Z" fill="white"/>
<path d="M115.965 2.92226V0.00134277H116.544L117.235 2.06895C117.299 2.26165 117.345 2.40552 117.374 2.50187C117.407 2.39562 117.46 2.23921 117.531 2.03331L118.234 0.00134277H118.751V2.92226H118.379V0.478483L117.527 2.92226H117.178L116.335 0.433606V2.92226H115.963H115.965Z" fill="white"/>
<path fill-rule="evenodd" clip-rule="evenodd" d="M29.2011 10.6918C28.6434 9.59229 27.9498 8.55486 27.1282 7.60718L25.1728 10.9934L14.6163 29.2784L12.6609 32.6646C13.8923 32.9015 15.1377 32.9834 16.3691 32.9174L18.6981 28.8838L26.8721 14.7253L29.2011 10.6918Z" fill="#F4AA00"/>
<path fill-rule="evenodd" clip-rule="evenodd" d="M28.8131 25.2845C30.6979 22.0197 31.2424 18.3498 30.6187 14.9102L25.6751 23.4729L20.7314 32.0357C24.0219 30.8557 26.9283 28.5492 28.8131 25.2845Z" fill="#01E49C"/>
<path fill-rule="evenodd" clip-rule="evenodd" d="M23.2246 4.38466L23.2233 4.384L23.222 4.38334L23.2206 4.38268L23.2193 4.38202L23.218 4.38136L23.2167 4.3807L23.2154 4.38004L23.214 4.37938L23.2127 4.37872L23.2114 4.37806L23.2101 4.3774C23.0985 4.31273 22.9857 4.24937 22.8728 4.188L22.8656 4.18404L22.8577 4.18008C22.7534 4.12332 22.6485 4.06855 22.5442 4.01443L22.4828 3.98341C22.397 3.93986 22.3106 3.89696 22.2235 3.85538L22.1027 3.79731C22.038 3.76695 21.974 3.73725 21.9093 3.70756L21.8856 3.69634C21.8328 3.67192 21.78 3.64882 21.7265 3.62506L21.7199 3.62242C18.0368 1.99632 13.9827 1.93957 10.3874 3.22712L10.388 3.22646C10.3332 3.24626 10.2778 3.26605 10.223 3.28651L10.1544 3.31225C10.0679 3.34459 9.98149 3.37824 9.89503 3.41256L9.84818 3.4317C9.76173 3.46602 9.67527 3.50165 9.58948 3.53795L9.52481 3.56567C9.43901 3.60263 9.35322 3.63958 9.26809 3.67786L9.22189 3.69898C9.13412 3.73857 9.04701 3.77949 8.95989 3.82041L8.91238 3.84285C8.82526 3.88508 8.73815 3.92798 8.6517 3.97153L8.60418 3.99595C8.51905 4.03885 8.43458 4.08307 8.3501 4.12794L8.29995 4.15434C8.2135 4.20054 8.12638 4.24871 8.04059 4.29689L8.00495 4.31669C7.91586 4.36684 7.82743 4.41832 7.73966 4.47045L7.6994 4.49421C7.60767 4.54899 7.51659 4.60442 7.42618 4.66118L7.41364 4.6691C7.32191 4.72651 7.23018 4.78525 7.13977 4.84464L7.11535 4.86114C7.02956 4.91724 6.94442 4.97465 6.85995 5.03339L6.82101 5.06044C6.73984 5.11654 6.65999 5.17395 6.57947 5.23137L6.53856 5.26107C6.4587 5.31914 6.37951 5.37854 6.30032 5.43793L6.2627 5.46631C6.18417 5.52636 6.10629 5.58708 6.02842 5.64845L5.98618 5.68211C5.90963 5.74349 5.83374 5.80552 5.75784 5.86822L5.71891 5.90055C5.64169 5.96523 5.56514 6.03056 5.48924 6.09722L5.45889 6.12361C5.37969 6.19291 5.30116 6.26352 5.22329 6.3348L5.20085 6.35525C5.12166 6.42851 5.04312 6.50242 4.96459 6.577L4.94743 6.59349C4.86494 6.67269 4.78244 6.75386 4.70193 6.83569H4.70127L4.69995 6.83701C4.61944 6.91819 4.53892 7.00068 4.46039 7.08383L4.44257 7.10297C4.36932 7.18084 4.29607 7.25938 4.22413 7.33857L4.19443 7.37157C4.12514 7.44878 4.05651 7.526 3.98853 7.60453L3.96213 7.63489C3.89416 7.71408 3.82618 7.79393 3.76019 7.87445L3.73181 7.90942C3.66582 7.98928 3.60114 8.06979 3.53713 8.15162L3.50743 8.1899C3.44342 8.27239 3.3794 8.35555 3.31671 8.43936L3.29427 8.46972C3.23091 8.55419 3.16888 8.63998 3.10751 8.72643L3.08045 8.76405C3.01907 8.8505 2.95836 8.93828 2.8983 9.02671L2.87586 9.05971C2.81449 9.15012 2.75443 9.24185 2.69504 9.3349L2.67854 9.36064C2.61453 9.46029 2.55117 9.56126 2.4898 9.6629V9.66356C2.42578 9.76783 2.36309 9.87408 2.30171 9.98033C2.24034 10.0872 2.17962 10.1942 2.12089 10.3017L2.11627 10.3103C2.06017 10.4126 2.00606 10.5155 1.9526 10.6185L1.93544 10.6528C1.88529 10.7505 1.83579 10.8482 1.78828 10.9465L1.77244 10.9788C1.72426 11.0778 1.67741 11.1775 1.63187 11.2771L1.61735 11.3081C1.57247 11.4071 1.52892 11.5061 1.48602 11.6051L1.46952 11.6427C1.42795 11.7404 1.38703 11.8387 1.34743 11.9371L1.33159 11.976C1.29134 12.0776 1.2524 12.1786 1.21412 12.2802L1.20423 12.3066C1.16529 12.4109 1.12833 12.5152 1.09137 12.6201L1.08346 12.6432L1.08148 12.6485L1.0795 12.6538L1.07752 12.659L1.07554 12.6643L1.07356 12.6696L1.07158 12.6749L1.0696 12.6802L1.06828 12.6854L1.0663 12.6907L1.06432 12.696L1.06234 12.7013L1.06036 12.7066L1.05838 12.7118L1.0564 12.7171L1.05508 12.7224L1.0531 12.7277L1.05112 12.733L1.0498 12.7382L1.04848 12.7429L1.0465 12.7481L1.04452 12.7534L1.04254 12.7587L1.04122 12.764L1.0399 12.7693L1.03792 12.7739L1.03594 12.7792L1.03462 12.7844L1.03264 12.7897L1.03132 12.795L1.03 12.8003L1.02802 12.8056L1.0267 12.8102L1.02538 12.8155L1.0234 12.8207L1.02208 12.826L1.02076 12.8313L1.01878 12.8366L1.01746 12.8418L1.01614 12.8465L1.01416 12.8517L1.01284 12.857L1.01086 12.8623L1.00954 12.8676L1.00822 12.8729L1.00624 12.8781L1.00492 12.8834L1.00294 12.8887L1.00162 12.894L0.999642 12.8993L0.998322 12.9045L0.997002 12.9098L0.995683 12.9151L0.994363 12.9204L0.993043 12.9257L0.991063 12.9309L0.989743 12.9362L0.987763 12.9415L0.986443 12.9468L0.984464 12.9521L0.983144 12.9573L0.981164 12.9626L0.979844 12.9679L0.978524 12.9732L0.976544 12.9785L0.975884 12.9811C0.90395 13.2048 0.837956 13.4299 0.777241 13.6556L0.770641 13.6793C0.742264 13.7849 0.715206 13.8905 0.689468 13.9961L0.682209 14.0278C0.657791 14.1301 0.634033 14.2317 0.610935 14.334L0.601696 14.3775C0.579917 14.4785 0.558799 14.5795 0.539001 14.6805L0.531742 14.7194C0.511283 14.8237 0.492145 14.9286 0.474326 15.0335L0.469707 15.0593C0.451228 15.1668 0.43407 15.2744 0.418231 15.382L0.414931 15.4051C0.399093 15.514 0.383914 15.6235 0.370055 15.7331L0.368075 15.7496L0.367415 15.7548L0.366755 15.7601L0.366095 15.7654L0.365436 15.7707L0.364776 15.776L0.364116 15.7812L0.363456 15.7865L0.362796 15.7918L0.362136 15.7971L0.361476 15.8024L0.360816 15.8076L0.360156 15.8129L0.359496 15.8182L0.358836 15.8235L0.358176 15.8288L0.357516 15.834L0.356856 15.8393L0.356196 15.8446L0.355536 15.8499L0.354876 15.8552L0.354216 15.8604L0.353557 15.8657L0.352897 15.871L0.352237 15.8763L0.351577 15.8816L0.350917 15.8868L0.350257 15.8921L0.349597 15.8974L0.348937 15.9027L0.348277 15.908L0.347617 15.9132L0.346957 15.9185L0.346297 15.9238L0.345637 15.9291L0.344977 15.9343L0.344317 15.9396L0.343657 15.9449L0.342997 15.9502L0.342337 15.9555L0.341678 15.9607L0.341018 15.966L0.340358 15.9713L0.339698 15.9766L0.339038 15.9819L0.338378 15.9871L0.337718 15.9924L0.337058 15.9977L0.336398 16.003L0.335738 16.0083L0.335078 16.0135L0.334418 16.0188L0.333758 16.0241L0.333098 16.0294L0.332438 16.0347L0.331778 16.0399L0.331118 16.0452L0.330458 16.0505L0.329799 16.0558L0.329139 16.0611L0.328479 16.0663L0.327819 16.0716L0.327159 16.0769L0.326499 16.0822L0.325839 16.0875L0.325179 16.0921C0.302081 16.3184 0.284922 16.5448 0.272383 16.7712L0.270403 16.8081C0.265124 16.9104 0.260504 17.0127 0.257205 17.115L0.255885 17.1579C0.252585 17.2595 0.250605 17.3611 0.249945 17.4628V17.503C0.249285 17.6047 0.249285 17.7056 0.250605 17.8073L0.251265 17.8515C0.252585 17.9544 0.255885 18.0574 0.259184 18.1603L0.260504 18.1894C0.264464 18.2937 0.269084 18.3973 0.275023 18.5015L0.277003 18.5372C0.282942 18.6421 0.290862 18.7477 0.299441 18.8526L0.301421 18.879C0.31 18.9853 0.319899 19.0915 0.331118 19.1978L0.333758 19.2215C0.344977 19.3311 0.358176 19.4406 0.372035 19.5502L0.375995 19.5779C0.389194 19.6828 0.404372 19.7871 0.419551 19.8914L0.424171 19.9211C0.439349 20.0227 0.455848 20.1237 0.473006 20.224L0.481586 20.2708L0.496764 20.358L0.497424 20.3566C1.19037 24.1751 3.32397 27.7091 6.66461 30.0882C6.72268 30.1298 6.78076 30.17 6.83949 30.2109L6.96356 30.2961C7.04143 30.3489 7.11997 30.401 7.19916 30.4525L7.26054 30.4921C7.35689 30.5541 7.4539 30.6155 7.55223 30.6755L7.57401 30.6887C7.6829 30.7554 7.79311 30.8207 7.90464 30.8854L7.90596 30.8861L7.90728 30.8867L7.9086 30.8874L7.90992 30.888L7.91124 30.8887L7.91256 30.8893L7.91388 30.89L7.9152 30.8907L7.91652 30.8913L7.91784 30.892L7.91916 30.8926L7.92048 30.8933L7.9218 30.894C8.40554 31.1718 8.89786 31.4219 9.39678 31.6417L10.2639 30.1397L11.2228 28.4792L22.7864 8.45058L23.7453 6.79016L24.6125 5.28812C24.1716 4.96541 23.709 4.66316 23.2253 4.38268L23.2246 4.38466ZM8.33229 26.8122C3.9034 23.335 2.53995 17.086 5.30644 12.0295L5.30908 12.0255L5.31106 12.0215L5.31304 12.0176L5.31502 12.0143C5.35594 11.939 5.39817 11.8645 5.44107 11.7906L5.44305 11.7866L5.44503 11.7833C5.48595 11.7127 5.52752 11.6427 5.56976 11.5728L5.57174 11.5688L5.57372 11.5649L5.57636 11.5616L5.57834 11.5576L5.58164 11.5523C8.57779 6.62979 14.6711 4.68625 19.8965 6.7829L8.33295 26.8116L8.33229 26.8122Z" fill="white"/>
<path d="M5.49294 42.3588C5.49294 42.7136 5.40741 43.0462 5.23635 43.3567C5.07162 43.6671 4.8087 43.9174 4.44757 44.1075C4.09278 44.2975 3.64295 44.3926 3.09809 44.3926H1.9862V46.9395H0.655732V40.3061H3.09809C3.61127 40.3061 4.04843 40.3948 4.40956 40.5722C4.77068 40.7496 5.03995 40.9935 5.21734 41.304C5.40107 41.6144 5.49294 41.966 5.49294 42.3588ZM3.04107 43.3187C3.40854 43.3187 3.68097 43.2363 3.85836 43.0716C4.03576 42.9005 4.12446 42.6629 4.12446 42.3588C4.12446 41.7126 3.76333 41.3895 3.04107 41.3895H1.9862V43.3187H3.04107ZM8.77538 47.025C8.26854 47.025 7.81238 46.9141 7.4069 46.6924C7.00142 46.4643 6.68148 46.1443 6.44706 45.7325C6.21898 45.3207 6.10494 44.8455 6.10494 44.307C6.10494 43.7685 6.22215 43.2933 6.45656 42.8815C6.69732 42.4697 7.0236 42.1529 7.43541 41.9312C7.84722 41.7031 8.30655 41.5891 8.8134 41.5891C9.32024 41.5891 9.77957 41.7031 10.1914 41.9312C10.6032 42.1529 10.9263 42.4697 11.1607 42.8815C11.4015 43.2933 11.5219 43.7685 11.5219 44.307C11.5219 44.8455 11.3983 45.3207 11.1512 45.7325C10.9105 46.1443 10.581 46.4643 10.1629 46.6924C9.75106 46.9141 9.28856 47.025 8.77538 47.025ZM8.77538 45.8656C9.01614 45.8656 9.24105 45.8086 9.45012 45.6945C9.66553 45.5741 9.83659 45.3967 9.9633 45.1623C10.09 44.9279 10.1534 44.6428 10.1534 44.307C10.1534 43.8065 10.0203 43.4232 9.75423 43.1571C9.49447 42.8847 9.17452 42.7485 8.79439 42.7485C8.41426 42.7485 8.09431 42.8847 7.83455 43.1571C7.58113 43.4232 7.45442 43.8065 7.45442 44.307C7.45442 44.8075 7.57796 45.194 7.82505 45.4664C8.07847 45.7325 8.39525 45.8656 8.77538 45.8656ZM19.7964 41.6746L18.2568 46.9395H16.8218L15.862 43.2617L14.9022 46.9395H13.4576L11.9086 41.6746H13.2581L14.1894 45.685L15.1968 41.6746H16.6033L17.5916 45.6755L18.5229 41.6746H19.7964ZM25.4105 44.193C25.4105 44.3831 25.3978 44.5541 25.3725 44.7062H21.5236C21.5553 45.0863 21.6883 45.3841 21.9228 45.5995C22.1572 45.8149 22.4454 45.9226 22.7876 45.9226C23.2817 45.9226 23.6334 45.7104 23.8424 45.2859H25.2774C25.1254 45.7927 24.8339 46.2109 24.4031 46.5403C23.9723 46.8634 23.4433 47.025 22.8161 47.025C22.3092 47.025 21.8531 46.9141 21.4476 46.6924C21.0484 46.4643 20.7348 46.1443 20.5068 45.7325C20.285 45.3207 20.1741 44.8455 20.1741 44.307C20.1741 43.7622 20.285 43.2838 20.5068 42.872C20.7285 42.4602 21.0389 42.1434 21.4381 41.9217C21.8372 41.6999 22.2966 41.5891 22.8161 41.5891C23.3166 41.5891 23.7632 41.6968 24.156 41.9122C24.5552 42.1276 24.8625 42.4349 25.0779 42.834C25.2996 43.2268 25.4105 43.6798 25.4105 44.193ZM24.0325 43.8128C24.0262 43.4707 23.9026 43.1983 23.6619 42.9956C23.4211 42.7865 23.1265 42.6819 22.7781 42.6819C22.4486 42.6819 22.1698 42.7833 21.9418 42.9861C21.72 43.1825 21.5838 43.4581 21.5331 43.8128H24.0325ZM27.7121 42.4919C27.8831 42.2131 28.1049 41.9945 28.3773 41.8362C28.6561 41.6778 28.9729 41.5986 29.3277 41.5986V42.9956H28.976C28.5579 42.9956 28.2411 43.0938 28.0257 43.2902C27.8166 43.4866 27.7121 43.8287 27.7121 44.3165V46.9395H26.3816V41.6746H27.7121V42.4919ZM35.118 44.193C35.118 44.3831 35.1053 44.5541 35.08 44.7062H31.2311C31.2628 45.0863 31.3959 45.3841 31.6303 45.5995C31.8647 45.8149 32.153 45.9226 32.4951 45.9226C32.9893 45.9226 33.3409 45.7104 33.55 45.2859H34.985C34.8329 45.7927 34.5415 46.2109 34.1107 46.5403C33.6798 46.8634 33.1508 47.025 32.5236 47.025C32.0168 47.025 31.5606 46.9141 31.1551 46.6924C30.756 46.4643 30.4424 46.1443 30.2143 45.7325C29.9925 45.3207 29.8817 44.8455 29.8817 44.307C29.8817 43.7622 29.9925 43.2838 30.2143 42.872C30.436 42.4602 30.7465 42.1434 31.1456 41.9217C31.5448 41.6999 32.0041 41.5891 32.5236 41.5891C33.0241 41.5891 33.4708 41.6968 33.8636 41.9122C34.2627 42.1276 34.57 42.4349 34.7854 42.834C35.0071 43.2268 35.118 43.6798 35.118 44.193ZM33.74 43.8128C33.7337 43.4707 33.6101 43.1983 33.3694 42.9956C33.1286 42.7865 32.834 42.6819 32.4856 42.6819C32.1561 42.6819 31.8774 42.7833 31.6493 42.9861C31.4275 43.1825 31.2913 43.4581 31.2406 43.8128H33.74ZM35.747 44.288C35.747 43.7558 35.8516 43.2838 36.0606 42.872C36.276 42.4602 36.5675 42.1434 36.9349 41.9217C37.3024 41.6999 37.711 41.5891 38.1609 41.5891C38.503 41.5891 38.8293 41.6651 39.1397 41.8171C39.4502 41.9629 39.6972 42.1593 39.881 42.4064V39.907H41.2305V46.9395H39.881V46.1602C39.7163 46.4199 39.485 46.629 39.1872 46.7874C38.8895 46.9458 38.5442 47.025 38.1514 47.025C37.7079 47.025 37.3024 46.9109 36.9349 46.6829C36.5675 46.4548 36.276 46.1348 36.0606 45.723C35.8516 45.3049 35.747 44.8265 35.747 44.288ZM39.8905 44.307C39.8905 43.9839 39.8271 43.7083 39.7004 43.4802C39.5737 43.2458 39.4026 43.0684 39.1872 42.948C38.9718 42.8213 38.7406 42.758 38.4935 42.758C38.2464 42.758 38.0183 42.8182 37.8092 42.9385C37.6002 43.0589 37.4291 43.2363 37.2961 43.4707C37.1694 43.6988 37.106 43.9712 37.106 44.288C37.106 44.6048 37.1694 44.8836 37.2961 45.1243C37.4291 45.3587 37.6002 45.5393 37.8092 45.666C38.0247 45.7927 38.2527 45.8561 38.4935 45.8561C38.7406 45.8561 38.9718 45.7959 39.1872 45.6755C39.4026 45.5488 39.5737 45.3714 39.7004 45.1433C39.8271 44.9089 39.8905 44.6301 39.8905 44.307ZM46.1248 42.4444C46.2959 42.1909 46.5303 41.985 46.8281 41.8266C47.1322 41.6683 47.4775 41.5891 47.8639 41.5891C48.3138 41.5891 48.7192 41.6999 49.0804 41.9217C49.4478 42.1434 49.7361 42.4602 49.9452 42.872C50.1606 43.2775 50.2683 43.7495 50.2683 44.288C50.2683 44.8265 50.1606 45.3049 49.9452 45.723C49.7361 46.1348 49.4478 46.4548 49.0804 46.6829C48.7192 46.9109 48.3138 47.025 47.8639 47.025C47.4711 47.025 47.1259 46.949 46.8281 46.7969C46.5366 46.6385 46.3022 46.4358 46.1248 46.1887V46.9395H44.7944V39.907H46.1248V42.4444ZM48.9093 44.288C48.9093 43.9712 48.8428 43.6988 48.7097 43.4707C48.583 43.2363 48.412 43.0589 48.1966 42.9385C47.9875 42.8182 47.7594 42.758 47.5123 42.758C47.2716 42.758 47.0435 42.8213 46.8281 42.948C46.619 43.0684 46.4479 43.2458 46.3149 43.4802C46.1882 43.7146 46.1248 43.9902 46.1248 44.307C46.1248 44.6238 46.1882 44.8994 46.3149 45.1338C46.4479 45.3682 46.619 45.5488 46.8281 45.6755C47.0435 45.7959 47.2716 45.8561 47.5123 45.8561C47.7594 45.8561 47.9875 45.7927 48.1966 45.666C48.412 45.5393 48.583 45.3587 48.7097 45.1243C48.8428 44.8899 48.9093 44.6111 48.9093 44.288ZM56.2719 41.6746L53.0122 49.4293H51.5962L52.7366 46.8064L50.6269 41.6746H52.1189L53.4779 45.3524L54.8559 41.6746H56.2719Z" fill="white"/>
<path d="M60.565 40.3061V44.4116C60.565 44.8614 60.6822 45.2067 60.9167 45.4474C61.1511 45.6818 61.4805 45.7991 61.905 45.7991C62.3358 45.7991 62.6684 45.6818 62.9029 45.4474C63.1373 45.2067 63.2545 44.8614 63.2545 44.4116V40.3061H64.5945V44.4021C64.5945 44.9659 64.4709 45.4443 64.2238 45.8371C63.9831 46.2235 63.6568 46.515 63.245 46.7114C62.8395 46.9078 62.3865 47.006 61.886 47.006C61.3918 47.006 60.942 46.9078 60.5365 46.7114C60.1374 46.515 59.8206 46.2235 59.5862 45.8371C59.3518 45.4443 59.2346 44.9659 59.2346 44.4021V40.3061H60.565ZM68.7975 41.5986C69.4247 41.5986 69.9315 41.7981 70.318 42.1973C70.7045 42.5901 70.8977 43.1413 70.8977 43.8509V46.9395H69.5672V44.0314C69.5672 43.6133 69.4627 43.2933 69.2536 43.0716C69.0445 42.8435 68.7594 42.7295 68.3983 42.7295C68.0309 42.7295 67.7394 42.8435 67.524 43.0716C67.3149 43.2933 67.2104 43.6133 67.2104 44.0314V46.9395H65.8799V41.6746H67.2104V42.3303C67.3878 42.1022 67.6127 41.9248 67.8851 41.7981C68.1639 41.6651 68.468 41.5986 68.7975 41.5986ZM72.8376 41.0474C72.6032 41.0474 72.4068 40.9745 72.2484 40.8288C72.0964 40.6767 72.0204 40.4898 72.0204 40.2681C72.0204 40.0464 72.0964 39.8626 72.2484 39.7169C72.4068 39.5648 72.6032 39.4888 72.8376 39.4888C73.0721 39.4888 73.2653 39.5648 73.4174 39.7169C73.5757 39.8626 73.6549 40.0464 73.6549 40.2681C73.6549 40.4898 73.5757 40.6767 73.4174 40.8288C73.2653 40.9745 73.0721 41.0474 72.8376 41.0474ZM73.4934 41.6746V46.9395H72.1629V41.6746H73.4934ZM76.1384 39.907V46.9395H74.8079V39.907H76.1384ZM79.7907 47.025C79.2838 47.025 78.8277 46.9141 78.4222 46.6924C78.0167 46.4643 77.6968 46.1443 77.4624 45.7325C77.2343 45.3207 77.1202 44.8455 77.1202 44.307C77.1202 43.7685 77.2375 43.2933 77.4719 42.8815C77.7126 42.4697 78.0389 42.1529 78.4507 41.9312C78.8625 41.7031 79.3219 41.5891 79.8287 41.5891C80.3356 41.5891 80.7949 41.7031 81.2067 41.9312C81.6185 42.1529 81.9416 42.4697 82.176 42.8815C82.4168 43.2933 82.5372 43.7685 82.5372 44.307C82.5372 44.8455 82.4136 45.3207 82.1665 45.7325C81.9258 46.1443 81.5963 46.4643 81.1782 46.6924C80.7664 46.9141 80.3039 47.025 79.7907 47.025ZM79.7907 45.8656C80.0314 45.8656 80.2564 45.8086 80.4654 45.6945C80.6808 45.5741 80.8519 45.3967 80.9786 45.1623C81.1053 44.9279 81.1687 44.6428 81.1687 44.307C81.1687 43.8065 81.0356 43.4232 80.7695 43.1571C80.5098 42.8847 80.1898 42.7485 79.8097 42.7485C79.4296 42.7485 79.1096 42.8847 78.8499 43.1571C78.5964 43.4232 78.4697 43.8065 78.4697 44.307C78.4697 44.8075 78.5933 45.194 78.8404 45.4664C79.0938 45.7325 79.4106 45.8656 79.7907 45.8656ZM84.8436 42.4919C85.0146 42.2131 85.2364 41.9945 85.5088 41.8362C85.7876 41.6778 86.1044 41.5986 86.4591 41.5986V42.9956H86.1075C85.6894 42.9956 85.3726 43.0938 85.1572 43.2902C84.9481 43.4866 84.8436 43.8287 84.8436 44.3165V46.9395H83.5131V41.6746H84.8436V42.4919ZM88.03 41.0474C87.7956 41.0474 87.5992 40.9745 87.4408 40.8288C87.2888 40.6767 87.2127 40.4898 87.2127 40.2681C87.2127 40.0464 87.2888 39.8626 87.4408 39.7169C87.5992 39.5648 87.7956 39.4888 88.03 39.4888C88.2644 39.4888 88.4577 39.5648 88.6097 39.7169C88.7681 39.8626 88.8473 40.0464 88.8473 40.2681C88.8473 40.4898 88.7681 40.6767 88.6097 40.8288C88.4577 40.9745 88.2644 41.0474 88.03 41.0474ZM88.6858 41.6746V46.9395H87.3553V41.6746H88.6858ZM92.9178 41.5986C93.545 41.5986 94.0519 41.7981 94.4383 42.1973C94.8248 42.5901 95.018 43.1413 95.018 43.8509V46.9395H93.6876V44.0314C93.6876 43.6133 93.583 43.2933 93.374 43.0716C93.1649 42.8435 92.8798 42.7295 92.5186 42.7295C92.1512 42.7295 91.8597 42.8435 91.6443 43.0716C91.4353 43.2933 91.3307 43.6133 91.3307 44.0314V46.9395H90.0003V41.6746H91.3307V42.3303C91.5081 42.1022 91.733 41.9248 92.0055 41.7981C92.2842 41.6651 92.5883 41.5986 92.9178 41.5986ZM105.78 40.3061V46.9395H104.449V42.6249L102.672 46.9395H101.665L99.8782 42.6249V46.9395H98.5477V40.3061H100.059L102.168 45.2384L104.278 40.3061H105.78ZM111.191 40.3061V41.38H108.426V43.0811H110.545V44.136H108.426V46.9395H107.095V40.3061H111.191ZM115.898 43.5373C116.272 43.6069 116.579 43.7938 116.82 44.0979C117.06 44.4021 117.181 44.7505 117.181 45.1433C117.181 45.4981 117.092 45.8117 116.915 46.0842C116.744 46.3502 116.493 46.5593 116.164 46.7114C115.835 46.8634 115.445 46.9395 114.995 46.9395H112.135V40.3061H114.872C115.321 40.3061 115.708 40.379 116.031 40.5247C116.36 40.6704 116.607 40.8731 116.772 41.1329C116.943 41.3927 117.029 41.6873 117.029 42.0167C117.029 42.4032 116.924 42.7263 116.715 42.9861C116.512 43.2458 116.24 43.4295 115.898 43.5373ZM113.465 43.0431H114.681C114.998 43.0431 115.242 42.9734 115.413 42.834C115.584 42.6883 115.67 42.4824 115.67 42.2163C115.67 41.9502 115.584 41.7443 115.413 41.5986C115.242 41.4528 114.998 41.38 114.681 41.38H113.465V43.0431ZM114.805 45.8561C115.128 45.8561 115.378 45.78 115.556 45.628C115.739 45.4759 115.831 45.2605 115.831 44.9818C115.831 44.6967 115.736 44.4749 115.546 44.3165C115.356 44.1518 115.1 44.0694 114.776 44.0694H113.465V45.8561H114.805Z" fill="#01E49C"/>
</svg>
