<svg width="119" height="34" viewBox="0 0 119 34" fill="none" xmlns="http://www.w3.org/2000/svg">
<path d="M106.917 0.749298V13.0665C105.158 11.6562 102.925 10.8121 100.496 10.8121C94.822 10.8121 90.2222 15.4113 90.2222 21.0855C90.2222 26.759 94.822 31.3588 100.496 31.3588C102.925 31.3588 105.157 30.5148 106.917 29.1045V31.3608H111.155V0.749298L106.917 0.749298ZM100.488 14.552C104.096 14.552 107.021 17.4776 107.021 21.0855C107.021 24.6934 104.096 27.6189 100.488 27.6189C96.8797 27.6189 93.9542 24.6934 93.9542 21.0855C93.9542 17.4776 96.8797 14.552 100.488 14.552Z" fill="white"/>
<path d="M70.9512 10.8141V22.9201C70.9512 27.5813 74.73 31.3602 79.3912 31.3602C84.0524 31.3602 87.8312 27.5813 87.8312 22.9201V10.8141H83.5931V22.9201C83.5931 25.2405 81.7116 27.122 79.3912 27.122C77.0708 27.122 75.1893 25.2405 75.1893 22.9201V10.8141H70.9512Z" fill="white"/>
<path fill-rule="evenodd" clip-rule="evenodd" d="M50.3036 31.3608C44.6294 31.3608 40.0303 26.761 40.0303 21.0875C40.0303 15.4133 44.6294 10.8141 50.3036 10.8141C55.9772 10.8141 60.577 15.4133 60.577 21.0875C60.577 21.432 60.5598 21.7732 60.5268 22.1091H58.8163H56.7665H43.8415C44.3325 25.2372 47.0382 27.6295 50.3043 27.6295C52.6154 27.6295 54.6461 26.431 55.8102 24.6221H59.9533C58.5127 28.5547 54.7358 31.3608 50.3049 31.3608H50.3036ZM56.4042 18.777C56.3177 18.546 56.2187 18.3216 56.1078 18.1045H56.1276C55.1397 16.1795 53.2245 14.8081 50.9722 14.5798L50.9629 14.5784C50.9141 14.5738 50.8659 14.5692 50.8171 14.5652L50.7979 14.5639C50.7465 14.56 50.695 14.5567 50.6435 14.554L50.623 14.5527C50.5801 14.5507 50.5366 14.5487 50.493 14.5481L50.4534 14.5468C50.4033 14.5454 50.3531 14.5448 50.303 14.5448C50.2528 14.5448 50.2027 14.5454 50.1525 14.5468L50.1129 14.5481C50.0693 14.5494 50.0265 14.5507 49.9829 14.5527L49.9624 14.554C49.911 14.5567 49.8595 14.56 49.808 14.5639L49.7889 14.5652C49.74 14.5692 49.6912 14.5732 49.643 14.5784L49.6338 14.5798C47.3814 14.8081 45.4662 16.1795 44.4783 18.1045H44.4981C44.3872 18.3223 44.2882 18.5467 44.2018 18.777H56.4035H56.4042Z" fill="white"/>
<path d="M63.3315 0.749298V31.3608H67.5697V0.749298H63.3315Z" fill="white"/>
<path d="M114.223 3.67152V1.09312H113.26V0.75061H115.573V1.09312H114.61V3.67152H114.223Z" fill="white"/>
<path d="M115.965 3.67152V0.75061H116.544L117.235 2.81822C117.299 3.01092 117.345 3.15479 117.374 3.25114C117.407 3.14489 117.46 2.98848 117.531 2.78258L118.234 0.75061H118.751V3.67152H118.379V1.22775L117.527 3.67152H117.178L116.335 1.18287V3.67152H115.963H115.965Z" fill="white"/>
<path fill-rule="evenodd" clip-rule="evenodd" d="M29.2008 11.4411C28.6432 10.3416 27.9496 9.30416 27.1279 8.35648L25.1725 11.7427L14.6161 30.0277L12.6606 33.4139C13.8921 33.6508 15.1374 33.7327 16.3689 33.6667L18.6978 29.6331L26.8719 15.4746L29.2008 11.4411Z" fill="#F4AA00"/>
<path fill-rule="evenodd" clip-rule="evenodd" d="M28.8131 26.0338C30.6979 22.769 31.2424 19.0991 30.6187 15.6594L25.6751 24.2222L20.7314 32.785C24.0219 31.605 26.9283 29.2985 28.8131 26.0338Z" fill="#01E49C"/>
<path fill-rule="evenodd" clip-rule="evenodd" d="M23.2246 5.13396L23.2233 5.1333L23.222 5.13264L23.2206 5.13198L23.2193 5.13132L23.218 5.13066L23.2167 5.13L23.2154 5.12934L23.214 5.12868L23.2127 5.12802L23.2114 5.12736L23.2101 5.1267C23.0985 5.06202 22.9857 4.99867 22.8728 4.93729L22.8656 4.93334L22.8577 4.92938C22.7534 4.87262 22.6485 4.81784 22.5442 4.76373L22.4828 4.73271C22.397 4.68916 22.3106 4.64626 22.2235 4.60468L22.1027 4.54661C22.038 4.51625 21.974 4.48655 21.9093 4.45686L21.8856 4.44564C21.8328 4.42122 21.78 4.39812 21.7265 4.37436L21.7199 4.37172C18.0368 2.74562 13.9827 2.68886 10.3874 3.97642L10.388 3.97576C10.3332 3.99555 10.2778 4.01535 10.223 4.03581L10.1544 4.06155C10.0679 4.09389 9.98149 4.12754 9.89503 4.16186L9.84818 4.181C9.76173 4.21532 9.67527 4.25095 9.58948 4.28725L9.52481 4.31497C9.43901 4.35192 9.35322 4.38888 9.26809 4.42716L9.22189 4.44828C9.13412 4.48787 9.04701 4.52879 8.95989 4.56971L8.91238 4.59214C8.82526 4.63438 8.73815 4.67728 8.6517 4.72083L8.60418 4.74525C8.51905 4.78815 8.43458 4.83236 8.3501 4.87724L8.29995 4.90364C8.2135 4.94983 8.12638 4.99801 8.04059 5.04619L8.00495 5.06598C7.91586 5.11614 7.82743 5.16762 7.73966 5.21975L7.6994 5.24351C7.60767 5.29828 7.51659 5.35372 7.42618 5.41047L7.41364 5.41839C7.32191 5.47581 7.23018 5.53454 7.13977 5.59394L7.11535 5.61044C7.02956 5.66653 6.94442 5.72395 6.85995 5.78268L6.82101 5.80974C6.73984 5.86584 6.65999 5.92325 6.57947 5.98067L6.53856 6.01036C6.4587 6.06844 6.37951 6.12783 6.30032 6.18723L6.2627 6.21561C6.18417 6.27566 6.10629 6.33638 6.02842 6.39775L5.98618 6.43141C5.90963 6.49278 5.83374 6.55482 5.75784 6.61751L5.71891 6.64985C5.64169 6.71453 5.56514 6.77986 5.48924 6.84651L5.45889 6.87291C5.37969 6.94221 5.30116 7.01282 5.22329 7.08409L5.20085 7.10455C5.12166 7.17781 5.04312 7.25172 4.96459 7.32629L4.94743 7.34279C4.86494 7.42199 4.78244 7.50316 4.70193 7.58499H4.70127L4.69995 7.58631C4.61944 7.66748 4.53892 7.74998 4.46039 7.83313L4.44257 7.85227C4.36932 7.93014 4.29607 8.00868 4.22413 8.08787L4.19443 8.12087C4.12514 8.19808 4.05651 8.27529 3.98853 8.35383L3.96213 8.38418C3.89416 8.46338 3.82618 8.54323 3.76019 8.62374L3.73181 8.65872C3.66582 8.73857 3.60114 8.81909 3.53713 8.90092L3.50743 8.9392C3.44342 9.02169 3.3794 9.10484 3.31671 9.18866L3.29427 9.21901C3.23091 9.30349 3.16888 9.38928 3.10751 9.47573L3.08045 9.51335C3.01907 9.5998 2.95836 9.68757 2.8983 9.77601L2.87586 9.809C2.81449 9.89942 2.75443 9.99115 2.69504 10.0842L2.67854 10.1099C2.61453 10.2096 2.55117 10.3106 2.4898 10.4122V10.4129C2.42578 10.5171 2.36309 10.6234 2.30171 10.7296C2.24034 10.8365 2.17962 10.9434 2.12089 11.051L2.11627 11.0596C2.06017 11.1619 2.00606 11.2648 1.9526 11.3678L1.93544 11.4021C1.88529 11.4998 1.83579 11.5975 1.78828 11.6958L1.77244 11.7281C1.72426 11.8271 1.67741 11.9268 1.63187 12.0264L1.61735 12.0574C1.57247 12.1564 1.52892 12.2554 1.48602 12.3544L1.46952 12.392C1.42795 12.4897 1.38703 12.588 1.34743 12.6864L1.33159 12.7253C1.29134 12.8269 1.2524 12.9279 1.21412 13.0295L1.20423 13.0559C1.16529 13.1602 1.12833 13.2645 1.09137 13.3694L1.08346 13.3925L1.08148 13.3978L1.0795 13.4031L1.07752 13.4083L1.07554 13.4136L1.07356 13.4189L1.07158 13.4242L1.0696 13.4295L1.06828 13.4347L1.0663 13.44L1.06432 13.4453L1.06234 13.4506L1.06036 13.4559L1.05838 13.4611L1.0564 13.4664L1.05508 13.4717L1.0531 13.477L1.05112 13.4823L1.0498 13.4875L1.04848 13.4922L1.0465 13.4974L1.04452 13.5027L1.04254 13.508L1.04122 13.5133L1.0399 13.5186L1.03792 13.5232L1.03594 13.5285L1.03462 13.5337L1.03264 13.539L1.03132 13.5443L1.03 13.5496L1.02802 13.5548L1.0267 13.5595L1.02538 13.5647L1.0234 13.57L1.02208 13.5753L1.02076 13.5806L1.01878 13.5859L1.01746 13.5911L1.01614 13.5958L1.01416 13.601L1.01284 13.6063L1.01086 13.6116L1.00954 13.6169L1.00822 13.6222L1.00624 13.6274L1.00492 13.6327L1.00294 13.638L1.00162 13.6433L0.999642 13.6486L0.998322 13.6538L0.997002 13.6591L0.995683 13.6644L0.994363 13.6697L0.993043 13.675L0.991063 13.6802L0.989743 13.6855L0.987763 13.6908L0.986443 13.6961L0.984464 13.7014L0.983144 13.7066L0.981164 13.7119L0.979844 13.7172L0.978524 13.7225L0.976544 13.7278L0.975884 13.7304C0.90395 13.9541 0.837956 14.1792 0.777241 14.4049L0.770641 14.4286C0.742264 14.5342 0.715206 14.6398 0.689468 14.7454L0.682209 14.7771C0.657791 14.8794 0.634033 14.981 0.610935 15.0833L0.601696 15.1268C0.579917 15.2278 0.558799 15.3288 0.539001 15.4298L0.531742 15.4687C0.511283 15.573 0.492145 15.6779 0.474326 15.7828L0.469707 15.8086C0.451228 15.9161 0.43407 16.0237 0.418231 16.1313L0.414931 16.1544C0.399093 16.2633 0.383914 16.3728 0.370055 16.4824L0.368075 16.4989L0.367415 16.5041L0.366755 16.5094L0.366095 16.5147L0.365436 16.52L0.364776 16.5253L0.364116 16.5305L0.363456 16.5358L0.362796 16.5411L0.362136 16.5464L0.361476 16.5517L0.360816 16.5569L0.360156 16.5622L0.359496 16.5675L0.358836 16.5728L0.358176 16.5781L0.357516 16.5833L0.356856 16.5886L0.356196 16.5939L0.355536 16.5992L0.354876 16.6045L0.354216 16.6097L0.353557 16.615L0.352897 16.6203L0.352237 16.6256L0.351577 16.6309L0.350917 16.6361L0.350257 16.6414L0.349597 16.6467L0.348937 16.652L0.348277 16.6572L0.347617 16.6625L0.346957 16.6678L0.346297 16.6731L0.345637 16.6784L0.344977 16.6836L0.344317 16.6889L0.343657 16.6942L0.342997 16.6995L0.342337 16.7048L0.341678 16.71L0.341018 16.7153L0.340358 16.7206L0.339698 16.7259L0.339038 16.7312L0.338378 16.7364L0.337718 16.7417L0.337058 16.747L0.336398 16.7523L0.335738 16.7576L0.335078 16.7628L0.334418 16.7681L0.333758 16.7734L0.333098 16.7787L0.332438 16.784L0.331778 16.7892L0.331118 16.7945L0.330458 16.7998L0.329799 16.8051L0.329139 16.8104L0.328479 16.8156L0.327819 16.8209L0.327159 16.8262L0.326499 16.8315L0.325839 16.8368L0.325179 16.8414C0.302081 17.0677 0.284922 17.2941 0.272383 17.5205L0.270403 17.5574C0.265124 17.6597 0.260504 17.762 0.257205 17.8643L0.255885 17.9072C0.252585 18.0088 0.250605 18.1104 0.249945 18.2121V18.2523C0.249285 18.354 0.249285 18.4549 0.250605 18.5566L0.251265 18.6008C0.252585 18.7037 0.255885 18.8067 0.259184 18.9096L0.260504 18.9387C0.264464 19.0429 0.269084 19.1466 0.275023 19.2508L0.277003 19.2865C0.282942 19.3914 0.290862 19.497 0.299441 19.6019L0.301421 19.6283C0.31 19.7346 0.319899 19.8408 0.331118 19.9471L0.333758 19.9708C0.344977 20.0804 0.358176 20.1899 0.372035 20.2995L0.375995 20.3272C0.389194 20.4321 0.404372 20.5364 0.419551 20.6407L0.424171 20.6704C0.439349 20.772 0.455848 20.873 0.473006 20.9733L0.481586 21.0201L0.496764 21.1073L0.497424 21.1059C1.19037 24.9244 3.32397 28.4584 6.66461 30.8375C6.72268 30.8791 6.78076 30.9193 6.83949 30.9602L6.96356 31.0454C7.04143 31.0982 7.11997 31.1503 7.19916 31.2018L7.26054 31.2414C7.35689 31.3034 7.4539 31.3648 7.55223 31.4248L7.57401 31.438C7.6829 31.5047 7.79311 31.57 7.90464 31.6347L7.90596 31.6353L7.90728 31.636L7.9086 31.6367L7.90992 31.6373L7.91124 31.638L7.91256 31.6386L7.91388 31.6393L7.9152 31.64L7.91652 31.6406L7.91784 31.6413L7.91916 31.6419L7.92048 31.6426L7.9218 31.6433C8.40554 31.9211 8.89786 32.1712 9.39678 32.391L10.2639 30.889L11.2228 29.2285L22.7864 9.19988L23.7453 7.53946L24.6125 6.03742C24.1716 5.71471 23.709 5.41245 23.2253 5.13198L23.2246 5.13396ZM8.33229 27.5615C3.9034 24.0843 2.53995 17.8352 5.30644 12.7788L5.30908 12.7748L5.31106 12.7708L5.31304 12.7669L5.31502 12.7636C5.35594 12.6883 5.39817 12.6138 5.44107 12.5399L5.44305 12.5359L5.44503 12.5326C5.48595 12.462 5.52752 12.392 5.56976 12.3221L5.57174 12.3181L5.57372 12.3142L5.57636 12.3109L5.57834 12.3069L5.58164 12.3016C8.57779 7.37909 14.6711 5.43555 19.8965 7.5322L8.33295 27.5609L8.33229 27.5615Z" fill="white"/>
</svg>
