<svg width="87" height="32" viewBox="0 0 87 32" fill="none" xmlns="http://www.w3.org/2000/svg">
<path d="M73.5469 5.27954V13.1626C72.4213 12.26 70.9924 11.7198 69.4373 11.7198C65.8062 11.7198 62.8623 14.6632 62.8623 18.2947C62.8623 21.9258 65.8062 24.8697 69.4373 24.8697C70.9924 24.8697 72.4208 24.3294 73.5469 23.4269V24.8709H76.2593V5.27954L73.5469 5.27954ZM69.4322 14.1133C71.7413 14.1133 73.6136 15.9856 73.6136 18.2947C73.6136 20.6038 71.7413 22.4761 69.4322 22.4761C67.1231 22.4761 65.2508 20.6038 65.2508 18.2947C65.2508 15.9856 67.1231 14.1133 69.4322 14.1133Z" fill="#122940"/>
<path d="M50.5288 11.7209V19.4688C50.5288 22.452 52.9473 24.8704 55.9304 24.8704C58.9136 24.8704 61.332 22.452 61.332 19.4688V11.7209H58.6196V19.4688C58.6196 20.9538 57.4155 22.158 55.9304 22.158C54.4454 22.158 53.2412 20.9538 53.2412 19.4688V11.7209H50.5288Z" fill="#122940"/>
<path fill-rule="evenodd" clip-rule="evenodd" d="M37.3142 24.8708C33.6827 24.8708 30.7393 21.927 30.7393 18.2959C30.7393 14.6644 33.6827 11.7209 37.3142 11.7209C40.9453 11.7209 43.8892 14.6644 43.8892 18.2959C43.8892 18.5164 43.8782 18.7347 43.8571 18.9497H42.7623H41.4504H33.1784C33.4927 20.9517 35.2243 22.4828 37.3146 22.4828C38.7937 22.4828 40.0934 21.7158 40.8384 20.5581H43.49C42.568 23.075 40.1508 24.8708 37.315 24.8708H37.3142ZM41.2185 16.8172C41.1632 16.6694 41.0999 16.5258 41.0289 16.3868H41.0416C40.4093 15.1548 39.1836 14.2771 37.7421 14.131L37.7361 14.1301C37.7049 14.1272 37.6741 14.1242 37.6428 14.1217L37.6306 14.1208C37.5976 14.1183 37.5647 14.1162 37.5317 14.1145L37.5186 14.1136C37.4912 14.1124 37.4633 14.1111 37.4354 14.1107L37.4101 14.1098C37.378 14.109 37.3459 14.1086 37.3138 14.1086C37.2817 14.1086 37.2496 14.109 37.2175 14.1098L37.1921 14.1107C37.1643 14.1115 37.1368 14.1124 37.1089 14.1136L37.0958 14.1145C37.0629 14.1162 37.03 14.1183 36.997 14.1208L36.9848 14.1217C36.9535 14.1242 36.9223 14.1267 36.8914 14.1301L36.8855 14.131C35.444 14.2771 34.2183 15.1548 33.586 16.3868H33.5987C33.5277 16.5262 33.4644 16.6698 33.409 16.8172H41.2181H41.2185Z" fill="#122940"/>
<path d="M45.6521 5.27954V24.8709H48.3645V5.27954H45.6521Z" fill="#122940"/>
<path d="M78.2227 7.14966V5.49948H77.6064V5.28027H79.0868V5.49948H78.4706V7.14966H78.2227Z" fill="#122940"/>
<path d="M79.3375 7.14966V5.28027H79.7084L80.1506 6.60354C80.1915 6.72687 80.2211 6.81895 80.2397 6.88061C80.2608 6.81261 80.2946 6.71251 80.3398 6.58073L80.7896 5.28027H81.1207V7.14966H80.8829V5.58564L80.3372 7.14966H80.1142L79.5745 5.55692V7.14966H79.3367H79.3375Z" fill="#122940"/>
<path fill-rule="evenodd" clip-rule="evenodd" d="M23.8086 12.1223C23.4517 11.4187 23.0078 10.7547 22.482 10.1482L21.2305 12.3153L14.4744 24.0178L13.2229 26.185C14.011 26.3366 14.808 26.389 15.5962 26.3467L17.0867 23.7652L22.3181 14.7038L23.8086 12.1223Z" fill="#F4AA00"/>
<path fill-rule="evenodd" clip-rule="evenodd" d="M23.5605 21.4616C24.7667 19.3722 25.1152 17.0234 24.716 14.822L21.5521 20.3022L18.3882 25.7824C20.4941 25.0272 22.3542 23.551 23.5605 21.4616Z" fill="#01E49C"/>
<path fill-rule="evenodd" clip-rule="evenodd" d="M19.9838 8.08565L19.983 8.08522L19.9821 8.0848L19.9813 8.08438L19.9805 8.08396L19.9796 8.08353L19.9788 8.08311L19.9779 8.08269L19.9771 8.08227L19.9762 8.08184L19.9754 8.08142L19.9745 8.081C19.9032 8.03961 19.8309 7.99906 19.7587 7.95978L19.7541 7.95725L19.749 7.95471C19.6823 7.91839 19.6151 7.88333 19.5484 7.8487L19.5091 7.82885C19.4542 7.80097 19.3989 7.77352 19.3431 7.74691L19.2658 7.70974C19.2244 7.69031 19.1835 7.67131 19.1421 7.6523L19.1269 7.64512C19.0931 7.62949 19.0593 7.61471 19.0251 7.5995L19.0208 7.59781C16.6636 6.55711 14.069 6.52078 11.768 7.34482L11.7684 7.3444C11.7334 7.35707 11.6979 7.36974 11.6628 7.38283L11.6189 7.3993C11.5636 7.42 11.5082 7.44154 11.4529 7.4635L11.4229 7.47575C11.3676 7.49771 11.3123 7.52052 11.2574 7.54375L11.216 7.56149C11.1611 7.58514 11.1062 7.6088 11.0517 7.63329L11.0221 7.64681C10.9659 7.67215 10.9102 7.69834 10.8544 7.72452L10.824 7.73888C10.7683 7.76592 10.7125 7.79337 10.6572 7.82125L10.6268 7.83687C10.5723 7.86433 10.5182 7.89262 10.4642 7.92135L10.4321 7.93824C10.3767 7.96781 10.321 7.99864 10.2661 8.02947L10.2433 8.04214C10.1862 8.07424 10.1297 8.10719 10.0735 8.14055L10.0477 8.15576C9.989 8.19081 9.93072 8.22629 9.87285 8.26262L9.86483 8.26768C9.80612 8.30443 9.74741 8.34202 9.68955 8.38003L9.67392 8.39059C9.61901 8.42649 9.56453 8.46324 9.51047 8.50083L9.48555 8.51815C9.4336 8.55405 9.38249 8.59079 9.33096 8.62754L9.30477 8.64655C9.25367 8.68371 9.20298 8.72173 9.1523 8.75974L9.12823 8.7779C9.07796 8.81634 9.02813 8.85519 8.97829 8.89447L8.95125 8.91601C8.90226 8.95529 8.85369 8.995 8.80512 9.03512L8.7802 9.05582C8.73078 9.09721 8.68179 9.13902 8.63321 9.18168L8.61379 9.19858C8.5631 9.24292 8.51284 9.28812 8.463 9.33373L8.44864 9.34683C8.39796 9.39371 8.3477 9.44101 8.29743 9.48874L8.28645 9.4993C8.23366 9.54998 8.18086 9.60193 8.12933 9.65431H8.12891L8.12807 9.65515C8.07654 9.7071 8.02501 9.7599 7.97475 9.81312L7.96334 9.82536C7.91646 9.8752 7.86958 9.92547 7.82354 9.97615L7.80454 9.99727C7.76019 10.0467 7.71626 10.0961 7.67276 10.1464L7.65586 10.1658C7.61236 10.2165 7.56886 10.2676 7.52662 10.3191L7.50846 10.3415C7.46622 10.3926 7.42483 10.4441 7.38386 10.4965L7.36485 10.521C7.32388 10.5738 7.28292 10.627 7.24279 10.6807L7.22843 10.7001C7.18788 10.7541 7.14818 10.8091 7.1089 10.8644L7.09158 10.8885C7.0523 10.9438 7.01345 11 6.97501 11.0566L6.96065 11.0777C6.92137 11.1355 6.88294 11.1942 6.84492 11.2538L6.83436 11.2703C6.79339 11.3341 6.75285 11.3987 6.71357 11.4637V11.4641C6.6726 11.5309 6.63247 11.5989 6.59319 11.6669C6.55391 11.7353 6.51506 11.8037 6.47747 11.8726L6.47451 11.8781C6.43861 11.9435 6.40397 12.0094 6.36976 12.0753L6.35878 12.0973C6.32668 12.1598 6.295 12.2223 6.26459 12.2852L6.25446 12.3059C6.22362 12.3693 6.19364 12.433 6.16449 12.4968L6.1552 12.5167C6.12648 12.58 6.0986 12.6434 6.07115 12.7067L6.06059 12.7308C6.03398 12.7933 6.0078 12.8563 5.98245 12.9192L5.97232 12.9441C5.94655 13.0091 5.92163 13.0738 5.89714 13.1388L5.8908 13.1557C5.86588 13.2224 5.84223 13.2892 5.81858 13.3563L5.81351 13.3711L5.81224 13.3745L5.81097 13.3779L5.80971 13.3813L5.80844 13.3846L5.80717 13.388L5.80591 13.3914L5.80464 13.3948L5.80379 13.3981L5.80253 13.4015L5.80126 13.4049L5.79999 13.4083L5.79873 13.4117L5.79746 13.415L5.79619 13.4184L5.79535 13.4218L5.79408 13.4252L5.79281 13.4286L5.79197 13.4319L5.79112 13.4349L5.78986 13.4383L5.78859 13.4416L5.78732 13.445L5.78648 13.4484L5.78563 13.4518L5.78437 13.4547L5.7831 13.4581L5.78225 13.4615L5.78099 13.4649L5.78014 13.4683L5.7793 13.4716L5.77803 13.475L5.77719 13.478L5.77634 13.4814L5.77507 13.4847L5.77423 13.4881L5.77338 13.4915L5.77212 13.4949L5.77127 13.4982L5.77043 13.5012L5.76916 13.5046L5.76832 13.508L5.76705 13.5113L5.7662 13.5147L5.76536 13.5181L5.76409 13.5215L5.76325 13.5249L5.76198 13.5282L5.76114 13.5316L5.75987 13.535L5.75902 13.5384L5.75818 13.5418L5.75733 13.5451L5.75649 13.5485L5.75565 13.5519L5.75438 13.5553L5.75353 13.5586L5.75227 13.562L5.75142 13.5654L5.75015 13.5688L5.74931 13.5722L5.74804 13.5755L5.7472 13.5789L5.74635 13.5823L5.74509 13.5857L5.74466 13.5874C5.69863 13.7305 5.65639 13.8746 5.61753 14.019L5.61331 14.0342C5.59515 14.1018 5.57783 14.1694 5.56136 14.237L5.55671 14.2572C5.54108 14.3227 5.52588 14.3877 5.5111 14.4532L5.50518 14.4811C5.49124 14.5457 5.47773 14.6103 5.46506 14.675L5.46041 14.6999C5.44732 14.7666 5.43507 14.8338 5.42367 14.9009L5.42071 14.9174C5.40888 14.9862 5.3979 15.0551 5.38777 15.1239L5.38565 15.1387C5.37552 15.2084 5.3658 15.2785 5.35693 15.3486L5.35567 15.3592L5.35524 15.3626L5.35482 15.3659L5.3544 15.3693L5.35398 15.3727L5.35355 15.3761L5.35313 15.3795L5.35271 15.3828L5.35229 15.3862L5.35186 15.3896L5.35144 15.393L5.35102 15.3964L5.3506 15.3997L5.35018 15.4031L5.34975 15.4065L5.34933 15.4099L5.34891 15.4132L5.34849 15.4166L5.34806 15.42L5.34764 15.4234L5.34722 15.4268L5.3468 15.4301L5.34637 15.4335L5.34595 15.4369L5.34553 15.4403L5.34511 15.4437L5.34468 15.447L5.34426 15.4504L5.34384 15.4538L5.34342 15.4572L5.34299 15.4606L5.34257 15.4639L5.34215 15.4673L5.34173 15.4707L5.34131 15.4741L5.34088 15.4774L5.34046 15.4808L5.34004 15.4842L5.33962 15.4876L5.33919 15.491L5.33877 15.4943L5.33835 15.4977L5.33793 15.5011L5.3375 15.5045L5.33708 15.5079L5.33666 15.5112L5.33624 15.5146L5.33581 15.518L5.33539 15.5214L5.33497 15.5248L5.33455 15.5281L5.33413 15.5315L5.3337 15.5349L5.33328 15.5383L5.33286 15.5416L5.33244 15.545L5.33201 15.5484L5.33159 15.5518L5.33117 15.5552L5.33075 15.5585L5.33032 15.5619L5.3299 15.5653L5.32948 15.5687L5.32906 15.5721L5.32863 15.5754L5.32821 15.5784C5.31343 15.7233 5.30245 15.8681 5.29442 16.013L5.29316 16.0367C5.28978 16.1021 5.28682 16.1676 5.28471 16.2331L5.28386 16.2605C5.28175 16.3256 5.28048 16.3906 5.28006 16.4556V16.4814C5.27964 16.5465 5.27964 16.6111 5.28048 16.6761L5.28091 16.7044C5.28175 16.7703 5.28386 16.8362 5.28598 16.9021L5.28682 16.9207C5.28935 16.9874 5.29231 17.0537 5.29611 17.1204L5.29738 17.1433C5.30118 17.2104 5.30625 17.278 5.31174 17.3451L5.31301 17.362C5.3185 17.43 5.32483 17.498 5.33201 17.566L5.3337 17.5812C5.34088 17.6514 5.34933 17.7215 5.3582 17.7916L5.36073 17.8093C5.36918 17.8765 5.3789 17.9432 5.38861 18.0099L5.39157 18.0289C5.40128 18.094 5.41184 18.1586 5.42282 18.2228L5.42831 18.2528L5.43803 18.3086L5.43845 18.3077C5.88193 20.7515 7.24744 23.0133 9.38545 24.5359C9.42261 24.5625 9.45978 24.5883 9.49737 24.6145L9.57678 24.6689C9.62662 24.7027 9.67688 24.7361 9.72756 24.769L9.76684 24.7944C9.82851 24.8341 9.89059 24.8734 9.95353 24.9118L9.96746 24.9202C10.0372 24.9629 10.1077 25.0047 10.1791 25.0461L10.1799 25.0465L10.1808 25.047L10.1816 25.0474L10.1824 25.0478L10.1833 25.0482L10.1841 25.0486L10.185 25.0491L10.1858 25.0495L10.1867 25.0499L10.1875 25.0503L10.1884 25.0508L10.1892 25.0512L10.1901 25.0516C10.4996 25.2294 10.8147 25.3895 11.134 25.5301L11.689 24.5688L12.3027 23.5062L19.7034 10.6878L20.3171 9.62516L20.8721 8.66386C20.5899 8.45733 20.2939 8.26388 19.9843 8.08438L19.9838 8.08565ZM10.4528 22.4393C7.61827 20.2138 6.74567 16.2145 8.51622 12.9783L8.51791 12.9758L8.51918 12.9732L8.52044 12.9707L8.52171 12.9686C8.5479 12.9205 8.57493 12.8727 8.60238 12.8254L8.60365 12.8229L8.60492 12.8208C8.6311 12.7756 8.65771 12.7308 8.68474 12.686L8.68601 12.6835L8.68728 12.681L8.68897 12.6789L8.69023 12.6763L8.69235 12.6729C10.6099 9.52253 14.5096 8.27867 17.8539 9.62052L10.4532 22.4389L10.4528 22.4393Z" fill="#122940"/>
</svg>
