<svg width="16" height="16" viewBox="0 0 16 16" fill="none" xmlns="http://www.w3.org/2000/svg">
<rect width="16" height="16" rx="2" fill="#E6FCF5"/>
<path d="M6.93299 9.46387L5.69934 8.23022C5.63287 8.16374 5.54271 8.1264 5.4487 8.1264C5.35469 8.1264 5.26453 8.16374 5.19806 8.23022C5.13158 8.29669 5.09424 8.38685 5.09424 8.48086C5.09424 8.5274 5.10341 8.5735 5.12122 8.6165C5.13903 8.65951 5.16514 8.69858 5.19806 8.7315L6.68413 10.2176C6.82278 10.3562 7.04676 10.3562 7.18541 10.2176L10.9468 6.45618C11.0133 6.3897 11.0506 6.29954 11.0506 6.20553C11.0506 6.11153 11.0133 6.02137 10.9468 5.95489C10.8803 5.88842 10.7902 5.85107 10.6962 5.85107C10.6022 5.85107 10.512 5.88842 10.4455 5.95489L6.93299 9.46387Z" fill="#01CF8E"/>
</svg>
