<svg width="601" height="504" viewBox="0 0 601 504" fill="none" xmlns="http://www.w3.org/2000/svg">
<rect x="0.5" y="0.5" width="600" height="503" rx="11.5" fill="#EFF5FB" stroke="#C7DBEF"/>
<rect x="80.1001" y="59" width="469" height="130" rx="12" transform="rotate(1.85909 80.1001 59)" fill="#19D490" fill-opacity="0.2"/>
<rect x="89.7705" y="69.3191" width="449" height="110" rx="6" transform="rotate(1.85909 89.7705 69.3191)" fill="#1A1035"/>
<path d="M118.268 118.55C116.883 118.505 115.726 118.16 114.8 117.517C113.874 116.859 113.235 115.992 112.884 114.913L115.287 113.61C115.787 115.054 116.837 115.802 118.436 115.854C119.209 115.879 119.78 115.757 120.149 115.489C120.518 115.221 120.709 114.873 120.723 114.447C120.739 113.954 120.531 113.567 120.1 113.286C119.67 112.992 118.893 112.667 117.771 112.31C117.15 112.103 116.623 111.899 116.19 111.699C115.769 111.498 115.344 111.238 114.914 110.917C114.498 110.583 114.185 110.173 113.974 109.686C113.763 109.198 113.668 108.635 113.688 107.995C113.73 106.729 114.209 105.738 115.126 105.021C116.057 104.29 117.155 103.946 118.421 103.987C119.554 104.024 120.537 104.336 121.372 104.923C122.221 105.498 122.869 106.286 123.317 107.287L120.954 108.551C120.433 107.334 119.56 106.705 118.334 106.665C117.761 106.647 117.304 106.765 116.962 107.021C116.634 107.264 116.463 107.592 116.45 108.005C116.435 108.445 116.604 108.81 116.954 109.102C117.319 109.381 118.016 109.697 119.045 110.05C119.467 110.197 119.783 110.314 119.994 110.401C120.218 110.475 120.514 110.598 120.882 110.77C121.264 110.929 121.553 111.079 121.748 111.219C121.957 111.359 122.191 111.546 122.45 111.782C122.709 112.017 122.902 112.257 123.027 112.501C123.166 112.745 123.276 113.042 123.358 113.392C123.454 113.729 123.496 114.097 123.483 114.497C123.441 115.789 122.934 116.8 121.964 117.529C121.006 118.258 119.774 118.598 118.268 118.55ZM128.3 115.954L134.197 116.145L134.112 118.784L125.456 118.503L125.91 104.51L134.466 104.788L134.38 107.426L128.583 107.238L128.487 110.217L133.784 110.389L133.7 112.987L128.402 112.815L128.3 115.954ZM139.374 118.955L135.911 104.835L138.809 104.929L141.151 115.39L144.406 105.11L146.765 105.187L149.367 115.657L152.382 105.369L155.28 105.463L150.908 119.329L147.77 119.227L145.431 109.906L142.513 119.056L139.374 118.955ZM159.67 116.972L165.567 117.163L165.481 119.802L156.826 119.521L157.28 105.528L165.835 105.806L165.75 108.445L159.953 108.256L159.856 111.235L165.153 111.407L165.069 114.005L159.772 113.834L159.67 116.972ZM172.594 120.313C171.208 120.268 170.052 119.924 169.125 119.28C168.2 118.623 167.561 117.755 167.209 116.676L169.612 115.374C170.113 116.817 171.162 117.565 172.761 117.617C173.534 117.642 174.105 117.52 174.474 117.252C174.843 116.984 175.034 116.637 175.048 116.21C175.064 115.717 174.857 115.33 174.426 115.05C173.995 114.755 173.218 114.43 172.096 114.073C171.476 113.867 170.949 113.663 170.515 113.462C170.095 113.261 169.669 113.001 169.24 112.68C168.824 112.346 168.51 111.936 168.299 111.449C168.088 110.962 167.993 110.398 168.014 109.759C168.055 108.493 168.534 107.501 169.451 106.784C170.382 106.054 171.48 105.709 172.746 105.75C173.879 105.787 174.863 106.099 175.697 106.686C176.546 107.261 177.194 108.049 177.642 109.051L175.28 110.315C174.759 109.097 173.885 108.469 172.659 108.429C172.086 108.41 171.629 108.529 171.287 108.784C170.959 109.027 170.788 109.355 170.775 109.768C170.761 110.208 170.929 110.574 171.28 110.865C171.644 111.144 172.341 111.46 173.37 111.814C173.792 111.961 174.108 112.078 174.319 112.165C174.543 112.239 174.84 112.362 175.208 112.534C175.589 112.693 175.878 112.842 176.073 112.982C176.282 113.122 176.516 113.31 176.776 113.545C177.035 113.78 177.227 114.02 177.353 114.264C177.491 114.509 177.602 114.806 177.684 115.155C177.78 115.492 177.821 115.86 177.808 116.26C177.766 117.553 177.26 118.563 176.289 119.292C175.331 120.022 174.1 120.362 172.594 120.313ZM191.307 110.355C192.653 110.398 193.782 110.949 194.695 112.006C195.622 113.049 196.061 114.311 196.013 115.79C195.965 117.269 195.445 118.507 194.452 119.502C193.473 120.484 192.31 120.953 190.964 120.909C189.565 120.864 188.501 120.342 187.773 119.345L187.605 124.522L185.027 124.438L185.481 110.446L188.059 110.529L188.021 111.709C188.812 110.761 189.908 110.309 191.307 110.355ZM188.611 117.591C189.114 118.128 189.765 118.409 190.564 118.435C191.364 118.461 192.032 118.222 192.569 117.72C193.119 117.204 193.408 116.533 193.434 115.707C193.461 114.88 193.216 114.199 192.7 113.662C192.198 113.112 191.547 112.824 190.747 112.798C189.948 112.772 189.279 113.017 188.742 113.533C188.206 114.036 187.924 114.701 187.897 115.527C187.87 116.353 188.108 117.041 188.611 117.591ZM200.916 112.668C201.177 112.036 201.586 111.569 202.143 111.267C202.713 110.965 203.337 110.825 204.017 110.847L203.924 113.726C203.14 113.607 202.429 113.744 201.789 114.137C201.163 114.53 200.834 115.206 200.803 116.166L200.648 120.943L198.069 120.86L198.394 110.865L200.972 110.949L200.916 112.668ZM213.779 120.129C212.72 121.108 211.451 121.574 209.972 121.526C208.492 121.478 207.256 120.931 206.263 119.885C205.283 118.826 204.818 117.557 204.866 116.078C204.914 114.598 205.461 113.369 206.506 112.389C207.566 111.396 208.835 110.924 210.314 110.972C211.793 111.02 213.029 111.573 214.022 112.633C215.016 113.679 215.488 114.942 215.44 116.421C215.392 117.9 214.838 119.136 213.779 120.129ZM208.14 118.165C208.643 118.702 209.28 118.982 210.053 119.007C210.826 119.033 211.481 118.794 212.018 118.291C212.554 117.788 212.836 117.137 212.861 116.337C212.887 115.538 212.649 114.869 212.146 114.333C211.643 113.796 211.005 113.515 210.232 113.49C209.46 113.465 208.805 113.704 208.268 114.207C207.745 114.71 207.47 115.362 207.444 116.161C207.418 116.961 207.65 117.629 208.14 118.165ZM225.472 111.744L227.991 111.826L227.682 121.341C227.632 122.886 227.08 124.049 226.028 124.829C224.989 125.609 223.75 125.975 222.31 125.929C221.231 125.894 220.285 125.656 219.472 125.216C218.672 124.777 218.066 124.15 217.652 123.336L219.892 122.148C220.368 123.098 221.226 123.592 222.465 123.633C223.278 123.659 223.924 123.466 224.405 123.055C224.885 122.644 225.138 122.045 225.163 121.259L225.198 120.179C224.406 121.168 223.323 121.639 221.951 121.595C220.538 121.549 219.368 121.017 218.441 120C217.527 118.97 217.093 117.742 217.139 116.316C217.185 114.903 217.704 113.713 218.696 112.745C219.688 111.776 220.884 111.315 222.283 111.36C223.656 111.405 224.705 111.946 225.432 112.983L225.472 111.744ZM220.433 118.404C220.95 118.928 221.615 119.203 222.428 119.229C223.241 119.255 223.915 119.024 224.451 118.534C225.001 118.032 225.289 117.381 225.315 116.581C225.341 115.795 225.095 115.14 224.578 114.616C224.076 114.08 223.418 113.798 222.605 113.772C221.792 113.746 221.111 113.984 220.561 114.486C220.024 114.975 219.744 115.613 219.718 116.4C219.692 117.199 219.931 117.867 220.433 118.404ZM233.252 113.717C233.512 113.085 233.921 112.618 234.478 112.316C235.048 112.015 235.673 111.875 236.352 111.897L236.259 114.775C235.476 114.657 234.764 114.794 234.125 115.186C233.498 115.58 233.169 116.256 233.138 117.215L232.983 121.993L230.404 121.909L230.729 111.914L233.308 111.998L233.252 113.717ZM245.479 112.393L248.058 112.477L247.733 122.472L245.155 122.388L245.193 121.209C244.388 122.156 243.286 122.607 241.887 122.562C240.555 122.519 239.425 121.975 238.498 120.931C237.585 119.874 237.153 118.606 237.201 117.127C237.249 115.648 237.763 114.417 238.742 113.435C239.734 112.44 240.897 111.964 242.23 112.008C243.629 112.053 244.699 112.575 245.441 113.573L245.479 112.393ZM240.493 119.275C240.996 119.812 241.647 120.093 242.447 120.119C243.246 120.145 243.914 119.906 244.451 119.404C245.001 118.888 245.29 118.217 245.317 117.391C245.344 116.564 245.099 115.883 244.583 115.346C244.08 114.796 243.429 114.508 242.63 114.482C241.83 114.456 241.162 114.701 240.625 115.217C240.088 115.72 239.806 116.385 239.78 117.211C239.753 118.037 239.991 118.725 240.493 119.275ZM261.859 112.645C263.005 112.682 263.906 113.085 264.561 113.853C265.23 114.622 265.544 115.633 265.503 116.885L265.303 123.042L262.725 122.958L262.919 116.981C262.938 116.382 262.807 115.911 262.524 115.568C262.242 115.225 261.834 115.045 261.301 115.028C260.715 115.009 260.249 115.187 259.903 115.563C259.571 115.939 259.393 116.493 259.369 117.226L259.187 122.843L256.608 122.76L256.802 116.783C256.821 116.183 256.69 115.712 256.408 115.369C256.125 115.027 255.718 114.847 255.185 114.829C254.612 114.811 254.145 114.989 253.786 115.364C253.441 115.74 253.256 116.294 253.232 117.027L253.05 122.644L250.471 122.561L250.796 112.566L253.374 112.65L253.34 113.709C253.969 112.836 254.909 112.419 256.162 112.46C257.388 112.5 258.279 113.009 258.834 113.987C259.531 113.049 260.54 112.602 261.859 112.645ZM279.082 109.482C280.428 109.526 281.546 110.015 282.436 110.951C283.326 111.887 283.75 113.015 283.707 114.334C283.664 115.654 283.168 116.752 282.219 117.628C281.27 118.504 280.123 118.921 278.777 118.877L276.318 118.797L276.169 123.395L273.41 123.305L273.865 109.312L279.082 109.482ZM278.861 116.298C279.447 116.317 279.94 116.133 280.339 115.746C280.739 115.345 280.949 114.845 280.968 114.246C280.988 113.633 280.811 113.12 280.438 112.708C280.064 112.295 279.585 112.08 278.998 112.06L276.539 111.981L276.402 116.218L278.861 116.298ZM292.738 113.927L295.316 114.011L294.992 124.006L292.413 123.922L292.452 122.743C291.647 123.69 290.545 124.141 289.146 124.096C287.813 124.053 286.684 123.509 285.757 122.465C284.844 121.408 284.412 120.14 284.46 118.661C284.508 117.182 285.021 115.951 286 114.969C286.993 113.974 288.156 113.498 289.488 113.542C290.888 113.587 291.958 114.109 292.699 115.107L292.738 113.927ZM287.752 120.809C288.255 121.346 288.906 121.627 289.705 121.653C290.505 121.679 291.173 121.44 291.71 120.938C292.26 120.422 292.549 119.751 292.575 118.925C292.602 118.098 292.358 117.417 291.841 116.88C291.339 116.33 290.688 116.042 289.888 116.016C289.089 115.99 288.42 116.235 287.883 116.751C287.347 117.254 287.065 117.919 287.038 118.745C287.012 119.571 287.249 120.259 287.752 120.809ZM304.571 114.311L307.329 114.401L303.367 124.277C302.801 125.7 302.074 126.717 301.187 127.328C300.313 127.954 299.237 128.212 297.96 128.104L298.038 125.705C298.73 125.741 299.282 125.612 299.691 125.319C300.114 125.026 300.457 124.543 300.719 123.871L296.935 114.063L299.753 114.155L302.134 120.956L304.571 114.311ZM320.02 114.533C321.166 114.57 322.067 114.973 322.722 115.741C323.391 116.51 323.705 117.52 323.664 118.773L323.464 124.93L320.886 124.846L321.08 118.869C321.099 118.27 320.968 117.798 320.685 117.456C320.403 117.113 319.995 116.933 319.462 116.916C318.876 116.897 318.41 117.075 318.064 117.451C317.732 117.827 317.554 118.381 317.53 119.114L317.347 124.731L314.769 124.648L314.963 118.671C314.982 118.071 314.851 117.6 314.568 117.257C314.286 116.914 313.878 116.735 313.345 116.717C312.772 116.699 312.306 116.877 311.947 117.252C311.602 117.628 311.417 118.182 311.393 118.915L311.211 124.532L308.632 124.448L308.956 114.454L311.535 114.537L311.501 115.597C312.129 114.723 313.07 114.307 314.323 114.348C315.549 114.387 316.439 114.897 316.995 115.875C317.692 114.937 318.7 114.49 320.02 114.533ZM328.361 121.147C328.667 122.411 329.586 123.067 331.118 123.117C332.104 123.149 332.862 122.84 333.39 122.19L335.43 123.457C334.397 124.851 332.921 125.517 331.002 125.455C329.35 125.401 328.04 124.858 327.073 123.826C326.106 122.794 325.647 121.519 325.697 120C325.745 118.494 326.279 117.257 327.298 116.29C328.317 115.309 329.599 114.844 331.145 114.894C332.611 114.941 333.801 115.487 334.714 116.53C335.64 117.574 336.08 118.843 336.031 120.335C336.02 120.668 335.976 121.02 335.897 121.391L328.361 121.147ZM328.386 119.146L333.483 119.312C333.358 118.627 333.068 118.111 332.613 117.763C332.171 117.415 331.656 117.232 331.07 117.212C330.377 117.19 329.798 117.351 329.333 117.696C328.869 118.028 328.553 118.512 328.386 119.146ZM343.959 115.31C345.052 115.345 345.94 115.741 346.622 116.497C347.318 117.253 347.645 118.277 347.603 119.57L347.404 125.707L344.825 125.623L345.014 119.806C345.036 119.14 344.872 118.628 344.524 118.269C344.176 117.898 343.702 117.703 343.102 117.683C342.436 117.661 341.896 117.851 341.483 118.251C341.07 118.651 340.85 119.264 340.823 120.09L340.648 125.488L338.069 125.404L338.393 115.409L340.972 115.493L340.936 116.612C341.592 115.7 342.6 115.266 343.959 115.31ZM355.967 118.461L353.708 118.388L353.573 122.545C353.561 122.892 353.64 123.148 353.808 123.313C353.976 123.479 354.226 123.58 354.558 123.618C354.891 123.642 355.305 123.649 355.798 123.638L355.723 125.977C353.944 126.119 352.696 125.912 351.981 125.355C351.278 124.799 350.95 123.834 350.994 122.462L351.129 118.304L349.39 118.247L349.47 115.769L351.21 115.825L351.275 113.806L353.879 113.11L353.788 115.909L356.047 115.982L355.967 118.461Z" fill="white"/>
<path d="M118.797 142.424C118.806 142.159 118.772 141.923 118.695 141.718C118.624 141.507 118.489 141.315 118.292 141.142C118.099 140.969 117.828 140.801 117.479 140.638C117.136 140.476 116.698 140.308 116.167 140.135C115.61 139.95 115.109 139.749 114.662 139.531C114.216 139.308 113.836 139.058 113.522 138.783C113.208 138.507 112.97 138.194 112.81 137.845C112.649 137.496 112.576 137.1 112.59 136.657C112.605 136.215 112.709 135.809 112.903 135.44C113.098 135.072 113.369 134.755 113.716 134.49C114.069 134.22 114.484 134.014 114.963 133.874C115.442 133.733 115.973 133.672 116.556 133.691C117.41 133.718 118.128 133.906 118.711 134.253C119.299 134.595 119.741 135.034 120.036 135.57C120.331 136.101 120.469 136.663 120.45 137.256L118.951 137.208C118.965 136.781 118.886 136.401 118.714 136.067C118.543 135.728 118.275 135.458 117.912 135.259C117.549 135.054 117.083 134.943 116.516 134.925C115.98 134.907 115.535 134.973 115.181 135.123C114.827 135.274 114.559 135.484 114.378 135.754C114.203 136.025 114.109 136.337 114.098 136.691C114.09 136.93 114.132 137.15 114.225 137.351C114.323 137.547 114.476 137.732 114.684 137.906C114.897 138.079 115.168 138.242 115.497 138.393C115.83 138.545 116.229 138.693 116.694 138.839C117.333 139.042 117.884 139.263 118.345 139.502C118.806 139.741 119.183 140.006 119.476 140.297C119.774 140.583 119.99 140.905 120.125 141.264C120.264 141.617 120.327 142.015 120.312 142.458C120.297 142.921 120.19 143.337 119.991 143.706C119.791 144.075 119.513 144.386 119.155 144.64C118.798 144.894 118.372 145.086 117.878 145.216C117.389 145.341 116.846 145.394 116.247 145.374C115.721 145.357 115.206 145.268 114.7 145.105C114.2 144.943 113.746 144.71 113.339 144.405C112.938 144.1 112.619 143.73 112.383 143.295C112.152 142.855 112.046 142.351 112.064 141.784L113.564 141.832C113.551 142.223 113.616 142.561 113.757 142.847C113.899 143.128 114.098 143.364 114.352 143.554C114.611 143.745 114.906 143.89 115.237 143.989C115.572 144.084 115.922 144.137 116.287 144.148C116.813 144.166 117.26 144.107 117.629 143.973C117.998 143.839 118.281 143.64 118.477 143.375C118.678 143.111 118.785 142.794 118.797 142.424ZM127.473 143.628L127.684 137.132L129.137 137.179L128.862 145.628L127.48 145.583L127.473 143.628ZM127.804 141.857L128.406 141.861C128.388 142.423 128.311 142.942 128.176 143.417C128.046 143.887 127.845 144.292 127.574 144.632C127.302 144.972 126.952 145.235 126.524 145.419C126.096 145.598 125.58 145.677 124.976 145.658C124.565 145.644 124.19 145.572 123.85 145.441C123.516 145.311 123.23 145.116 122.994 144.859C122.757 144.601 122.578 144.269 122.455 143.864C122.338 143.459 122.289 142.975 122.307 142.413L122.484 136.963L123.928 137.01L123.751 142.476C123.739 142.856 123.77 143.172 123.845 143.425C123.926 143.672 124.037 143.871 124.178 144.022C124.324 144.167 124.487 144.271 124.668 144.335C124.853 144.398 125.045 144.433 125.243 144.439C125.857 144.459 126.347 144.358 126.714 144.135C127.081 143.907 127.349 143.596 127.518 143.2C127.693 142.799 127.788 142.351 127.804 141.857ZM134.799 144.788C135.142 144.8 135.462 144.74 135.758 144.609C136.054 144.477 136.3 144.293 136.495 144.054C136.691 143.81 136.807 143.53 136.843 143.213L138.217 143.258C138.175 143.757 137.991 144.217 137.664 144.639C137.343 145.056 136.929 145.389 136.42 145.638C135.912 145.882 135.359 145.995 134.76 145.975C134.125 145.955 133.574 145.825 133.108 145.586C132.647 145.347 132.266 145.027 131.966 144.626C131.672 144.226 131.455 143.771 131.315 143.261C131.181 142.746 131.123 142.204 131.141 141.637L131.152 141.309C131.17 140.742 131.263 140.208 131.43 139.708C131.603 139.203 131.849 138.76 132.169 138.379C132.494 137.999 132.895 137.705 133.37 137.496C133.851 137.288 134.409 137.194 135.044 137.214C135.706 137.236 136.279 137.39 136.765 137.677C137.251 137.958 137.627 138.335 137.893 138.808C138.164 139.275 138.303 139.801 138.31 140.384L136.936 140.34C136.921 139.99 136.833 139.672 136.67 139.385C136.513 139.099 136.291 138.868 136.005 138.692C135.724 138.51 135.391 138.414 135.006 138.401C134.563 138.387 134.188 138.463 133.881 138.63C133.578 138.793 133.334 139.019 133.147 139.31C132.966 139.596 132.831 139.917 132.741 140.274C132.656 140.626 132.608 140.986 132.596 141.356L132.586 141.684C132.574 142.053 132.598 142.419 132.659 142.78C132.721 143.142 132.832 143.471 132.995 143.768C133.162 144.066 133.392 144.308 133.683 144.494C133.979 144.676 134.351 144.774 134.799 144.788ZM143.489 145.071C143.833 145.082 144.152 145.022 144.448 144.891C144.745 144.76 144.99 144.575 145.186 144.336C145.381 144.092 145.497 143.812 145.533 143.495L146.908 143.54C146.865 144.039 146.681 144.499 146.355 144.921C146.034 145.338 145.619 145.671 145.111 145.92C144.603 146.165 144.049 146.277 143.45 146.257C142.815 146.237 142.265 146.107 141.798 145.868C141.337 145.629 140.956 145.309 140.657 144.908C140.362 144.508 140.145 144.053 140.005 143.543C139.871 143.028 139.813 142.486 139.831 141.919L139.842 141.591C139.861 141.024 139.953 140.49 140.121 139.99C140.294 139.485 140.54 139.042 140.86 138.662C141.185 138.281 141.585 137.987 142.061 137.778C142.542 137.57 143.1 137.476 143.735 137.496C144.396 137.518 144.969 137.672 145.455 137.959C145.941 138.24 146.317 138.617 146.583 139.09C146.855 139.557 146.994 140.083 147.001 140.667L145.627 140.622C145.612 140.272 145.523 139.954 145.361 139.667C145.203 139.381 144.981 139.15 144.695 138.974C144.415 138.793 144.082 138.696 143.696 138.683C143.254 138.669 142.879 138.745 142.571 138.913C142.269 139.075 142.024 139.301 141.838 139.592C141.656 139.878 141.521 140.199 141.431 140.556C141.347 140.908 141.299 141.268 141.287 141.638L141.276 141.966C141.264 142.335 141.289 142.701 141.35 143.063C141.411 143.424 141.523 143.753 141.685 144.051C141.853 144.348 142.082 144.59 142.373 144.776C142.669 144.958 143.041 145.056 143.489 145.071ZM152.266 146.544C151.678 146.524 151.147 146.408 150.675 146.195C150.208 145.976 149.808 145.679 149.476 145.304C149.15 144.929 148.904 144.488 148.738 143.982C148.572 143.477 148.498 142.927 148.518 142.334L148.528 142.006C148.551 141.319 148.672 140.71 148.892 140.181C149.113 139.646 149.404 139.197 149.765 138.833C150.126 138.47 150.53 138.199 150.979 138.021C151.428 137.842 151.889 137.761 152.363 137.776C152.967 137.796 153.484 137.917 153.914 138.139C154.35 138.362 154.702 138.665 154.971 139.049C155.24 139.428 155.434 139.872 155.553 140.381C155.673 140.885 155.722 141.434 155.703 142.028L155.682 142.676L149.373 142.471L149.411 141.292L154.276 141.45L154.279 141.34C154.271 140.965 154.205 140.598 154.081 140.24C153.962 139.882 153.763 139.583 153.484 139.345C153.206 139.107 152.819 138.979 152.324 138.963C151.996 138.953 151.692 139.013 151.412 139.145C151.131 139.271 150.888 139.466 150.681 139.731C150.475 139.995 150.31 140.321 150.188 140.707C150.066 141.094 149.997 141.543 149.981 142.053L149.97 142.381C149.957 142.782 149.999 143.161 150.097 143.518C150.2 143.871 150.354 144.183 150.559 144.456C150.769 144.728 151.025 144.945 151.328 145.106C151.635 145.267 151.987 145.354 152.382 145.367C152.892 145.384 153.328 145.293 153.689 145.097C154.049 144.9 154.368 144.632 154.645 144.291L155.497 145.015C155.306 145.285 155.065 145.54 154.776 145.781C154.487 146.022 154.134 146.213 153.718 146.356C153.307 146.499 152.823 146.562 152.266 146.544ZM162.557 144.478C162.563 144.27 162.523 144.076 162.435 143.895C162.352 143.71 162.173 143.54 161.896 143.386C161.625 143.226 161.213 143.082 160.66 142.955C160.195 142.84 159.774 142.71 159.398 142.562C159.028 142.414 158.713 142.24 158.454 142.039C158.2 141.838 158.007 141.605 157.875 141.34C157.743 141.075 157.682 140.768 157.694 140.42C157.704 140.086 157.788 139.774 157.943 139.482C158.104 139.19 158.323 138.934 158.601 138.714C158.884 138.494 159.221 138.325 159.61 138.207C160 138.089 160.431 138.038 160.905 138.054C161.582 138.076 162.156 138.214 162.627 138.469C163.098 138.724 163.454 139.056 163.696 139.465C163.939 139.869 164.052 140.313 164.036 140.797L162.592 140.75C162.599 140.516 162.536 140.287 162.403 140.064C162.275 139.836 162.08 139.645 161.82 139.49C161.564 139.336 161.246 139.253 160.866 139.241C160.466 139.228 160.138 139.279 159.884 139.396C159.636 139.508 159.451 139.656 159.33 139.84C159.215 140.023 159.154 140.219 159.147 140.428C159.142 140.584 159.164 140.725 159.212 140.852C159.265 140.973 159.36 141.089 159.497 141.197C159.635 141.301 159.83 141.401 160.082 141.498C160.334 141.594 160.656 141.693 161.049 141.795C161.736 141.973 162.3 142.179 162.741 142.412C163.182 142.646 163.506 142.925 163.714 143.249C163.923 143.574 164.019 143.963 164.005 144.415C163.993 144.785 163.904 145.121 163.738 145.423C163.577 145.725 163.347 145.983 163.048 146.198C162.755 146.407 162.405 146.568 162.001 146.68C161.601 146.787 161.154 146.832 160.66 146.816C159.915 146.792 159.29 146.639 158.783 146.356C158.276 146.074 157.897 145.718 157.645 145.288C157.393 144.857 157.275 144.408 157.29 143.94L158.742 143.987C158.75 144.383 158.855 144.702 159.055 144.943C159.256 145.178 159.506 145.351 159.805 145.459C160.104 145.563 160.401 145.619 160.698 145.629C161.094 145.642 161.426 145.601 161.695 145.505C161.969 145.41 162.179 145.273 162.326 145.096C162.472 144.918 162.549 144.712 162.557 144.478ZM171.138 144.756C171.145 144.548 171.104 144.354 171.016 144.174C170.933 143.989 170.754 143.819 170.478 143.664C170.207 143.504 169.794 143.361 169.241 143.233C168.776 143.119 168.355 142.988 167.98 142.84C167.609 142.693 167.294 142.519 167.035 142.317C166.781 142.116 166.588 141.883 166.456 141.618C166.324 141.354 166.263 141.047 166.275 140.698C166.286 140.365 166.369 140.052 166.524 139.76C166.685 139.469 166.904 139.212 167.182 138.992C167.465 138.772 167.802 138.603 168.191 138.486C168.581 138.368 169.012 138.317 169.486 138.332C170.163 138.354 170.737 138.493 171.208 138.748C171.679 139.003 172.036 139.335 172.278 139.744C172.52 140.148 172.633 140.592 172.617 141.076L171.173 141.029C171.18 140.795 171.117 140.566 170.984 140.343C170.856 140.115 170.662 139.923 170.401 139.769C170.145 139.615 169.827 139.531 169.447 139.519C169.047 139.506 168.719 139.558 168.465 139.675C168.217 139.787 168.032 139.934 167.912 140.118C167.796 140.302 167.735 140.498 167.728 140.706C167.723 140.862 167.745 141.004 167.793 141.13C167.846 141.252 167.941 141.367 168.079 141.476C168.216 141.579 168.411 141.679 168.663 141.776C168.915 141.873 169.238 141.972 169.63 142.073C170.318 142.252 170.882 142.458 171.322 142.691C171.763 142.924 172.087 143.203 172.295 143.528C172.504 143.852 172.601 144.241 172.586 144.694C172.574 145.064 172.485 145.399 172.319 145.701C172.158 146.004 171.928 146.262 171.629 146.476C171.336 146.686 170.987 146.846 170.582 146.958C170.182 147.065 169.735 147.111 169.241 147.095C168.496 147.07 167.871 146.917 167.364 146.635C166.857 146.353 166.478 145.996 166.226 145.566C165.974 145.136 165.856 144.687 165.871 144.218L167.324 144.265C167.332 144.662 167.436 144.98 167.637 145.221C167.837 145.457 168.087 145.629 168.386 145.738C168.685 145.841 168.982 145.898 169.279 145.908C169.675 145.92 170.007 145.879 170.276 145.784C170.55 145.688 170.76 145.552 170.907 145.374C171.053 145.197 171.13 144.991 171.138 144.756ZM176.882 147.186L175.437 147.139L175.741 137.8C175.76 137.191 175.886 136.682 176.118 136.273C176.356 135.858 176.686 135.551 177.11 135.351C177.533 135.146 178.031 135.053 178.604 135.072C178.771 135.077 178.937 135.093 179.103 135.119C179.274 135.145 179.439 135.182 179.599 135.229L179.483 136.406C179.375 136.376 179.25 136.354 179.11 136.339C178.975 136.324 178.84 136.314 178.705 136.31C178.397 136.3 178.13 136.354 177.902 136.471C177.679 136.584 177.507 136.756 177.385 136.986C177.263 137.217 177.196 137.504 177.185 137.847L176.882 147.186ZM178.952 138.796L178.916 139.905L174.34 139.756L174.376 138.647L178.952 138.796ZM185.839 145.523L186.05 139.026L187.502 139.073L187.228 147.522L185.846 147.477L185.839 145.523ZM186.17 143.751L186.772 143.755C186.753 144.317 186.677 144.836 186.541 145.311C186.411 145.781 186.211 146.186 185.939 146.527C185.668 146.867 185.318 147.129 184.89 147.313C184.462 147.492 183.946 147.572 183.342 147.552C182.931 147.539 182.555 147.467 182.216 147.336C181.881 147.205 181.596 147.011 181.359 146.753C181.122 146.495 180.943 146.164 180.821 145.759C180.704 145.353 180.654 144.87 180.672 144.308L180.849 138.857L182.294 138.904L182.116 144.37C182.104 144.75 182.136 145.066 182.211 145.319C182.291 145.567 182.402 145.766 182.543 145.916C182.689 146.062 182.853 146.166 183.033 146.229C183.219 146.292 183.41 146.327 183.608 146.334C184.222 146.354 184.713 146.252 185.08 146.03C185.447 145.802 185.715 145.49 185.884 145.094C186.059 144.694 186.154 144.246 186.17 143.751ZM191.708 135.661L191.319 147.655L189.867 147.608L190.256 135.614L191.708 135.661Z" fill="white"/>
<rect x="393.831" y="103.201" width="120" height="62" rx="12" transform="rotate(1.85909 393.831 103.201)" fill="#00BF7A"/>
<path d="M432.787 132.881L432.738 134.413L417.218 133.91L417.268 132.377L432.787 132.881ZM432.686 136.004L432.636 137.546L417.117 137.043L417.167 135.501L432.686 136.004ZM430.936 128.199L430.475 142.411L427.566 142.316L422.156 132.604L421.847 142.13L418.919 142.035L419.38 127.824L422.308 127.919L427.718 137.641L428.028 128.105L430.936 128.199ZM441.537 128.514L441.075 142.755L438.263 142.663L438.621 131.663L435.209 132.627L435.28 130.412L441.234 128.504L441.537 128.514ZM448.959 140.636L448.889 142.52C448.865 143.242 448.659 143.965 448.271 144.688C447.889 145.412 447.414 145.999 446.846 146.45L445.406 145.651C445.579 145.357 445.748 145.062 445.914 144.768C446.08 144.474 446.22 144.149 446.336 143.795C446.452 143.44 446.517 143.035 446.532 142.58L446.597 140.56L448.959 140.636ZM461.256 135.046L461.176 137.506C461.142 138.573 460.998 139.49 460.745 140.257C460.493 141.017 460.143 141.638 459.698 142.118C459.259 142.593 458.743 142.937 458.15 143.153C457.557 143.368 456.902 143.464 456.186 143.441C455.614 143.422 455.083 143.333 454.593 143.174C454.103 143.008 453.665 142.763 453.278 142.437C452.898 142.112 452.572 141.708 452.301 141.223C452.037 140.733 451.841 140.153 451.713 139.485C451.585 138.816 451.535 138.052 451.562 137.193L451.642 134.734C451.677 133.667 451.82 132.756 452.073 132.002C452.332 131.242 452.681 130.625 453.12 130.15C453.565 129.676 454.084 129.335 454.677 129.126C455.271 128.911 455.925 128.815 456.641 128.838C457.213 128.857 457.741 128.949 458.224 129.114C458.714 129.274 459.153 129.513 459.54 129.831C459.927 130.15 460.252 130.555 460.517 131.045C460.781 131.529 460.977 132.106 461.105 132.774C461.234 133.436 461.284 134.193 461.256 135.046ZM458.344 137.785L458.448 134.574C458.465 134.06 458.45 133.61 458.404 133.224C458.364 132.838 458.293 132.51 458.191 132.24C458.09 131.963 457.96 131.737 457.803 131.563C457.646 131.388 457.464 131.259 457.259 131.174C457.053 131.089 456.823 131.043 456.57 131.034C456.251 131.024 455.966 131.077 455.714 131.192C455.47 131.308 455.258 131.5 455.08 131.768C454.902 132.029 454.761 132.383 454.655 132.829C454.556 133.268 454.496 133.807 454.475 134.445L454.371 137.656C454.354 138.17 454.366 138.623 454.405 139.015C454.451 139.408 454.525 139.745 454.626 140.029C454.735 140.306 454.864 140.535 455.014 140.716C455.172 140.89 455.353 141.02 455.559 141.104C455.771 141.19 456.004 141.236 456.258 141.244C456.57 141.255 456.849 141.202 457.093 141.086C457.345 140.964 457.56 140.769 457.738 140.501C457.922 140.227 458.064 139.867 458.164 139.421C458.263 138.974 458.323 138.429 458.344 137.785ZM468.61 143.928C466.864 143.872 465.513 143.168 464.556 141.816C463.613 140.451 463.177 138.669 463.249 136.471C463.32 134.272 463.87 132.529 464.899 131.241C465.942 129.941 467.336 129.319 469.082 129.376C470.841 129.433 472.192 130.144 473.135 131.509C474.078 132.86 474.514 134.635 474.443 136.834C474.371 139.033 473.821 140.783 472.792 142.083C471.763 143.37 470.369 143.986 468.61 143.928ZM466.616 140.002C467.071 140.79 467.764 141.2 468.697 141.23C469.63 141.26 470.349 140.89 470.854 140.119C471.373 139.349 471.656 138.224 471.704 136.745C471.753 135.253 471.543 134.105 471.076 133.303C470.621 132.501 469.928 132.085 468.995 132.055C468.062 132.024 467.343 132.395 466.838 133.165C466.332 133.936 466.056 135.068 466.007 136.56C465.959 138.053 466.162 139.2 466.616 140.002ZM481.6 144.35C479.855 144.293 478.503 143.589 477.547 142.238C476.604 140.873 476.168 139.091 476.239 136.892C476.311 134.693 476.861 132.95 477.89 131.663C478.933 130.363 480.327 129.741 482.073 129.798C483.832 129.855 485.183 130.566 486.126 131.93C487.069 133.282 487.505 135.057 487.434 137.256C487.362 139.455 486.812 141.204 485.782 142.505C484.753 143.792 483.359 144.407 481.6 144.35ZM479.607 140.423C480.061 141.212 480.755 141.621 481.688 141.652C482.621 141.682 483.34 141.312 483.845 140.541C484.364 139.771 484.647 138.646 484.695 137.167C484.743 135.674 484.534 134.527 484.066 133.725C483.612 132.923 482.919 132.507 481.986 132.476C481.053 132.446 480.334 132.816 479.829 133.587C479.323 134.358 479.046 135.489 478.998 136.982C478.95 138.474 479.152 139.622 479.607 140.423Z" fill="white"/>
<rect x="394.798" y="104.233" width="118" height="60" rx="11" transform="rotate(1.85909 394.798 104.233)" stroke="white" stroke-opacity="0.5" stroke-width="2"/>
<rect x="75.8828" y="334.977" width="420" height="130" rx="12" transform="rotate(-8.34795 75.8828 334.977)" fill="#19D490" fill-opacity="0.2"/>
<rect x="87.2285" y="343.42" width="400" height="110" rx="6" transform="rotate(-8.34795 87.2285 343.42)" fill="#1A1035"/>
<path d="M130.752 371.397L132.784 385.249L130.073 385.647L128.755 376.663L125.801 383.666L125.484 383.712L120.645 377.873L121.96 386.837L119.229 387.238L117.197 373.386L120.007 372.974L124.945 378.94L127.942 371.809L130.752 371.397ZM141.71 373.832L144.263 373.457L145.714 383.351L143.162 383.726L142.99 382.558C142.367 383.634 141.362 384.273 139.977 384.476C138.658 384.67 137.45 384.335 136.353 383.472C135.267 382.594 134.617 381.422 134.402 379.958C134.187 378.494 134.474 377.191 135.264 376.051C136.065 374.896 137.125 374.222 138.444 374.028C139.829 373.825 140.975 374.149 141.881 374.999L141.71 373.832ZM138.022 381.488C138.612 381.927 139.303 382.089 140.095 381.973C140.886 381.857 141.502 381.503 141.941 380.913C142.391 380.308 142.556 379.597 142.436 378.779C142.316 377.961 141.954 377.334 141.351 376.897C140.759 376.444 140.067 376.276 139.276 376.392C138.484 376.509 137.87 376.868 137.433 377.471C136.994 378.061 136.835 378.765 136.955 379.583C137.075 380.401 137.431 381.036 138.022 381.488ZM152.993 374.683L150.756 375.011L151.36 379.127C151.411 379.47 151.533 379.708 151.728 379.841C151.923 379.974 152.187 380.03 152.521 380.008C152.852 379.973 153.26 379.906 153.745 379.808L154.084 382.123C152.359 382.579 151.095 382.596 150.292 382.174C149.502 381.751 149.007 380.86 148.808 379.502L148.204 375.386L146.482 375.638L146.122 373.184L147.844 372.932L147.55 370.933L149.99 369.787L150.396 372.557L152.632 372.229L152.993 374.683ZM157.785 373.212C157.93 372.543 158.249 372.011 158.743 371.615C159.251 371.218 159.841 370.969 160.514 370.87L160.932 373.72C160.14 373.742 159.464 374.003 158.904 374.503C158.358 375.001 158.154 375.725 158.293 376.674L158.987 381.404L156.434 381.778L154.983 371.884L157.535 371.51L157.785 373.212ZM163.524 369.418C163.102 369.48 162.71 369.383 162.349 369.126C161.999 368.854 161.793 368.506 161.731 368.084C161.669 367.662 161.767 367.27 162.024 366.909C162.294 366.546 162.64 366.334 163.062 366.272C163.498 366.208 163.89 366.312 164.24 366.584C164.603 366.854 164.816 367.2 164.878 367.623C164.94 368.045 164.835 368.437 164.565 368.8C164.306 369.148 163.959 369.354 163.524 369.418ZM163.884 380.685L162.432 370.791L164.984 370.417L166.436 380.311L163.884 380.685ZM173.919 379.496C172.428 379.714 171.108 379.396 169.958 378.541C168.821 377.683 168.145 376.516 167.928 375.038C167.711 373.561 168.024 372.248 168.866 371.1C169.722 369.951 170.895 369.266 172.385 369.048C173.349 368.906 174.26 369.008 175.119 369.354C175.978 369.7 176.669 370.232 177.193 370.95L175.185 372.558C174.927 372.178 174.576 371.9 174.132 371.722C173.702 371.543 173.236 371.49 172.734 371.564C171.969 371.676 171.374 372.026 170.948 372.614C170.52 373.189 170.365 373.872 170.481 374.664C170.595 375.442 170.94 376.052 171.517 376.493C172.092 376.92 172.762 377.078 173.527 376.966C174.042 376.89 174.48 376.711 174.843 376.429C175.217 376.132 175.473 375.764 175.611 375.326L178.013 376.267C177.692 377.109 177.171 377.826 176.449 378.417C175.725 378.995 174.882 379.354 173.919 379.496ZM198.137 368.058L198.294 369.127C198.585 371.106 198.187 372.802 197.1 374.214C196.014 375.627 194.468 376.48 192.463 376.775C190.326 377.088 188.45 376.656 186.835 375.478C185.231 374.285 184.282 372.686 183.988 370.68C183.692 368.662 184.134 366.852 185.314 365.25C186.507 363.647 188.133 362.694 190.191 362.392C191.483 362.202 192.708 362.326 193.863 362.763C195.017 363.186 195.962 363.843 196.699 364.732L194.562 366.42C194.149 365.901 193.58 365.513 192.855 365.256C192.143 364.996 191.378 364.927 190.56 365.047C189.241 365.24 188.216 365.835 187.486 366.832C186.768 367.813 186.506 368.963 186.699 370.283C186.891 371.589 187.478 372.607 188.462 373.339C189.456 374.056 190.666 374.309 192.091 374.1C193.146 373.945 193.983 373.587 194.601 373.024C195.23 372.447 195.61 371.731 195.741 370.876L191.546 371.492L191.192 369.078L198.137 368.058ZM209.698 372.709C208.83 373.861 207.663 374.544 206.199 374.759C204.734 374.974 203.421 374.655 202.258 373.801C201.106 372.932 200.423 371.766 200.208 370.302C199.993 368.837 200.314 367.53 201.169 366.38C202.036 365.216 203.201 364.526 204.666 364.311C206.13 364.096 207.444 364.422 208.609 365.289C209.772 366.142 210.461 367.301 210.676 368.765C210.891 370.23 210.565 371.544 209.698 372.709ZM203.8 371.776C204.39 372.215 205.068 372.378 205.833 372.266C206.598 372.153 207.2 371.802 207.639 371.212C208.078 370.622 208.239 369.932 208.123 369.14C208.007 368.349 207.654 367.733 207.064 367.294C206.474 366.855 205.797 366.692 205.031 366.804C204.266 366.916 203.664 367.268 203.225 367.858C202.799 368.446 202.645 369.135 202.761 369.927C202.877 370.718 203.223 371.335 203.8 371.776ZM222.896 361.919L225.607 361.521L223.912 371.877L221.478 372.234L218.778 366.505L217.837 372.768L215.403 373.125L210.805 363.693L213.516 363.295L216.09 369.123L216.999 362.784L219.413 362.43L222.108 368.26L222.896 361.919ZM232.839 360.177C233.921 360.018 234.864 360.25 235.67 360.873C236.489 361.494 236.992 362.444 237.18 363.724L238.071 369.799L235.519 370.174L234.674 364.415C234.577 363.756 234.325 363.281 233.919 362.99C233.51 362.686 233.009 362.577 232.416 362.665C231.756 362.761 231.258 363.043 230.923 363.51C230.587 363.977 230.479 364.62 230.599 365.438L231.383 370.78L228.83 371.155L227.378 361.261L229.931 360.886L230.094 361.995C230.578 360.98 231.493 360.374 232.839 360.177ZM249.24 354.01C250.573 353.815 251.76 354.099 252.802 354.862C253.844 355.626 254.46 356.66 254.652 357.966C254.844 359.272 254.55 360.441 253.772 361.471C252.993 362.502 251.937 363.115 250.605 363.311L248.171 363.668L248.839 368.219L246.108 368.62L244.076 354.768L249.24 354.01ZM250.231 360.758C250.811 360.673 251.263 360.404 251.588 359.952C251.91 359.487 252.028 358.958 251.941 358.364C251.852 357.757 251.587 357.284 251.147 356.945C250.706 356.605 250.195 356.478 249.615 356.563L247.181 356.92L247.797 361.115L250.231 360.758ZM263.468 355.965L266.02 355.591L267.472 365.485L264.92 365.859L264.748 364.692C264.124 365.767 263.12 366.406 261.735 366.61C260.416 366.803 259.208 366.468 258.111 365.605C257.025 364.727 256.375 363.556 256.16 362.091C255.945 360.627 256.232 359.325 257.022 358.185C257.822 357.03 258.882 356.355 260.202 356.162C261.587 355.958 262.733 356.282 263.639 357.133L263.468 355.965ZM259.78 363.622C260.37 364.061 261.061 364.222 261.853 364.106C262.644 363.99 263.259 363.637 263.698 363.047C264.149 362.442 264.314 361.73 264.194 360.912C264.074 360.094 263.712 359.467 263.109 359.03C262.517 358.578 261.825 358.41 261.034 358.526C260.242 358.642 259.628 359.002 259.191 359.605C258.752 360.195 258.592 360.899 258.712 361.717C258.832 362.535 259.188 363.17 259.78 363.622ZM275.182 354.246L277.913 353.846L275.763 364.268C275.458 365.768 274.923 366.898 274.158 367.657C273.409 368.427 272.396 368.873 271.12 368.992L270.771 366.618C271.459 366.53 271.979 366.306 272.33 365.944C272.694 365.581 272.946 365.045 273.085 364.338L267.623 355.356L270.413 354.946L273.961 361.218L275.182 354.246ZM290.425 351.727C291.56 351.56 292.518 351.797 293.299 352.437C294.093 353.075 294.581 354.014 294.763 355.254L295.658 361.349L293.105 361.723L292.237 355.807C292.15 355.213 291.937 354.773 291.598 354.486C291.26 354.198 290.827 354.093 290.299 354.171C289.718 354.256 289.291 354.514 289.018 354.945C288.757 355.374 288.68 355.951 288.787 356.677L289.603 362.237L287.05 362.612L286.182 356.695C286.095 356.102 285.882 355.661 285.543 355.374C285.205 355.087 284.771 354.982 284.244 355.059C283.676 355.143 283.249 355.401 282.963 355.834C282.689 356.265 282.605 356.843 282.712 357.568L283.528 363.129L280.975 363.503L279.523 353.609L282.076 353.235L282.23 354.284C282.694 353.313 283.546 352.736 284.786 352.554C285.999 352.376 286.966 352.719 287.686 353.584C288.206 352.537 289.119 351.918 290.425 351.727ZM299.806 356.758C300.331 357.948 301.352 358.431 302.87 358.209C303.846 358.065 304.536 357.627 304.941 356.894L307.173 357.779C306.404 359.334 305.069 360.251 303.17 360.53C301.534 360.77 300.149 360.468 299.014 359.623C297.879 358.779 297.202 357.605 296.981 356.101C296.762 354.61 297.069 353.299 297.9 352.166C298.729 351.02 299.908 350.335 301.439 350.11C302.89 349.898 304.157 350.224 305.241 351.089C306.338 351.952 306.995 353.122 307.212 354.6C307.26 354.93 307.278 355.284 307.267 355.663L299.806 356.758ZM299.477 354.785L304.522 354.044C304.279 353.393 303.902 352.936 303.392 352.674C302.895 352.41 302.356 352.321 301.775 352.406C301.089 352.507 300.548 352.768 300.152 353.19C299.754 353.599 299.529 354.13 299.477 354.785ZM314.124 348.249C315.206 348.09 316.149 348.322 316.955 348.945C317.774 349.566 318.277 350.517 318.465 351.796L319.356 357.871L316.804 358.246L315.959 352.488C315.862 351.828 315.61 351.353 315.204 351.062C314.795 350.758 314.294 350.65 313.701 350.737C313.041 350.834 312.543 351.116 312.208 351.583C311.872 352.05 311.764 352.692 311.884 353.51L312.668 358.853L310.115 359.227L308.663 349.333L311.216 348.959L311.379 350.067C311.863 349.052 312.778 348.447 314.124 348.249ZM326.499 349.223L324.263 349.551L324.867 353.667C324.918 354.01 325.04 354.248 325.235 354.381C325.43 354.514 325.694 354.57 326.027 354.548C326.359 354.512 326.767 354.446 327.251 354.348L327.591 356.663C325.866 357.118 324.601 357.135 323.798 356.714C323.009 356.291 322.514 355.4 322.315 354.041L321.711 349.925L319.989 350.178L319.629 347.724L321.351 347.472L321.057 345.473L323.497 344.327L323.903 347.097L326.139 346.769L326.499 349.223Z" fill="white"/>
<path d="M128.75 410.224C128.712 409.961 128.637 409.735 128.525 409.547C128.417 409.352 128.251 409.187 128.026 409.051C127.805 408.915 127.509 408.798 127.137 408.7C126.77 408.601 126.309 408.513 125.756 408.437C125.175 408.353 124.646 408.244 124.168 408.109C123.69 407.969 123.271 407.791 122.913 407.575C122.555 407.359 122.266 407.093 122.046 406.778C121.826 406.463 121.684 406.086 121.62 405.648C121.556 405.21 121.586 404.793 121.712 404.395C121.838 403.998 122.049 403.638 122.343 403.315C122.643 402.987 123.016 402.711 123.462 402.488C123.908 402.265 124.42 402.111 124.997 402.026C125.842 401.902 126.582 401.959 127.217 402.198C127.857 402.43 128.369 402.784 128.755 403.259C129.14 403.729 129.375 404.258 129.461 404.845L127.977 405.063C127.915 404.64 127.77 404.28 127.542 403.982C127.313 403.678 127.003 403.461 126.609 403.329C126.216 403.192 125.738 403.165 125.176 403.247C124.645 403.325 124.219 403.469 123.897 403.68C123.575 403.89 123.349 404.144 123.22 404.442C123.095 404.74 123.058 405.063 123.109 405.414C123.144 405.651 123.225 405.86 123.352 406.042C123.483 406.217 123.666 406.372 123.901 406.506C124.142 406.639 124.437 406.751 124.788 406.842C125.143 406.932 125.562 407.007 126.045 407.068C126.71 407.154 127.291 407.274 127.787 407.428C128.284 407.582 128.702 407.775 129.041 408.01C129.385 408.238 129.655 408.517 129.851 408.847C130.051 409.17 130.183 409.551 130.248 409.989C130.315 410.447 130.283 410.876 130.152 411.274C130.021 411.672 129.802 412.028 129.495 412.341C129.189 412.655 128.804 412.919 128.34 413.135C127.882 413.344 127.356 413.492 126.763 413.579C126.243 413.656 125.72 413.659 125.193 413.589C124.672 413.518 124.184 413.368 123.73 413.14C123.28 412.911 122.901 412.604 122.592 412.217C122.287 411.825 122.093 411.348 122.011 410.787L123.495 410.569C123.551 410.955 123.675 411.277 123.865 411.533C124.055 411.784 124.292 411.981 124.576 412.124C124.865 412.265 125.181 412.356 125.524 412.395C125.871 412.428 126.224 412.419 126.585 412.366C127.106 412.289 127.536 412.153 127.875 411.955C128.215 411.758 128.458 411.512 128.604 411.217C128.755 410.921 128.804 410.59 128.75 410.224ZM137.503 409.871L136.559 403.44L137.997 403.229L139.224 411.593L137.856 411.794L137.503 409.871ZM137.514 408.069L138.107 407.967C138.189 408.523 138.205 409.047 138.156 409.539C138.112 410.024 137.986 410.459 137.779 410.842C137.572 411.225 137.274 411.545 136.886 411.802C136.496 412.054 136.003 412.224 135.405 412.311C134.998 412.371 134.615 412.367 134.258 412.298C133.906 412.229 133.59 412.088 133.312 411.876C133.033 411.664 132.798 411.37 132.606 410.993C132.419 410.615 132.284 410.148 132.203 409.591L131.411 404.196L132.841 403.986L133.635 409.397C133.69 409.773 133.777 410.079 133.896 410.314C134.019 410.543 134.163 410.719 134.329 410.843C134.498 410.96 134.678 411.033 134.866 411.064C135.06 411.093 135.255 411.094 135.451 411.065C136.059 410.976 136.524 410.789 136.845 410.505C137.166 410.216 137.375 409.861 137.471 409.442C137.572 409.016 137.586 408.559 137.514 408.069ZM144.917 409.715C145.258 409.665 145.562 409.55 145.83 409.368C146.098 409.187 146.307 408.961 146.457 408.692C146.606 408.417 146.671 408.121 146.65 407.803L148.011 407.603C148.058 408.102 147.958 408.587 147.711 409.06C147.469 409.528 147.12 409.929 146.664 410.264C146.207 410.595 145.682 410.803 145.09 410.89C144.461 410.982 143.896 410.952 143.395 410.799C142.898 410.646 142.467 410.398 142.101 410.057C141.741 409.715 141.446 409.306 141.218 408.829C140.995 408.346 140.842 407.823 140.759 407.262L140.712 406.937C140.629 406.375 140.626 405.834 140.702 405.312C140.783 404.784 140.947 404.305 141.194 403.874C141.446 403.442 141.788 403.081 142.22 402.791C142.656 402.501 143.189 402.31 143.817 402.217C144.472 402.121 145.063 402.171 145.592 402.367C146.12 402.558 146.557 402.863 146.903 403.281C147.253 403.693 147.483 404.185 147.593 404.759L146.233 404.958C146.156 404.617 146.013 404.319 145.802 404.066C145.596 403.812 145.337 403.624 145.024 403.501C144.716 403.373 144.371 403.336 143.99 403.392C143.552 403.457 143.196 403.598 142.923 403.817C142.654 404.03 142.454 404.297 142.322 404.616C142.194 404.93 142.117 405.27 142.092 405.637C142.072 405.998 142.088 406.361 142.142 406.727L142.189 407.052C142.243 407.418 142.332 407.773 142.456 408.118C142.581 408.463 142.749 408.767 142.961 409.031C143.179 409.294 143.447 409.491 143.767 409.623C144.091 409.75 144.474 409.78 144.917 409.715ZM153.52 408.453C153.86 408.403 154.165 408.287 154.433 408.106C154.701 407.924 154.91 407.699 155.06 407.429C155.209 407.155 155.274 406.858 155.253 406.54L156.614 406.341C156.66 406.839 156.561 407.325 156.314 407.798C156.072 408.265 155.723 408.667 155.267 409.002C154.81 409.332 154.285 409.541 153.693 409.628C153.064 409.72 152.499 409.69 151.998 409.537C151.501 409.383 151.07 409.136 150.704 408.795C150.343 408.453 150.049 408.044 149.821 407.566C149.598 407.083 149.445 406.561 149.362 405.999L149.315 405.675C149.232 405.113 149.229 404.571 149.305 404.049C149.386 403.522 149.549 403.042 149.797 402.611C150.049 402.179 150.391 401.819 150.822 401.529C151.259 401.239 151.791 401.047 152.42 400.955C153.075 400.859 153.666 400.909 154.195 401.105C154.723 401.296 155.16 401.6 155.506 402.018C155.856 402.43 156.086 402.923 156.196 403.496L154.836 403.696C154.759 403.354 154.616 403.057 154.405 402.804C154.199 402.55 153.94 402.361 153.627 402.239C153.319 402.11 152.974 402.074 152.592 402.13C152.154 402.194 151.799 402.336 151.526 402.555C151.257 402.768 151.056 403.034 150.924 403.354C150.797 403.667 150.72 404.008 150.695 404.374C150.674 404.735 150.691 405.099 150.745 405.465L150.792 405.789C150.846 406.155 150.935 406.511 151.059 406.856C151.184 407.201 151.352 407.505 151.564 407.769C151.782 408.031 152.05 408.229 152.37 408.361C152.694 408.487 153.077 408.518 153.52 408.453ZM162.419 408.347C161.837 408.433 161.294 408.412 160.792 408.286C160.293 408.154 159.847 407.932 159.454 407.622C159.066 407.31 158.746 406.92 158.493 406.452C158.24 405.984 158.071 405.456 157.984 404.868L157.937 404.544C157.837 403.863 157.849 403.243 157.972 402.683C158.094 402.117 158.301 401.624 158.591 401.202C158.882 400.781 159.233 400.442 159.643 400.187C160.053 399.932 160.492 399.77 160.961 399.702C161.559 399.614 162.089 399.641 162.552 399.784C163.021 399.926 163.421 400.162 163.754 400.492C164.086 400.817 164.356 401.22 164.563 401.7C164.769 402.175 164.916 402.706 165.002 403.294L165.096 403.935L158.851 404.852L158.679 403.685L163.495 402.978L163.479 402.87C163.404 402.502 163.274 402.152 163.088 401.822C162.908 401.49 162.66 401.232 162.343 401.047C162.026 400.861 161.623 400.805 161.134 400.877C160.809 400.924 160.52 401.038 160.268 401.217C160.014 401.391 159.809 401.626 159.653 401.923C159.496 402.22 159.392 402.569 159.341 402.972C159.289 403.374 159.3 403.828 159.374 404.333L159.422 404.657C159.48 405.054 159.589 405.42 159.749 405.754C159.913 406.083 160.12 406.363 160.37 406.595C160.625 406.826 160.915 406.994 161.241 407.099C161.572 407.203 161.934 407.226 162.325 407.169C162.83 407.095 163.243 406.929 163.563 406.671C163.883 406.414 164.149 406.093 164.362 405.709L165.328 406.27C165.188 406.57 164.997 406.864 164.755 407.152C164.513 407.44 164.2 407.691 163.815 407.905C163.436 408.119 162.971 408.266 162.419 408.347ZM172.181 404.491C172.151 404.284 172.077 404.101 171.958 403.939C171.844 403.772 171.637 403.636 171.338 403.533C171.043 403.423 170.612 403.355 170.044 403.328C169.566 403.298 169.129 403.243 168.733 403.165C168.343 403.085 168.002 402.969 167.711 402.817C167.426 402.664 167.194 402.469 167.017 402.232C166.84 401.995 166.727 401.704 166.676 401.358C166.628 401.028 166.654 400.706 166.755 400.391C166.861 400.076 167.032 399.785 167.267 399.519C167.507 399.252 167.808 399.026 168.17 398.841C168.533 398.656 168.948 398.53 169.417 398.461C170.087 398.363 170.676 398.397 171.185 398.565C171.694 398.732 172.104 398.996 172.415 399.355C172.725 399.71 172.915 400.127 172.985 400.606L171.555 400.816C171.521 400.584 171.419 400.37 171.248 400.174C171.081 399.972 170.856 399.818 170.572 399.713C170.293 399.606 169.966 399.581 169.59 399.636C169.193 399.694 168.88 399.803 168.651 399.963C168.426 400.117 168.27 400.295 168.184 400.497C168.103 400.699 168.078 400.903 168.108 401.109C168.131 401.263 168.177 401.399 168.247 401.515C168.321 401.625 168.435 401.721 168.589 401.804C168.743 401.881 168.952 401.946 169.217 401.996C169.483 402.047 169.818 402.087 170.222 402.117C170.93 402.171 171.522 402.274 171.997 402.425C172.472 402.577 172.84 402.794 173.103 403.076C173.365 403.359 173.53 403.724 173.595 404.173C173.649 404.538 173.621 404.885 173.511 405.211C173.406 405.537 173.226 405.832 172.97 406.096C172.718 406.354 172.403 406.574 172.024 406.756C171.65 406.932 171.218 407.056 170.728 407.128C169.992 407.236 169.349 407.196 168.8 407.008C168.251 406.82 167.815 406.537 167.491 406.158C167.167 405.779 166.971 405.358 166.903 404.894L168.34 404.683C168.418 405.072 168.578 405.367 168.818 405.568C169.057 405.765 169.333 405.89 169.647 405.944C169.959 405.993 170.262 405.996 170.556 405.953C170.948 405.896 171.267 405.796 171.515 405.654C171.768 405.512 171.951 405.34 172.063 405.14C172.176 404.939 172.215 404.723 172.181 404.491ZM180.676 403.244C180.646 403.038 180.571 402.854 180.453 402.693C180.339 402.525 180.132 402.39 179.833 402.286C179.537 402.177 179.106 402.108 178.539 402.081C178.061 402.051 177.624 401.997 177.228 401.918C176.837 401.839 176.497 401.723 176.206 401.571C175.92 401.418 175.689 401.223 175.512 400.986C175.335 400.748 175.221 400.457 175.171 400.112C175.122 399.782 175.149 399.46 175.25 399.145C175.356 398.829 175.527 398.538 175.761 398.272C176.001 398.005 176.302 397.78 176.665 397.595C177.027 397.41 177.443 397.283 177.912 397.214C178.582 397.116 179.171 397.151 179.68 397.318C180.189 397.486 180.599 397.749 180.909 398.109C181.219 398.464 181.409 398.88 181.48 399.36L180.05 399.57C180.016 399.338 179.913 399.124 179.742 398.928C179.576 398.726 179.351 398.572 179.067 398.466C178.788 398.36 178.46 398.334 178.084 398.389C177.687 398.447 177.374 398.557 177.145 398.717C176.92 398.871 176.765 399.049 176.679 399.251C176.598 399.452 176.572 399.656 176.603 399.862C176.625 400.017 176.672 400.152 176.741 400.268C176.815 400.378 176.929 400.475 177.084 400.557C177.237 400.635 177.447 400.699 177.712 400.75C177.977 400.8 178.312 400.84 178.717 400.871C179.425 400.925 180.016 401.027 180.491 401.179C180.966 401.33 181.335 401.547 181.597 401.83C181.86 402.112 182.024 402.478 182.09 402.926C182.144 403.292 182.116 403.638 182.006 403.965C181.901 404.291 181.72 404.586 181.464 404.85C181.213 405.108 180.897 405.328 180.519 405.51C180.145 405.686 179.713 405.81 179.223 405.881C178.486 405.99 177.843 405.95 177.295 405.762C176.746 405.574 176.31 405.29 175.985 404.912C175.661 404.533 175.465 404.111 175.397 403.648L176.835 403.437C176.913 403.825 177.072 404.12 177.312 404.322C177.552 404.518 177.828 404.644 178.141 404.698C178.454 404.747 178.757 404.75 179.051 404.707C179.442 404.649 179.762 404.549 180.01 404.408C180.262 404.265 180.445 404.094 180.558 403.893C180.671 403.692 180.71 403.476 180.676 403.244ZM186.76 404.618L185.33 404.827L183.973 395.583C183.885 394.98 183.918 394.456 184.074 394.012C184.235 393.562 184.506 393.201 184.887 392.93C185.267 392.653 185.741 392.473 186.308 392.39C186.473 392.365 186.639 392.351 186.807 392.348C186.98 392.344 187.15 392.35 187.315 392.368L187.409 393.547C187.297 393.537 187.171 393.537 187.03 393.547C186.895 393.556 186.76 393.571 186.626 393.59C186.322 393.635 186.068 393.735 185.865 393.892C185.666 394.042 185.527 394.241 185.447 394.49C185.368 394.738 185.353 395.033 185.403 395.373L186.76 404.618ZM187.31 395.993L187.471 397.091L182.942 397.755L182.781 396.658L187.31 395.993ZM195.28 401.393L194.336 394.962L195.774 394.751L197.001 403.115L195.633 403.315L195.28 401.393ZM195.292 399.591L195.885 399.488C195.967 400.045 195.983 400.569 195.934 401.06C195.889 401.546 195.764 401.98 195.557 402.363C195.35 402.746 195.052 403.067 194.663 403.324C194.274 403.576 193.78 403.745 193.182 403.833C192.775 403.893 192.393 403.888 192.035 403.82C191.683 403.75 191.368 403.61 191.089 403.398C190.811 403.186 190.575 402.892 190.383 402.515C190.196 402.137 190.062 401.669 189.98 401.113L189.188 395.718L190.618 395.508L191.412 400.919C191.468 401.295 191.554 401.6 191.673 401.836C191.796 402.065 191.941 402.241 192.106 402.364C192.276 402.482 192.455 402.555 192.644 402.586C192.838 402.615 193.033 402.615 193.228 402.587C193.836 402.497 194.301 402.311 194.623 402.027C194.944 401.737 195.152 401.383 195.249 400.964C195.349 400.538 195.364 400.081 195.292 399.591ZM199.309 390.648L201.051 402.52L199.614 402.731L197.871 390.859L199.309 390.648Z" fill="white"/>
<rect x="360.82" y="327.53" width="103" height="62" rx="12" transform="rotate(-8.34795 360.82 327.53)" fill="#00BF7A"/>
<path d="M404.419 349.837L404.642 351.354L389.279 353.608L389.056 352.091L404.419 349.837ZM404.873 352.929L405.097 354.455L389.734 356.71L389.51 355.183L404.873 352.929ZM401.768 345.557L403.832 359.625L400.953 360.048L393.907 351.448L395.291 360.879L392.392 361.304L390.328 347.236L393.227 346.811L400.274 355.42L398.889 345.98L401.768 345.557ZM416.626 352.379L416.947 354.562L406.811 356.049L406.428 354.378L410.927 344.213L413.14 343.889L411.332 348.25L409.119 353.48L416.626 352.379ZM413.739 343.801L415.803 357.869L413.021 358.277L410.956 344.209L413.739 343.801ZM424.608 356.86C422.88 357.113 421.425 356.66 420.244 355.499C419.075 354.323 418.33 352.647 418.011 350.47C417.691 348.293 417.924 346.48 418.708 345.031C419.504 343.567 420.766 342.708 422.494 342.454C424.236 342.198 425.691 342.659 426.861 343.835C428.029 344.997 428.773 346.667 429.092 348.844C429.411 351.02 429.18 352.84 428.397 354.302C427.613 355.752 426.35 356.604 424.608 356.86ZM421.95 353.348C422.537 354.044 423.293 354.324 424.216 354.188C425.14 354.053 425.782 353.561 426.142 352.713C426.516 351.863 426.596 350.706 426.381 349.242C426.164 347.764 425.755 346.672 425.152 345.965C424.563 345.257 423.807 344.97 422.883 345.106C421.96 345.241 421.318 345.733 420.957 346.581C420.597 347.429 420.525 348.592 420.741 350.069C420.958 351.547 421.361 352.64 421.95 353.348ZM437.468 354.973C435.74 355.226 434.285 354.773 433.104 353.612C431.935 352.436 431.19 350.759 430.871 348.583C430.551 346.406 430.784 344.593 431.568 343.144C432.364 341.679 433.626 340.82 435.354 340.567C437.096 340.311 438.551 340.772 439.721 341.948C440.889 343.11 441.633 344.78 441.952 346.957C442.271 349.133 442.04 350.953 441.257 352.415C440.472 353.865 439.21 354.717 437.468 354.973ZM434.81 351.461C435.397 352.157 436.153 352.437 437.076 352.301C438 352.166 438.642 351.674 439.002 350.826C439.376 349.976 439.456 348.819 439.241 347.355C439.024 345.877 438.615 344.785 438.012 344.078C437.423 343.37 436.667 343.083 435.743 343.218C434.82 343.354 434.178 343.846 433.817 344.694C433.456 345.542 433.385 346.705 433.601 348.182C433.818 349.66 434.221 350.753 434.81 351.461Z" fill="white"/>
<rect x="361.955" y="328.374" width="101" height="60" rx="11" transform="rotate(-8.34795 361.955 328.374)" stroke="white" stroke-opacity="0.5" stroke-width="2"/>
<rect x="40" y="193.257" width="391" height="130" rx="12" transform="rotate(-0.718253 40 193.257)" fill="#19D490" fill-opacity="0.2"/>
<rect x="50.1245" y="203.131" width="371" height="110" rx="6" transform="rotate(-0.718253 50.1245 203.131)" fill="#19D490"/>
<path d="M85.108 236.695L85.1411 239.335L81.3614 239.382L81.5038 250.741L78.744 250.776L78.6016 239.417L74.8419 239.464L74.8088 236.824L85.108 236.695ZM89.9508 247.995L95.8504 247.921L95.8835 250.561L87.2241 250.67L87.0486 236.671L95.608 236.563L95.6411 239.203L89.8415 239.276L89.8789 242.256L95.1785 242.189L95.2111 244.789L89.9115 244.855L89.9508 247.995ZM104.774 250.73C102.668 250.756 100.919 250.078 99.5282 248.695C98.1374 247.313 97.4291 245.595 97.4034 243.541C97.3775 241.475 98.0425 239.74 99.3983 238.336C100.754 236.919 102.485 236.197 104.592 236.171C105.858 236.155 107.028 236.44 108.103 237.027C109.19 237.6 110.04 238.389 110.652 239.395L108.29 240.805C107.935 240.182 107.436 239.702 106.792 239.363C106.147 239.011 105.425 238.841 104.625 238.851C103.265 238.868 102.171 239.308 101.341 240.172C100.526 241.035 100.126 242.147 100.143 243.507C100.16 244.854 100.587 245.948 101.424 246.791C102.275 247.634 103.38 248.047 104.74 248.03C105.54 248.02 106.258 247.837 106.894 247.483C107.542 247.115 108.03 246.622 108.355 246.004L110.752 247.354C110.165 248.375 109.342 249.192 108.283 249.806C107.224 250.406 106.054 250.714 104.774 250.73ZM120.426 252.254C118.923 249.339 118.152 246.348 118.113 243.282C118.075 240.215 118.771 237.206 120.2 234.255L122.78 234.223C121.351 237.174 120.655 240.183 120.693 243.249C120.732 246.316 121.503 249.306 123.006 252.221L120.426 252.254ZM138.618 242.505L138.632 243.585C138.657 245.584 138.037 247.212 136.773 248.468C135.508 249.724 133.863 250.365 131.836 250.39C129.677 250.417 127.875 249.74 126.431 248.358C125 246.962 124.271 245.251 124.246 243.225C124.221 241.185 124.899 239.45 126.281 238.019C127.676 236.588 129.414 235.86 131.494 235.833C132.801 235.817 133.998 236.102 135.085 236.689C136.172 237.262 137.022 238.038 137.634 239.017L135.292 240.406C134.951 239.837 134.439 239.377 133.754 239.025C133.083 238.674 132.334 238.503 131.508 238.514C130.174 238.53 129.08 238.984 128.224 239.875C127.382 240.752 126.969 241.857 126.986 243.191C127.002 244.51 127.449 245.598 128.327 246.454C129.218 247.296 130.383 247.708 131.823 247.69C132.889 247.677 133.766 247.433 134.454 246.957C135.154 246.468 135.626 245.809 135.869 244.979L131.629 245.033L131.599 242.593L138.618 242.505ZM145.351 250.221C143.964 250.238 142.794 249.946 141.839 249.345C140.885 248.73 140.208 247.892 139.808 246.83L142.15 245.421C142.715 246.84 143.797 247.54 145.397 247.52C146.17 247.51 146.735 247.363 147.091 247.079C147.448 246.794 147.624 246.439 147.618 246.012C147.612 245.519 147.387 245.142 146.944 244.881C146.5 244.606 145.71 244.316 144.573 244.01C143.944 243.831 143.408 243.651 142.966 243.47C142.537 243.289 142.101 243.048 141.657 242.747C141.226 242.432 140.894 242.036 140.662 241.559C140.429 241.082 140.309 240.523 140.301 239.883C140.285 238.617 140.719 237.605 141.603 236.847C142.5 236.076 143.582 235.682 144.848 235.666C145.981 235.652 146.978 235.919 147.839 236.469C148.712 237.004 149.395 237.763 149.887 238.743L147.584 240.112C147.009 238.919 146.108 238.33 144.882 238.346C144.309 238.353 143.857 238.492 143.527 238.763C143.21 239.02 143.054 239.356 143.06 239.769C143.065 240.209 143.25 240.567 143.613 240.842C143.99 241.104 144.7 241.388 145.744 241.695C146.172 241.823 146.494 241.926 146.708 242.003C146.935 242.067 147.237 242.177 147.612 242.332C148.001 242.474 148.296 242.61 148.497 242.741C148.712 242.872 148.954 243.049 149.224 243.272C149.493 243.495 149.696 243.726 149.833 243.964C149.982 244.202 150.106 244.494 150.204 244.84C150.315 245.172 150.372 245.538 150.377 245.938C150.394 247.231 149.933 248.263 148.996 249.035C148.072 249.807 146.857 250.202 145.351 250.221ZM155.256 247.177L161.155 247.103L161.188 249.742L152.529 249.851L152.354 235.852L160.913 235.745L160.946 238.384L155.147 238.457L155.184 241.437L160.483 241.371L160.516 243.97L155.216 244.037L155.256 247.177ZM165.139 251.693L162.559 251.725C163.989 248.774 164.684 245.765 164.646 242.698C164.607 239.632 163.837 236.641 162.333 233.727L164.913 233.694C166.416 236.609 167.187 239.6 167.226 242.666C167.264 245.733 166.568 248.741 165.139 251.693ZM180.51 235.499C181.856 235.482 182.995 235.921 183.927 236.816C184.858 237.711 185.332 238.819 185.348 240.139C185.365 241.459 184.919 242.578 184.01 243.496C183.102 244.414 181.974 244.881 180.628 244.898L178.168 244.929L178.225 249.529L175.466 249.563L175.29 235.564L180.51 235.499ZM180.595 242.318C181.182 242.311 181.666 242.105 182.048 241.7C182.429 241.282 182.616 240.773 182.608 240.173C182.601 239.56 182.401 239.056 182.009 238.66C181.618 238.265 181.129 238.071 180.542 238.079L178.082 238.11L178.135 242.349L180.595 242.318ZM194.352 239.326L196.931 239.293L197.057 249.293L194.477 249.325L194.462 248.145C193.701 249.128 192.621 249.628 191.221 249.646C189.888 249.663 188.735 249.17 187.762 248.169C186.802 247.154 186.313 245.907 186.295 244.427C186.276 242.947 186.734 241.695 187.668 240.67C188.615 239.631 189.755 239.103 191.088 239.087C192.488 239.069 193.581 239.542 194.366 240.506L194.352 239.326ZM189.68 246.425C190.207 246.938 190.87 247.19 191.67 247.18C192.47 247.17 193.126 246.902 193.64 246.375C194.167 245.835 194.425 245.152 194.414 244.325C194.404 243.499 194.129 242.829 193.589 242.316C193.062 241.789 192.399 241.53 191.599 241.54C190.799 241.551 190.143 241.825 189.629 242.365C189.116 242.892 188.864 243.568 188.875 244.395C188.885 245.221 189.154 245.898 189.68 246.425ZM206.19 239.177L208.95 239.143L205.436 249.188C204.934 250.634 204.253 251.683 203.395 252.333C202.55 252.997 201.487 253.304 200.206 253.254L200.176 250.854C200.87 250.858 201.414 250.705 201.81 250.393C202.22 250.081 202.54 249.584 202.772 248.901L198.551 239.273L201.371 239.238L204.055 245.925L206.19 239.177ZM221.633 238.704C222.78 238.689 223.698 239.051 224.387 239.789C225.09 240.527 225.449 241.523 225.465 242.776L225.542 248.936L222.962 248.968L222.887 242.988C222.88 242.388 222.727 241.924 222.43 241.594C222.132 241.264 221.717 241.103 221.183 241.11C220.597 241.117 220.139 241.316 219.811 241.707C219.496 242.098 219.343 242.659 219.352 243.393L219.422 249.012L216.843 249.045L216.768 243.065C216.76 242.465 216.608 242 216.31 241.671C216.013 241.341 215.597 241.18 215.064 241.186C214.491 241.194 214.033 241.393 213.691 241.784C213.363 242.174 213.203 242.736 213.212 243.47L213.283 249.089L210.703 249.122L210.578 239.122L213.157 239.09L213.171 240.15C213.76 239.249 214.681 238.791 215.934 238.775C217.16 238.76 218.073 239.228 218.672 240.181C219.326 239.213 220.313 238.72 221.633 238.704ZM230.263 244.936C230.626 246.185 231.573 246.8 233.107 246.781C234.093 246.768 234.836 246.426 235.334 245.753L237.429 246.926C236.46 248.365 235.016 249.097 233.096 249.121C231.443 249.142 230.11 248.658 229.098 247.671C228.085 246.684 227.569 245.43 227.55 243.91C227.531 242.403 228.009 241.144 228.983 240.132C229.957 239.106 231.217 238.584 232.764 238.564C234.23 238.546 235.443 239.037 236.402 240.039C237.375 241.04 237.871 242.287 237.889 243.78C237.894 244.114 237.865 244.467 237.803 244.842L230.263 244.936ZM230.198 242.937L235.298 242.873C235.143 242.195 234.83 241.692 234.359 241.364C233.901 241.037 233.379 240.877 232.793 240.884C232.099 240.893 231.528 241.08 231.08 241.446C230.631 241.798 230.337 242.295 230.198 242.937ZM245.584 238.404C246.677 238.39 247.582 238.745 248.297 239.47C249.026 240.194 249.399 241.203 249.415 242.496L249.492 248.635L246.913 248.668L246.84 242.848C246.831 242.182 246.645 241.677 246.281 241.335C245.916 240.98 245.434 240.806 244.834 240.813C244.167 240.821 243.637 241.035 243.242 241.453C242.847 241.871 242.655 242.494 242.665 243.32L242.733 248.72L240.153 248.752L240.028 238.753L242.608 238.721L242.622 239.841C243.236 238.9 244.224 238.421 245.584 238.404ZM257.72 241.012L255.461 241.04L255.513 245.2C255.517 245.546 255.607 245.798 255.782 245.956C255.958 246.114 256.212 246.204 256.546 246.227C256.879 246.236 257.292 246.224 257.785 246.191L257.815 248.531C256.044 248.753 254.789 248.602 254.049 248.078C253.322 247.554 252.95 246.605 252.933 245.232L252.881 241.072L251.141 241.094L251.11 238.614L252.85 238.592L252.824 236.573L255.394 235.76L255.429 238.56L257.689 238.532L257.72 241.012Z" fill="white"/>
<path d="M82.4089 274.857C82.4056 274.591 82.361 274.357 82.2751 274.155C82.1944 273.948 82.0514 273.762 81.8462 273.598C81.6462 273.434 81.3682 273.279 81.0122 273.132C80.6614 272.985 80.2168 272.837 79.6784 272.688C79.1138 272.528 78.6037 272.35 78.1481 272.152C77.6924 271.95 77.3014 271.718 76.9752 271.456C76.649 271.194 76.3978 270.893 76.2216 270.551C76.0455 270.21 75.9546 269.818 75.9491 269.375C75.9435 268.932 76.0295 268.522 76.2071 268.145C76.3847 267.768 76.641 267.439 76.976 267.159C77.3162 266.873 77.7223 266.649 78.1943 266.487C78.6662 266.325 79.1939 266.24 79.7772 266.233C80.6313 266.222 81.3572 266.377 81.955 266.698C82.558 267.013 83.019 267.432 83.3381 267.954C83.6571 268.471 83.8203 269.026 83.8277 269.62L82.3279 269.639C82.3225 269.212 82.2266 268.835 82.0402 268.509C81.8538 268.178 81.5745 267.922 81.2024 267.739C80.8302 267.551 80.3603 267.46 79.7926 267.467C79.2562 267.474 78.8146 267.56 78.4676 267.726C78.1207 267.892 77.8631 268.114 77.6947 268.392C77.5315 268.67 77.4521 268.986 77.4566 269.34C77.4596 269.58 77.5118 269.798 77.6132 269.995C77.7198 270.186 77.8809 270.364 78.0965 270.528C78.3173 270.692 78.5953 270.842 78.9303 270.978C79.2706 271.115 79.6759 271.245 80.1463 271.369C80.7943 271.544 81.3541 271.74 81.8256 271.958C82.2972 272.176 82.6857 272.424 82.9913 272.701C83.302 272.973 83.5325 273.285 83.6828 273.638C83.8382 273.985 83.9187 274.38 83.9242 274.822C83.93 275.286 83.8415 275.706 83.6588 276.084C83.476 276.461 83.2118 276.784 82.8662 277.054C82.5206 277.324 82.1039 277.535 81.6162 277.687C81.1336 277.834 80.5929 277.911 79.994 277.919C79.468 277.925 78.9489 277.859 78.4367 277.719C77.9297 277.58 77.466 277.367 77.0457 277.081C76.6307 276.794 76.2954 276.439 76.0401 276.015C75.7899 275.586 75.6613 275.087 75.6541 274.52L77.154 274.501C77.1589 274.891 77.2387 275.226 77.3932 275.506C77.5477 275.78 77.7563 276.006 78.019 276.185C78.2869 276.364 78.588 276.496 78.9224 276.58C79.262 276.66 79.614 276.697 79.9786 276.692C80.5046 276.686 80.949 276.607 81.3117 276.457C81.6744 276.306 81.9478 276.095 82.1319 275.821C82.3212 275.548 82.4135 275.227 82.4089 274.857ZM91.1304 275.67L91.0489 269.17L92.5019 269.152L92.6079 277.604L91.2252 277.622L91.1304 275.67ZM91.3815 273.885L91.9828 273.862C91.9899 274.424 91.9365 274.946 91.8227 275.426C91.7141 275.902 91.5318 276.316 91.2757 276.668C91.0197 277.02 90.682 277.298 90.2627 277.501C89.8432 277.699 89.3315 277.802 88.7273 277.809C88.3159 277.814 87.9376 277.759 87.5924 277.644C87.2524 277.528 86.9584 277.347 86.7105 277.1C86.4626 276.853 86.2684 276.53 86.128 276.131C85.9928 275.731 85.9216 275.25 85.9146 274.688L85.8462 269.235L87.2914 269.217L87.36 274.685C87.3647 275.066 87.4103 275.38 87.4968 275.629C87.5884 275.873 87.708 276.067 87.8557 276.211C88.0085 276.349 88.1764 276.446 88.3594 276.501C88.5476 276.556 88.7406 276.582 88.9385 276.58C89.5531 276.572 90.0385 276.449 90.3949 276.21C90.7513 275.966 91.0051 275.642 91.1563 275.239C91.3126 274.831 91.3877 274.38 91.3815 273.885ZM98.5004 276.499C98.8442 276.495 99.161 276.42 99.4508 276.276C99.7407 276.132 99.9779 275.936 100.162 275.689C100.347 275.437 100.45 275.152 100.472 274.834L101.847 274.816C101.827 275.317 101.664 275.785 101.357 276.221C101.055 276.652 100.655 277.003 100.159 277.275C99.662 277.542 99.1142 277.679 98.5153 277.686C97.88 277.694 97.3239 277.589 96.8472 277.371C96.3757 277.153 95.9812 276.851 95.6638 276.464C95.3517 276.078 95.1143 275.633 94.9517 275.129C94.7943 274.621 94.712 274.083 94.7049 273.515L94.7008 273.187C94.6937 272.619 94.7625 272.082 94.9072 271.575C95.057 271.063 95.2831 270.609 95.5855 270.215C95.8931 269.82 96.2798 269.508 96.7457 269.278C97.2168 269.048 97.7701 268.93 98.4054 268.922C99.0669 268.913 99.6466 269.041 100.145 269.306C100.643 269.565 101.035 269.925 101.322 270.385C101.615 270.84 101.777 271.359 101.811 271.942L100.436 271.959C100.405 271.61 100.303 271.296 100.127 271.017C99.957 270.738 99.725 270.517 99.4313 270.354C99.1427 270.186 98.8057 270.104 98.4203 270.109C97.9777 270.114 97.6064 270.208 97.3066 270.389C97.0119 270.564 96.7778 270.801 96.6045 271.101C96.4363 271.394 96.3154 271.721 96.2418 272.082C96.1733 272.437 96.1414 272.799 96.146 273.169L96.1501 273.497C96.1548 273.867 96.1958 274.231 96.2732 274.589C96.3506 274.948 96.4771 275.272 96.6526 275.561C96.8333 275.851 97.0732 276.082 97.3723 276.255C97.6765 276.423 98.0526 276.505 98.5004 276.499ZM107.195 276.39C107.538 276.386 107.855 276.311 108.145 276.167C108.435 276.023 108.672 275.827 108.857 275.58C109.041 275.328 109.144 275.043 109.166 274.725L110.541 274.707C110.521 275.208 110.358 275.676 110.051 276.112C109.749 276.543 109.35 276.894 108.853 277.166C108.356 277.433 107.809 277.57 107.21 277.577C106.574 277.585 106.018 277.48 105.542 277.262C105.07 277.044 104.676 276.742 104.358 276.355C104.046 275.969 103.809 275.524 103.646 275.02C103.489 274.512 103.406 273.974 103.399 273.406L103.395 273.078C103.388 272.51 103.457 271.973 103.602 271.466C103.751 270.954 103.977 270.5 104.28 270.106C104.587 269.711 104.974 269.399 105.44 269.169C105.911 268.939 106.464 268.821 107.1 268.813C107.761 268.804 108.341 268.932 108.839 269.197C109.337 269.456 109.73 269.816 110.017 270.276C110.309 270.731 110.472 271.25 110.505 271.833L109.13 271.85C109.1 271.501 108.997 271.187 108.821 270.908C108.651 270.629 108.419 270.408 108.126 270.245C107.837 270.077 107.5 269.995 107.115 270C106.672 270.005 106.301 270.099 106.001 270.28C105.706 270.455 105.472 270.692 105.299 270.992C105.131 271.285 105.01 271.612 104.936 271.973C104.868 272.328 104.836 272.69 104.84 273.06L104.844 273.388C104.849 273.758 104.89 274.122 104.968 274.48C105.045 274.839 105.171 275.163 105.347 275.452C105.528 275.742 105.768 275.973 106.067 276.146C106.371 276.314 106.747 276.396 107.195 276.39ZM116.029 277.467C115.44 277.474 114.905 277.382 114.424 277.19C113.947 276.993 113.535 276.714 113.187 276.354C112.844 275.994 112.578 275.565 112.389 275.067C112.201 274.569 112.103 274.024 112.095 273.43L112.091 273.102C112.082 272.414 112.176 271.801 112.373 271.262C112.569 270.718 112.839 270.256 113.184 269.877C113.528 269.498 113.92 269.209 114.36 269.011C114.801 268.812 115.258 268.71 115.732 268.704C116.336 268.697 116.858 268.794 117.298 268.997C117.743 269.2 118.109 269.487 118.395 269.859C118.681 270.225 118.894 270.66 119.036 271.163C119.178 271.661 119.252 272.207 119.26 272.801L119.268 273.449L112.956 273.529L112.941 272.349L117.808 272.288L117.807 272.179C117.781 271.804 117.698 271.44 117.558 271.088C117.424 270.735 117.212 270.446 116.923 270.221C116.633 269.995 116.241 269.886 115.746 269.892C115.418 269.896 115.117 269.97 114.843 270.114C114.569 270.253 114.334 270.459 114.14 270.732C113.945 271.006 113.796 271.338 113.691 271.73C113.587 272.122 113.538 272.573 113.544 273.084L113.548 273.412C113.553 273.813 113.613 274.19 113.726 274.542C113.845 274.89 114.013 275.195 114.23 275.458C114.452 275.721 114.718 275.926 115.027 276.073C115.341 276.22 115.696 276.291 116.092 276.286C116.603 276.28 117.034 276.17 117.385 275.958C117.737 275.745 118.043 275.462 118.304 275.11L119.188 275.794C119.009 276.073 118.781 276.339 118.503 276.592C118.224 276.846 117.881 277.053 117.471 277.214C117.067 277.376 116.586 277.46 116.029 277.467ZM126.217 274.941C126.214 274.732 126.165 274.54 126.069 274.364C125.978 274.183 125.791 274.021 125.508 273.879C125.23 273.731 124.812 273.607 124.253 273.504C123.783 273.411 123.357 273.299 122.975 273.169C122.599 273.038 122.276 272.878 122.008 272.688C121.745 272.499 121.542 272.275 121.398 272.016C121.254 271.758 121.18 271.454 121.176 271.105C121.172 270.772 121.241 270.456 121.383 270.157C121.53 269.858 121.738 269.593 122.006 269.36C122.279 269.127 122.607 268.944 122.991 268.809C123.375 268.674 123.804 268.603 124.277 268.597C124.955 268.589 125.534 268.701 126.016 268.935C126.498 269.168 126.87 269.484 127.13 269.882C127.39 270.274 127.523 270.713 127.529 271.197L126.084 271.215C126.081 270.981 126.008 270.755 125.864 270.538C125.726 270.316 125.523 270.134 125.256 269.991C124.994 269.849 124.673 269.78 124.292 269.785C123.891 269.79 123.567 269.856 123.318 269.984C123.075 270.107 122.897 270.263 122.785 270.452C122.678 270.641 122.626 270.839 122.628 271.048C122.63 271.204 122.658 271.344 122.712 271.469C122.771 271.588 122.871 271.698 123.013 271.801C123.155 271.898 123.354 271.989 123.61 272.075C123.866 272.16 124.193 272.244 124.59 272.328C125.285 272.475 125.857 272.656 126.308 272.869C126.758 273.082 127.095 273.346 127.318 273.661C127.54 273.976 127.655 274.36 127.66 274.813C127.665 275.183 127.591 275.522 127.439 275.832C127.292 276.141 127.074 276.409 126.785 276.637C126.501 276.859 126.159 277.035 125.76 277.165C125.366 277.29 124.921 277.355 124.426 277.362C123.682 277.371 123.05 277.246 122.531 276.987C122.012 276.728 121.617 276.389 121.346 275.97C121.075 275.552 120.937 275.108 120.931 274.64L122.384 274.621C122.41 275.017 122.528 275.331 122.74 275.562C122.951 275.789 123.208 275.95 123.511 276.045C123.815 276.135 124.115 276.178 124.412 276.174C124.807 276.169 125.137 276.113 125.402 276.006C125.671 275.898 125.875 275.752 126.013 275.568C126.152 275.384 126.219 275.175 126.217 274.941ZM134.801 274.833C134.799 274.625 134.75 274.433 134.654 274.257C134.563 274.075 134.376 273.914 134.093 273.771C133.815 273.624 133.397 273.499 132.838 273.397C132.368 273.303 131.942 273.192 131.56 273.061C131.184 272.93 130.861 272.77 130.593 272.581C130.33 272.391 130.127 272.167 129.983 271.909C129.839 271.65 129.765 271.346 129.761 270.997C129.757 270.664 129.826 270.348 129.968 270.049C130.115 269.751 130.323 269.485 130.591 269.252C130.864 269.02 131.192 268.836 131.576 268.701C131.96 268.566 132.389 268.496 132.862 268.49C133.539 268.481 134.119 268.594 134.601 268.827C135.083 269.061 135.454 269.376 135.715 269.774C135.975 270.167 136.108 270.605 136.114 271.09L134.669 271.108C134.666 270.873 134.593 270.648 134.449 270.431C134.311 270.209 134.108 270.026 133.841 269.884C133.579 269.741 133.257 269.672 132.877 269.677C132.476 269.682 132.152 269.749 131.903 269.877C131.66 270 131.482 270.155 131.37 270.344C131.263 270.533 131.211 270.732 131.213 270.94C131.215 271.096 131.243 271.237 131.297 271.361C131.356 271.48 131.456 271.591 131.598 271.693C131.74 271.79 131.939 271.882 132.195 271.967C132.451 272.052 132.778 272.137 133.175 272.22C133.869 272.368 134.442 272.548 134.893 272.761C135.343 272.974 135.68 273.238 135.903 273.553C136.125 273.868 136.24 274.252 136.245 274.705C136.25 275.075 136.176 275.415 136.024 275.724C135.876 276.033 135.658 276.301 135.37 276.529C135.086 276.751 134.744 276.928 134.345 277.058C133.951 277.182 133.506 277.248 133.011 277.254C132.267 277.263 131.635 277.138 131.116 276.879C130.597 276.62 130.202 276.281 129.931 275.863C129.66 275.444 129.522 275.001 129.516 274.532L130.969 274.514C130.995 274.909 131.113 275.223 131.325 275.455C131.536 275.681 131.793 275.842 132.096 275.937C132.4 276.027 132.7 276.07 132.996 276.067C133.392 276.062 133.722 276.005 133.987 275.898C134.256 275.79 134.46 275.645 134.598 275.461C134.737 275.277 134.804 275.067 134.801 274.833ZM140.649 277.002L139.204 277.02L139.087 267.677C139.079 267.068 139.182 266.553 139.396 266.134C139.614 265.709 139.931 265.388 140.345 265.169C140.758 264.945 141.252 264.829 141.825 264.822C141.991 264.82 142.158 264.828 142.325 264.847C142.497 264.866 142.664 264.895 142.826 264.935L142.763 266.115C142.653 266.091 142.528 266.074 142.387 266.065C142.252 266.057 142.116 266.053 141.981 266.055C141.673 266.059 141.409 266.124 141.186 266.252C140.969 266.375 140.805 266.554 140.693 266.79C140.581 267.026 140.528 267.315 140.532 267.659L140.649 277.002ZM142.34 268.527L142.354 269.636L137.776 269.694L137.762 268.584L142.34 268.527ZM149.522 274.937L149.441 268.438L150.894 268.42L151 276.872L149.617 276.89L149.522 274.937ZM149.773 273.153L150.374 273.13C150.382 273.692 150.328 274.214 150.214 274.694C150.106 275.17 149.923 275.584 149.667 275.936C149.411 276.288 149.074 276.566 148.654 276.769C148.235 276.967 147.723 277.07 147.119 277.077C146.708 277.082 146.329 277.027 145.984 276.912C145.644 276.796 145.35 276.615 145.102 276.368C144.854 276.121 144.66 275.798 144.52 275.399C144.384 274.999 144.313 274.518 144.306 273.956L144.238 268.503L145.683 268.485L145.752 273.953C145.756 274.334 145.802 274.648 145.888 274.897C145.98 275.141 146.1 275.335 146.247 275.479C146.4 275.617 146.568 275.714 146.751 275.769C146.939 275.824 147.132 275.85 147.33 275.848C147.945 275.84 148.43 275.717 148.787 275.478C149.143 275.234 149.397 274.91 149.548 274.507C149.704 274.099 149.779 273.648 149.773 273.153ZM154.942 264.822L155.093 276.821L153.64 276.839L153.489 264.84L154.942 264.822Z" fill="white"/>
<rect x="294.406" y="224.07" width="103" height="62" rx="12" transform="rotate(-0.718253 294.406 224.07)" fill="#00BF7A"/>
<path d="M334.658 251.968L334.677 253.502L319.151 253.696L319.131 252.163L334.658 251.968ZM334.697 255.093L334.716 256.636L319.19 256.831L319.171 255.288L334.697 255.093ZM332.598 247.375L332.776 261.592L329.866 261.629L324.025 252.17L324.144 261.701L321.215 261.737L321.036 247.52L323.966 247.483L329.808 256.951L329.688 247.411L332.598 247.375ZM343.601 247.09L344.011 247.085L344.039 249.331L343.873 249.333C343.131 249.342 342.471 249.461 341.895 249.69C341.318 249.919 340.831 250.241 340.432 250.656C340.04 251.064 339.74 251.556 339.533 252.132C339.332 252.707 339.235 253.35 339.244 254.06L339.274 256.423C339.28 256.93 339.335 257.379 339.437 257.768C339.546 258.151 339.697 258.472 339.889 258.73C340.087 258.981 340.318 259.17 340.58 259.297C340.842 259.418 341.135 259.476 341.461 259.472C341.767 259.468 342.043 259.399 342.288 259.266C342.541 259.133 342.753 258.948 342.926 258.711C343.105 258.468 343.238 258.186 343.326 257.866C343.419 257.539 343.464 257.184 343.459 256.8C343.454 256.416 343.401 256.062 343.299 255.737C343.204 255.413 343.063 255.135 342.878 254.903C342.693 254.664 342.469 254.481 342.207 254.354C341.945 254.228 341.651 254.166 341.326 254.17C340.883 254.176 340.494 254.285 340.158 254.497C339.829 254.703 339.572 254.967 339.387 255.288C339.202 255.61 339.105 255.946 339.097 256.298L338.24 255.762C338.253 255.26 338.352 254.784 338.535 254.332C338.724 253.88 338.986 253.48 339.321 253.131C339.661 252.775 340.071 252.496 340.55 252.295C341.03 252.087 341.572 251.979 342.177 251.972C342.841 251.963 343.426 252.083 343.93 252.331C344.441 252.578 344.869 252.921 345.213 253.36C345.557 253.798 345.817 254.306 345.993 254.883C346.17 255.46 346.262 256.078 346.271 256.735C346.279 257.425 346.173 258.068 345.953 258.663C345.739 259.258 345.423 259.78 345.006 260.228C344.595 260.676 344.098 261.027 343.515 261.282C342.932 261.537 342.276 261.669 341.547 261.678C340.792 261.687 340.103 261.559 339.482 261.293C338.866 261.021 338.334 260.637 337.885 260.142C337.436 259.646 337.087 259.054 336.837 258.367C336.594 257.68 336.468 256.927 336.457 256.106L336.444 255.013C336.429 253.867 336.582 252.817 336.902 251.862C337.229 250.901 337.703 250.068 338.326 249.364C338.949 248.653 339.704 248.1 340.591 247.704C341.478 247.309 342.481 247.104 343.601 247.09ZM353.735 261.61C351.989 261.632 350.607 260.989 349.591 259.681C348.588 258.361 348.072 256.6 348.045 254.4C348.017 252.201 348.488 250.435 349.458 249.102C350.442 247.757 351.806 247.073 353.553 247.051C355.313 247.029 356.694 247.678 357.698 248.999C358.701 250.307 359.216 252.06 359.244 254.26C359.271 256.46 358.8 258.233 357.83 259.578C356.86 260.91 355.495 261.588 353.735 261.61ZM351.567 257.777C352.057 258.544 352.768 258.922 353.702 258.91C354.635 258.898 355.337 258.496 355.807 257.703C356.29 256.911 356.523 255.774 356.504 254.294C356.485 252.801 356.224 251.664 355.721 250.884C355.231 250.103 354.52 249.719 353.587 249.731C352.653 249.742 351.952 250.144 351.481 250.937C351.011 251.73 350.786 252.873 350.804 254.366C350.823 255.859 351.077 256.996 351.567 257.777ZM366.732 261.447C364.986 261.469 363.604 260.826 362.588 259.519C361.584 258.198 361.069 256.437 361.041 254.237C361.014 252.038 361.485 250.272 362.455 248.939C363.438 247.594 364.803 246.91 366.55 246.888C368.309 246.866 369.691 247.515 370.694 248.836C371.697 250.144 372.213 251.897 372.24 254.097C372.268 256.297 371.797 258.07 370.827 259.415C369.857 260.747 368.492 261.425 366.732 261.447ZM364.564 257.614C365.054 258.381 365.765 258.759 366.698 258.747C367.631 258.735 368.333 258.333 368.803 257.54C369.287 256.748 369.519 255.611 369.501 254.131C369.482 252.638 369.221 251.501 368.718 250.721C368.228 249.94 367.516 249.556 366.583 249.568C365.65 249.579 364.948 249.982 364.478 250.774C364.008 251.567 363.782 252.71 363.801 254.203C363.82 255.696 364.074 256.833 364.564 257.614Z" fill="white"/>
<rect x="295.419" y="225.058" width="101" height="60" rx="11" transform="rotate(-0.718253 295.419 225.058)" stroke="white" stroke-opacity="0.5" stroke-width="2"/>
</svg>
